<?xml version="1.0" encoding="utf-8"?>
<!-- Generator: Adobe Illustrator 19.2.1, SVG Export Plug-In . SVG Version: 6.00 Build 0)  -->
<svg version="1.1" id="Ebene_1" xmlns="http://www.w3.org/2000/svg" xmlns:xlink="http://www.w3.org/1999/xlink" x="0px" y="0px"
	 viewBox="0 0 1024 512" enable-background="new 0 0 1024 512" xml:space="preserve">
<path fill="#1D1D1D" d="M1024,461.2l-10.1-3.8V445h-1.1v-1.8h1.1V441l-3.1-2.1l-12-18.4v-5h-0.4v5l-29.2,1.6v-0.2h0.1v-0.3l-0.2-0.1
	v-0.6h-0.2h-0.2v0.6l-0.2,0.1v0.3h0.1v0.3l-0.9,0.1V421h0.1v-0.3h-0.1v-1.4h0.1V419l-0.2-0.1v-0.6h-0.2h-0.2v0.6L967,419v0.3h0.1
	v1.4H967v0.3h0.1v1.3l-2.2,0.1l0-0.1v-5.4l-0.3-0.3V415h0.1v-0.3h-0.1v-1.4h0.1v-0.3l-0.2-0.1v-0.6h-0.1h-0.2v0.6l-0.2,0.1v0.3h0.1
	v1.4h-0.1v0.3h0.1v1.6l-0.3,0.3v5.4l-0.1,0.2l-0.4,0l0,0v-7.7l-0.3-0.3v-1.6h0.1v-0.3H963v-1.4h0.1v-0.3l-0.2-0.1v-0.6h-0.2h-0.2
	v0.6l-0.2,0.1v0.3h0.1v1.4h-0.1v0.3h0.1v1.6l-0.3,0.3v7.7l0,0.1l-2.5,0.1v-5.3l-0.3-0.3v-1.6h0.1v-0.3h-0.1v-1.4h0.1v-0.3l-0.2-0.1
	v-0.6H959h-0.2v0.6l-0.2,0.1v0.3h0.1v1.4h-0.1v0.3h0.1v1.6l-0.3,0.3v5.4l0,0h-0.2L958,422v-5.4l-0.3-0.2v-1.7h0.1v-0.3h-0.1v-1.4
	h0.1v-0.3l-0.2-0.1v-0.6h-0.2h-0.2v0.6l-0.2,0.1v0.3h0.1v1.4H957v0.3h0.2v1.7l-0.3,0.2v5.4l-0.3,0.9l-0.4,0l-2.4-4.6h-1.2l-0.1-0.1
	v-1.6h0.2v-0.3h-0.2v-1.4h0.1v-0.3l-0.2-0.1v-0.6h-0.1h-0.2v0.6l-0.2,0.1v0.3h0.1v1.4h-0.1v0.3h0.1v1.6l-0.1,0.1h-2.1l0-0.2v-5.4
	l-0.3-0.3v-1.6h0.1v-0.3h-0.1v-1.4h0.1v-0.3l-0.2-0.1v-0.6h-0.2h-0.2v0.6l-0.2,0.1v0.3h0.1v1.4h-0.1v0.3h0.1v1.6l-0.3,0.3v5.4l0,0.1
	l-0.1-0.2l-1.2-0.7v-1.1h-0.7v-1.8l-0.3-0.5v-3.6h-0.5v3.6l-0.4,0.5c0,0,0,1.6,0,1.8c0,0.1-0.3-0.3-0.3-0.3V410l0.2-0.3v-1.1
	l-0.2-0.3V404l-0.8-4.2v-1.6h-0.4v1.6l-0.5,4.3v3.9h-2.5l-1.2-2.2v-5.6h-0.7v3.8l-0.6-1.2v-5h-0.6v2.4l-7.4-17.4v-2.3h0.3v-0.7
	l-0.3-0.4v-2.7l0.1-0.2v-0.5l-0.4-0.8l-0.5,0.8v0.4l0.2,0.3v2.7l-0.3,0.4v0.7h0.2v2.4l-61.2,5.5v-13.7h-0.6v3.1h-0.5v-5.2l0.7-0.6
	V371h-0.8v-4.3l-1-0.7l0-0.2h0.3v-0.4h-0.3l-0.1-0.7h0.2v-0.4h-0.3l-0.1-0.6h0.2v-0.4h-0.3l-0.1-0.7h0.2v-0.4H866l-0.1-0.7h0.2V361
	h-0.3l-0.1-0.6h0.2v-0.4h-0.3l-0.1-0.7h0.2v-0.4h-0.3l-0.1-0.7h0.2v-0.4h-0.3l-0.1-0.7h0.2v-0.4h-0.3l-0.1-0.7h0.2v-0.4h-0.3
	l-0.1-0.7h0.2v-0.4h-0.3l-0.1-0.7h0.2v-0.4h-0.3l-0.1-0.7h0.2v-0.4H865l-0.1-0.7h0.2v-0.4h-0.3l-0.1-0.7h0.2V350h-0.3l-0.1-0.7h0.2
	v-0.4h-0.2l0-0.7h0.2v-0.4h-0.2l-0.1-0.7h0.2v-0.4h-0.2l-0.1-0.7h0.2v-0.4h-0.2l-0.1-0.7h0.2v-0.4h-0.2l-0.1-0.7h0.2v-0.4h-0.2
	l-0.1-0.7h0.2v-0.4H864l-0.2-1.4l0.2-0.5v-0.5l-0.3-0.3V338l0.3-0.5v-0.7l-0.2-0.3v-0.9l-0.2-0.3v-2.1l0.1-0.2h0.6v-0.2h-0.6
	l-0.2-0.2v-1.1h-0.2h-0.2v1.1l-0.1,0.2h-0.7v0.2h0.6l0.2,0.2v2.1l-0.2,0.3v0.9l-0.2,0.3v0.7l0.3,0.5v1.5l-0.4,0.3v0.5l0.2,0.5
	l-0.2,1.4h-0.2v0.4h0.2l-0.1,0.7h-0.2v0.4h0.2l-0.1,0.7h-0.2v0.4h0.2l-0.1,0.7h-0.2v0.4h0.2l-0.1,0.7h-0.2v0.4h0.2l-0.1,0.7h-0.2
	v0.4h0.2l-0.1,0.7h-0.2v0.4h0.2l-0.1,0.7h-0.2v0.4h0.2l-0.1,0.7h-0.2v0.4h0.2l-0.1,0.7h-0.3v0.4h0.2l-0.1,0.7h-0.3v0.4h0.2l0,0.7
	h-0.3v0.4h0.2l-0.1,0.7h-0.3v0.4h0.2l-0.1,0.7H861v0.4h0.2l-0.1,0.7h-0.3v0.4h0.2l-0.1,0.7h-0.3v0.4h0.2l-0.1,0.7h-0.3v0.4h0.2
	l-0.1,0.6h-0.3v0.4h0.2l-0.1,0.7h-0.3v0.4h0.3l-0.1,0.7h-0.3v0.4h0.3l-0.1,0.6h-0.3v0.4h0.2l-0.1,0.7h-0.3v0.4h0.3l0,0.2l-1,0.7v4.3
	h-0.8v0.8l0.7,0.6v5.2h-0.5v-3.1h-0.5v13.6l-21.5-2.5v-14.2l0.6-0.4v-0.7h0.4v-1h-0.6l-1.3-0.7l0.1,0v-0.4h-0.2v-0.5l0.1-0.3v-0.5
	l-0.2-0.2v-0.4l1.3-1.7v-1.4c0,0-0.3-0.4-1.3-1c-1-0.6-1.3-1.6-1.3-1.6v-2.5l0.1-0.3l0.2-0.2v-0.3l-0.6-0.7v-2.3l0.3-0.4v-0.4
	l-0.4-0.6v-3.3l-0.2-0.2l-0.1,0.2v3.3l-0.4,0.6v0.4l0.3,0.4v2.3l-0.6,0.7v0.3l0.1,0.2l0.1,0.3v2.5c0,0-0.3,1-1.3,1.6
	c-1,0.6-1.3,1-1.3,1v1.4l1.3,1.7v0.4l-0.3,0.2v0.5l0.1,0.3v0.5h-0.2v0.3h-0.4h-0.9c0,0-1.7-0.6-2.8-2c-1.2-1.4-1.2-4.7-1.2-4.7
	l1.6-1.4v-0.9l-1-0.9v-0.7c0,0,0.1-1.3-1.1-3c-1.2-1.7-2.8-2-2.8-2l0.5-0.9v-0.5l-0.6-0.9v-0.2l0.1-0.3v-0.6l-0.6-0.6v-2.6l0.2-0.3
	V345l-0.2-0.4v-1l0.4-0.3v-0.5h0.3l0.3-0.4V342l-0.1-0.1v-0.4h-0.3V341c0,0-0.1,0.1-0.6-0.3c-0.5-0.4,0-3.4-0.6-4.4
	c-0.6-1-1.6-1-1.6-1v-0.5l-0.4-0.4v-0.8l0.3-0.2v-0.5h0.3l0.3-0.5v-0.7h-0.2l-0.7-0.8v-4.2l0.8-1.1V325l-1.1-2.1l0.1-0.2v-1.2h-0.3
	l-1.6-7.6l0.2-0.5v-0.8l-0.5-0.6v-2l0.2-0.2v-0.6l0.2-0.3v-0.7l-0.5-0.8v-5.5l-0.4-0.6l-0.4,0.6v5.5l-0.5,0.8v0.7l0.2,0.3v0.6
	l0.2,0.2v2l-0.4,0.6v0.8l0.2,0.5l-1.6,7.6h-0.3v1.2l0.1,0.2l-1.1,2.1v0.7l0.9,1.1v4.2l-0.7,0.8h-0.2v0.7l0.3,0.5h0.2v0.5l0.3,0.2
	v0.8l-0.4,0.4v0.5c0,0-0.9,0.1-1.6,1c-0.6,1-0.2,4-0.6,4.4c-0.5,0.4-0.6,0.3-0.6,0.3v0.5h-0.3v0.4l-0.1,0.1v0.4l0.4,0.4h0.3v0.5
	l0.4,0.3v1l-0.2,0.4v0.9l0.2,0.3v2.6l-0.6,0.6v0.6l0.2,0.3v0.2l-0.6,0.9v0.5l0.5,0.9c0,0-1.6,0.3-2.8,2c-1.2,1.7-1.1,3-1.1,3v0.7
	l-1,0.9v0.9l1.6,1.4c0,0,0,3.4-1.2,4.7c-0.6,0.7-1.3,1.2-1.9,1.5h-0.1l-0.1-1.4h0.4V366h-0.5l-0.1-1.3h0.4v-0.7H804l-0.2-1.4h0.4
	v-0.7h-0.5l-0.2-1.4h0.4v-0.7h-0.5l-0.2-1.3h0.4v-0.7h-0.4l-0.2-1.4h0.4v-0.7h-0.4l-0.2-1.3h0.4v-0.7h-0.5l-0.2-1.4h0.4v-0.7h-0.4
	l-0.1-1.4h0.3v-0.7h-0.4l-0.2-1.4h0.4v-0.7h-0.4l-0.5-4.5h0.3v-0.7h-0.4v-1h0.7v-0.5h-0.7v-0.8H801h-0.3v0.8h-0.8v0.5h0.8v1h-0.4
	v0.7h0.2l-0.6,4.5h-0.4v0.7h0.4l-0.2,1.4h-0.4v0.7h0.4l-0.2,1.4h-0.4v0.7h0.4l-0.2,1.4h-0.4v0.7h0.4l-0.1,1.3h-0.5v0.7h0.4l-0.2,1.4
	h-0.5v0.7h0.4l-0.2,1.3h-0.5v0.7h0.4l-0.2,1.4h-0.5v0.6c-0.4,0.3-0.6,0.6-0.6,0.6v1.4l0.7,0.8l-0.1,0.6h-0.5v0.7h0.4l-0.2,1.4h-0.5
	v0.7h0.4l0,0.3l-0.5,0.3h-0.6v1h0.4v0.7l0.5,0.4l-0.1,0.7h-0.5v0.7h0.4l-0.2,1.4h-0.5v0.7h0.4l-0.2,1.6h-0.7V371H795v5.4l-0.3,0.3
	v2.1l-0.5,0.2v0.9l0.4,0.2v5.8l-0.4,0.3v-3.5l-0.6-0.9l-0.5,1v8.1h-0.7v1l0.4,0.5v2.4l-1.3,0.1l-0.1-0.6v-5.1h-0.5v5.1l-0.2,0.7
	l-6.9,0.6l-0.4-2.2v-1.6l-0.4-1.5V385h-0.5v5.1l-0.4,1.5v1.6l-0.3,2.4l-0.9,0.1v-1.9l0.3-0.6v-1.8l-0.2-0.4v-2.7l0.4-0.5v-1h-0.7
	v-8.1l-0.5-1l-0.6,0.9v3.6l-0.4-0.3V376l0.4-0.2v-0.9l-0.5-0.2v-2.1l-0.2-0.3v-5.4h-0.8v5.4h-0.7l-0.2-1.6h0.4V370h-0.5l-0.1-1.4
	h0.4v-0.7h-0.5l-0.2-1.3h0.4v-0.7h-0.5l-0.2-1.4h0.4v-0.7h-0.5l-0.2-1.3h0.4v-0.7h-0.5l-0.2-1.4h0.4v-0.7h-0.5l-0.2-1.4h0.4v-0.7
	h-0.5l-0.2-1.3h0.4v-0.7h-0.5l-0.2-1.4h0.4v-0.7h-0.5l-0.1-1.4h0.4v-0.7h-0.5l-0.2-1.4h0.4v-0.7h-0.4l-0.2-1.4h0.4v-0.7h-0.5
	l-0.2-1.3h0.4v-0.7h-0.4l-0.2-1.4h0.4v-0.7H774l-0.5-4.4h0.2v-0.7h-0.4v-1h0.8V337h-0.8v-0.8h-0.3h-0.4v0.8h-0.7v0.5h0.7v1h-0.4v0.7
	h0.3l-0.6,4.4h-0.4v0.7h0.4l-0.2,1.4h-0.4v0.7h0.4l-0.2,1.3h-0.4v0.7h0.4l-0.2,1.4h-0.4v0.7h0.4l-0.2,1.4h-0.5v0.7h0.4l-0.2,1.4
	h-0.5v0.7h0.4l-0.2,1.4h-0.5v0.7h0.4l-0.2,1.3h-0.5v0.7h0.4l-0.2,1.4h-0.5v0.7h0.4l-0.2,1.4H769v0.7h0.4l-0.2,1.3h-0.5v0.7h0.4
	l-0.2,1.4h-0.5v0.7h0.4l-0.2,1.3h-0.5v0.7h0.4l-0.2,1.4H768v0.7h0.4l-0.2,1.6h-0.7v-5.4h-0.7v5.4l-0.2,0.3v2.1l-0.5,0.2v0.9l0.4,0.2
	v5.8l-0.4,0.3v-3.6l-0.6-0.9l-0.5,1v8.1h-0.7v1l0.4,0.5v2.7l-0.2,0.4v1.8l0.3,0.6v11.3l-0.5,1.2v-4.1h-0.4v-6.4l-0.3-2.6v-1.6
	l-0.4-1.5V385h-0.5v5.1l-0.4,1.5v1.6l-0.4,2.6v6.4l-0.7,0.4l-0.5,4.2v5.1h-0.5l-0.5,3.7v14.2l-0.6,0.4l-0.5,3.6v1.6h-3l-5.4-3.8
	v-2.8h0.5v-0.7h-4v0.6h0.4v1l-1.8-1.6h-0.5v-8.2h-0.3v8.2h-15.2v-0.7l0.4-0.2l-0.5-0.5h-3.4v0.4h0.4v1.4h-7.9v-19.7l-1.7-3.3v-17.6
	h0.6v-1.3h-0.4v-10.6h0.9v-1l-7.1-8.5v-2.7l1.8-0.7v-1.5h1.4l0.5-1.4h1.4v-1.5H715v-4.9h0.4v-1.1h-5.3v-1.1h-1.4v-61.3l1.1-1v-2.4
	l2.4-2.1v-1.5h1.2v-0.6l1.7-0.9l0.3-0.8h2.1v-1.2h-3.4v-4.2h0.5v-2.7h-0.5v-6.7l-1.1-1.8l-2.8-27l-0.1-10.7c0,0,0.5,0.1,0.6-0.7
	c0.1-0.8-0.7-1.5-0.7-1.5l0-4.7l0.2-0.6l-0.4-1.1l-0.6,1.2l0.3,0.5l-0.2,4.7c0,0-0.7,0.9-0.8,1.4c0,0.5,0.8,0.9,0.8,0.9l-0.4,10.6
	l-3.9,25.6h-4.5l-1.9-27.8v-4.5h-0.5l-0.6-5.6h0.6v-1h-0.8l-2.2-23.2l-0.1-9.7c0,0,1-0.2,1-1c0-0.9-0.9-1.3-0.9-1.3l-0.2-5.7
	c0,0,0.2-0.4,0.2-0.8c0-0.4-0.5-0.7-0.5-0.7s-0.5,0.4-0.6,0.7c0,0.4,0.3,0.8,0.3,0.8l-0.3,5.7c0,0-0.8,0.4-0.8,1.2
	c0,0.8,1,1.1,1,1.1l-0.6,9.7l-3.7,18.4l-7.9-56.7l0-24.6c0,0,1.3-0.5,1.3-1.9c0-1.3-1.7-1.7-1.7-1.7v-6.2l-0.3-0.6l-0.3,0.6v6.2
	c0,0-1.7,0.4-1.7,1.7c0,1.3,1.3,1.9,1.3,1.9l0,24.6l-7.9,56.7l-3.7-18.4l-0.6-9.7c0,0,1-0.3,0.9-1.1c0-0.8-0.8-1.2-0.8-1.2l-0.3-5.7
	c0,0,0.3-0.4,0.3-0.8c0-0.3-0.6-0.7-0.6-0.7s-0.4,0.3-0.4,0.7c0,0.4,0.2,0.8,0.2,0.8l-0.2,5.7c0,0-0.9,0.4-0.9,1.3c0,0.8,1,1,1,1
	l-0.1,9.7l-2.1,23.2h-0.9v1h0.6l-0.6,5.6h-0.5v4.5l-1.9,27.8h-4.5l-3.9-25.6l-0.4-10.6c0,0,0.8-0.3,0.8-0.9c0-0.5-0.8-1.4-0.8-1.4
	l-0.2-4.7l0.3-0.5l-0.6-1.2l-0.4,1.1l0.2,0.6l0,4.7c0,0-0.8,0.7-0.7,1.5c0.1,0.8,0.6,0.7,0.6,0.7l-0.1,10.7l-2.8,27l-1.1,1.8v6.7
	h-0.5v2.7h0.5v4.2h-3.4v1.2h2.1l0.4,0.8l1.6,0.9v0.6h1.2v1.5l2.4,2.1v2.4l1.1,1v10h-0.8l0-1.3h-0.6l-0.1,1.3h-0.8v0.8h0.7l-0.1,1.5
	h-0.4v0.5h0.4l0,0.7H652v0.5h0.5l0,0.7h-0.6v0.5h0.6l0,0.8h-0.7v0.5h0.7l0,0.7h-0.9v0.5h0.8l0,0.7h-1v0.5h0.9v0.2l-0.9,1v10.3
	l-2.5-5.9V301l-1-1.1v-0.1h1v-0.5h-1l0-0.7h0.9v-0.5h-0.9l0-0.7h0.8v-0.5h-0.8l0-0.8h0.7v-0.5h-0.7l0-0.8h0.5v-0.5h-0.6l0-0.7h0.4
	v-0.5h-0.5l-0.1-1.5h0.8v-0.8h-0.8l-0.1-1.3h-0.6l-0.1,1.3H646v0.8h0.7l-0.1,1.5h-0.4v0.5h0.4l0,0.7H646v0.5h0.5l0,0.8h-0.6v0.5h0.6
	l0,0.8h-0.8v0.5h0.7l0,0.7h-0.9v0.5h0.8l0,0.7h-1v0.5h0.9l0,0.2l-0.9,1v5.6L643,301v-8.8l-1-1v-0.2h1v-0.5h-1l0-0.7h0.9v-0.5h-0.9
	l0-0.7h0.8V288h-0.8l0-0.7h0.7v-0.5h-0.7l0-0.7h0.6v-0.5h-0.6l0-0.7h0.4v-0.5h-0.5l-0.1-1.5h0.8V282h-0.8l-0.1-1.3H641l-0.1,1.3
	h-0.7v0.8h0.7l-0.1,1.5h-0.4v0.5h0.4l0,0.7h-0.5v0.5h0.5l0,0.7h-0.6v0.5h0.6l0,0.7h-0.7v0.5h0.7l0,0.7h-0.9v0.5h0.8l0,0.7h-1v0.5h1
	l0,0.2l-0.9,1v0.6l-1.8-4.2v-4.7l-1.2-1.2v-6.3l1.3-1.6h1.7v3.2h0.6v-3.2h3.9v0.7h0.9v-2.8h-1.2v0.7H640v-3.6h-0.6v3.6h-1.5l-1.3-1
	v-4.9h0.7v-1.2H636h-1.3v1.2h0.7v4.9l-1.3,1h-1.5v-3.6H632v3.6h-3.8v-0.7H627v2.8h0.9v-0.7h3.9v3.2h0.6v-3.2h1.7l1.3,1.6v6.3
	l-1.2,1.2v4.7l-1.7,4.2v-0.6l-1-1v-0.2h0.9v-0.5h-1l0-0.7h0.8v-0.5h-0.8l0-0.7h0.7V288h-0.7l0-0.7h0.6v-0.5h-0.6l0-0.7h0.5v-0.5
	h-0.5l0-0.7h0.4v-0.5h-0.4l-0.1-1.5h0.7V282h-0.8l-0.1-1.3h-0.6l-0.1,1.3h-0.8v0.8h0.8l-0.1,1.5h-0.4v0.5h0.4l0,0.7h-0.6v0.5h0.5
	l0,0.7h-0.7v0.5h0.6l0,0.7h-0.8v0.5h0.8l0,0.7h-0.9v0.5h0.9l0,0.7h-1v0.5h1l0,0.2l-1,1v8.8l-2.4,5.7V301l-0.9-1l0-0.2h0.9v-0.5h-1
	l0-0.7h0.8v-0.5h-0.9l0-0.7h0.7v-0.5h-0.7l0-0.8h0.6v-0.5h-0.6l0-0.8h0.5v-0.5h-0.5l0-0.7h0.4v-0.5h-0.4l-0.1-1.5h0.7v-0.8h-0.7
	l-0.1-1.3h-0.6l-0.1,1.3h-0.8v0.8h0.8l-0.1,1.5h-0.4v0.5h0.4l0,0.7h-0.6v0.5h0.6l0,0.8h-0.7v0.5h0.7l-0.1,0.8h-0.8v0.5h0.8l0,0.7
	h-0.9v0.5h0.9l0,0.7h-1v0.5h1v0.1l-1,1.1v13.8l-2.5,5.9v-10.3l-0.9-1l0-0.2h1v-0.5h-1l0-0.7h0.8v-0.5h-0.9l0-0.7h0.7v-0.5h-0.7
	l0-0.8h0.6v-0.5h-0.6l0-0.7h0.5v-0.5h-0.5l0-0.7h0.4v-0.5h-0.4l-0.1-1.5h0.7v-0.8h-0.8l-0.1-1.3h-0.6l-0.1,1.3h-0.7v-10l1.1-1v-2.4
	l2.4-2.1v-1.5h1.2v-0.6l1.6-0.9l0.4-0.8h2.1v-1.2h-3.4v-4.2h0.5v-2.7h-0.5v-6.7l-1.1-1.8l-2.8-27l-0.1-10.7c0,0,0.5,0.1,0.6-0.7
	c0.1-0.8-0.7-1.5-0.7-1.5l0-4.7l0.2-0.6l-0.4-1.1l-0.6,1.2l0.3,0.5l-0.2,4.7c0,0-0.8,0.9-0.8,1.4c0,0.5,0.8,0.9,0.8,0.9l-0.4,10.6
	l-3.9,25.6h-4.5l-1.9-27.8v-4.5h-0.5l-0.6-5.6h0.6v-1h-0.8l-2.2-23.2l-0.1-9.7c0,0,1-0.2,1-1c0-0.9-0.9-1.3-0.9-1.3l-0.2-5.7
	c0,0,0.2-0.4,0.2-0.8c0-0.4-0.5-0.7-0.5-0.7s-0.5,0.4-0.6,0.7c0,0.4,0.3,0.8,0.3,0.8l-0.3,5.7c0,0-0.8,0.4-0.8,1.2
	c0,0.8,0.9,1.1,0.9,1.1l-0.6,9.7l-3.7,18.4l-7.9-56.7l-0.1-24.6c0,0,1.3-0.5,1.3-1.9c0-1.3-1.7-1.7-1.7-1.7v-6.2l-0.3-0.6l-0.3,0.6
	v6.2c0,0-1.7,0.4-1.7,1.7c0,1.3,1.3,1.9,1.3,1.9l0,24.6l-7.9,56.7l-3.7-18.4l-0.6-9.7c0,0,1-0.3,1-1.1c0-0.8-0.8-1.2-0.8-1.2
	l-0.3-5.7c0,0,0.3-0.4,0.3-0.8c0-0.3-0.6-0.7-0.6-0.7s-0.4,0.3-0.4,0.7c0,0.4,0.2,0.8,0.2,0.8l-0.2,5.7c0,0-0.9,0.4-0.9,1.3
	c0,0.8,1,1,1,1l-0.1,9.7l-2.2,23.2h-0.8v1h0.6l-0.6,5.6h-0.5v4.5l-1.9,27.8H567l-3.9-25.6l-0.4-10.6c0,0,0.8-0.3,0.8-0.9
	c0-0.5-0.8-1.4-0.8-1.4l-0.2-4.7l0.3-0.5l-0.6-1.2l-0.4,1.1l0.2,0.6l0,4.7c0,0-0.8,0.7-0.7,1.5c0.1,0.8,0.6,0.7,0.6,0.7l-0.1,10.7
	l-2.8,27l-1.1,1.8v6.7h-0.5v2.7h0.5v4.2h-3.4v1.2h2.1l0.4,0.8l1.6,0.9v0.6h1.2v1.5l2.4,2.1v2.4l1.1,1v61.3H562v1.1h-5.3v1.1h0.4v4.9
	h-0.5v1.5h1.4l0.5,1.4h1.4v1.5l1.8,0.7v2.7l-7.1,8.5v1h0.9v10.6h-0.4v1.3h0.6v17.6l-1.7,3.3v5h-8v-2.2h-3.3c0,0-3.3-4.9-11.4-4.9
	c-8.1,0-11.2,4.8-11.2,4.8h-2.2l-1.3-2.6h-3.1v-1.7h4.4v-0.8l-4.9-4v-0.6h1.2v-1.7h-2.7l-4.8-9.5v-4.5h-0.9v4.4l-1.3,1.2l-8.6-13.4
	v-11l0.9-2h1.8v-1.4c0,0-9.5-6-14.1-9.8c-4.6-3.8-4-13.3-4-13.3l2.4-2.1v-13.1h0.5v-1.6h-0.6v-1.5l-3.2-16.7v-6.9h-0.9v6.9
	l-2.3,12.6l-6.8-40.7l-0.5-0.8v-5.2l0.5-0.9V269l-1.5-0.9v-4l0.4-1v-4.6l-0.8-1.5l-0.8,1.5v4.6l0.4,1v4l-1.5,0.9v1.9l0.6,0.9v5.2
	l-0.6,0.8l-6.8,40.7l-2.3-12.6v-6.9h-0.9v6.9l-3.2,16.7v1.5h-0.6v1.6h0.6v13.1l2.4,2.1c0,0,0.6,9.6-4,13.3
	c-4.6,3.8-14.1,9.8-14.1,9.8v1.4h1.8l0.9,2v25.2h-0.8v5.2h0.8v4.5l-2.7,2.3v5.3h-3.8V407h-2.6v2.4h-4.7v-8.7h-1v8.6h-1.1v-1.5h-2.6
	v-3.1h-0.8l-2.2,2.4v2.2h-1v-5.1h-1v5.5h-0.6V407h-1.1v3.1h-4v-1.6h-2v-2.9l-0.6-0.6l-0.6-1.8h-1.8v1.9h-1.7c0,0,0,3.4,0,3.5
	c0,0.1-1.3,0-1.3,0v5h-0.6l-1.3-1.9h-1.4v3.6h-2.8v-9.4h-1v-3.5h-1.8v0.9h-1.1v9.5l-4-3.5l-5.9,7.1h-2.3v-28.9h0.8v-1.9h-0.8v-19.6
	l3.8-3.7v-1.3h-0.8v-14.9l1.9-2v-12.7l-0.8-0.6v-1.1h-1v-3.7h-1.5l-3.2-21.6v-1.2h0.3v-2.6h-0.6v-4.5h-0.7v4.5h-0.6v2.6h0.5v1.4
	l-1.4,21.6h-12.3l-8.3-21.3l-2.3-18.9v-1h0.3v-2.7h-0.5V278h-0.6v3.9h-0.5v2.6h0.4v1l-1.5,10.7l-8.7-37v-12.5l0.7-0.4v-3.1l-0.7-0.6
	v-4.4h-0.8v4.4l-0.6,0.6v3l0.5,0.5v12h-5.3h-5.3v-12l0.5-0.5v-3l-0.6-0.6v-4.4h-0.8v4.4l-0.7,0.6v3.1l0.7,0.4v12.5l-8.7,37
	l-1.5-10.7v-1h0.4V282h-0.5V278h-0.6v3.9h-0.5v2.7h0.3v1l-2.3,18.9l-8.3,21.3h-12.3l-1.4-21.6v-1.4h0.5v-2.6h-0.6v-4.5h-0.7v4.5
	h-0.6v2.6h0.3v1.2l-3.2,21.6h-1.5v3.7h-1v1.1l-0.8,0.6v12.7l1.9,2v14.9h-0.8v1.3l3.8,3.7v19.6h-0.8v1.9h0.8v10.6h-0.8L269,379.1
	h-4.4l-14.4,9.4h-5.1l-2.4-1.2v-8.2h0.4v-0.8h-7.7v1.1h0.6v5.5l-10.2-2.8v-0.7h0.7v-0.5h-3.4v-23.1h-0.4v23.1h-3.7v0.6h0.8v0.6h-3.4
	v-5.4h0.5V376h-7.7v1h0.4v6.4h-7.7v0.6h-1.5v-4.6h0.5v-0.7h-6.6v1.1h0.5v5.4l-13.8,2v-4.6h0.4v-0.9h-5v0.8h0.4v5.1l-12.9,5.3h-1.6
	v-24.5l0.6-0.7v-1.8l-0.6-1.9v-2.3l1.6-1v-1.2h1v-0.6l-0.7-0.9h-1.9l-2.1-3.9h-1.8c0,0,0-16-13.1-30.6
	c-9.3-10.3-22.3-14.5-22.3-14.5v-1.5l-0.7-1v-10h0.3v-1.1h-0.3v-2.7h0.5l0.9-0.5v-0.6h-1.3l-0.4-0.3c-0.5-4.6-4.2-7.1-6-8.4
	c-1.7-1.2-3.5-2.2-3.5-2.2v-1l-0.3-0.2V278l-0.5-1.8V274l0.2-0.7v-1.5l-0.6-0.6v-6l-0.4-0.7l-0.4,0.7v6l-0.6,0.6v1.5l0.3,0.7v2.2
	l-0.5,1.8v1.4l-0.3,0.2v1c0,0-1.8,1-3.5,2.2c-1.7,1.2-5.5,3.8-6,8.4l-0.4,0.3h-1.3v0.6l0.9,0.5h0.5v2.7h-0.3v1.1h0.3v10l-0.7,1v1.5
	c0,0-13,4.3-22.3,14.5c-13.2,14.6-13.2,30.6-13.2,30.6h-1.8l-2.1,3.9h-1.9l-0.7,0.9v0.6h1.1v1.2l1.5,1v2.3l-0.6,1.9v1.8l0.6,0.7v22
	l-1-1.1v-1.7h0.4v-0.8c0,0-2.1-1.3-3-2.4c-0.9-1.1-1.2-3.5-3-4.8c-1.8-1.3-5.1-3.1-5.1-3.1V374l0.4-0.4v-0.9l-0.9-1.2l-0.7,1.2v0.9
	l0.3,0.4v2.6l-4.1,2.2l-13-15.1v-1.5h-0.7v-3.8l1.1-0.9v-2.3l-1.1-4.6v-2.2l-0.7-3.2l-0.6,3.3v2.1l-1,4.4v2.6l0.9,0.7v3.8h-0.6v1.4
	L7.6,386.9H4.9l-2.2,2v10.5l-2.6,5V512H1024V461.2z M292.1,360.6h-1.9v-14h1.9V360.6z M379.6,346.6h1.9v14h-1.9V346.6z M570.3,269
	v3.2h-2.4V267h3.2L570.3,269z M577.2,254.9l-2.2-15.5l1.6,1.4v1.9l1.7,1.6L577.2,254.9z M604.2,254.9l-1.1-10.6l1.6-1.6v-1.9
	l1.6-1.4L604.2,254.9z M613.4,272.3h-2.4V269l-0.9-2.1h3.2V272.3z M618.3,309.4l-0.3,0.4v-0.5h0.3V309.4z M618.3,308.8h-0.4v-0.7
	h0.4L618.3,308.8z M618.4,307.6h-0.4v-0.7h0.5L618.4,307.6z M618.4,306.3h-0.5v-0.8h0.5L618.4,306.3z M618.6,302.7h-0.5v0.5h0.4
	l0,0.7H618v0.5h0.6l0,0.7h-0.5v-3.9h0.7L618.6,302.7z M654.1,309.8l-0.3-0.4l0-0.1h0.4V309.8z M654.1,308.8h-0.4l0-0.7h0.4V308.8z
	 M654.1,307.6h-0.4l0-0.7h0.5V307.6z M654.1,306.3h-0.5l0-0.8h0.5V306.3z M654.1,305.1h-0.6l0-0.7h0.5v-0.5h-0.6l0-0.7h0.4v-0.5
	h-0.5l-0.1-1.5h0.7V305.1z M661,269v3.2h-2.4V267h3.2L661,269z M667.9,254.9l-2.2-15.5l1.6,1.4v1.9l1.6,1.6L667.9,254.9z
	 M694.9,254.9l-1.1-10.6l1.6-1.6v-1.9l1.6-1.4L694.9,254.9z M704.1,272.3h-2.4V269l-0.9-2.1h3.2V272.3z"/>
</svg>
