<?xml version="1.0" encoding="utf-8"?>
<!-- Generator: Adobe Illustrator 19.2.1, SVG Export Plug-In . SVG Version: 6.00 Build 0)  -->
<svg version="1.1" id="Ebene_1" xmlns="http://www.w3.org/2000/svg" xmlns:xlink="http://www.w3.org/1999/xlink" x="0px" y="0px"
	 viewBox="0 0 1024 512" enable-background="new 0 0 1024 512" xml:space="preserve">
<path fill="#1D1D1D" d="M1024,472.1h-4.7v-2.6h-1.9v-1.9h1.9v-3.6h-1.9v-1.9h1.9v-3.6h-1.9v-1.9h1.9v-3.6h-1.9v-1.9h1.9v-3.6h-1.9
	v-1.9h1.9v-3.6h-1.9v-1.9h1.9v-3.6h-1.9v-1.9h1.9v-3.6h-1.9v-1.9h1.9v-3.6h-1.9V424h1.9v-3.6h-1.9v-1.9h1.9v-3.6h-1.9v-1.9h1.9v-3.6
	h-1.9v-1.9h1.9V404h-1.9v-1.9h1.9v-3.6h-1.9v-1.9h1.9v-3.6h-1.9v-1.9h1.9v-3.6h-1.9v-1.9h1.9v-3.6h-1.9v-1.9h1.9v-3.6h-1.9v-1.9h1.9
	v-3.6h-1.9v-1.9h1.9v-3.6h-1.9v-1.9h1.9v-3.6h-1.9v-1.9h1.9v-3.6h-1.9V353h1.9v-3.6h-1.9v-1.9h1.9v-3.6h-1.9v-1.9h1.9v-3.6h-1.9
	v-36.3h-3.9v-22.8h-1.5v-4.6h-1.1v-2.1h-5.9v2.1h-6.1v4.6h-21.1v22.8h-4.3v154.9H966V328.6h-3.9v-19.2h-4.3v-10.1H956v10.1h-29.5
	v19.2h-4.3v115.3h-12.5l-0.6-25.6h1.5V416h-0.8v-4.5l4.9-4.9h-5.3v-2.2l1.4-1.2h-1.6v-1.7h-1.5l-0.1-2.1l0.5-0.5v-4.2l1.1-2.8h-2
	l-2.2,4l-0.5,0v0.9l-1.4,1v-2.1l1.1-1.3v-0.9h-1.4v-1l-2.4-2.4l-0.1-13l0.6-1.1l-0.5-0.1v-0.3l3.7-3.5l-4.1-0.2v-1.4l-1-0.8l0-2.1
	l-4.1,0c-0.1-0.7-0.4-1.1-0.9-1.1c-0.4,0-0.8,0.5-0.9,1.1l-6.6-0.1c-0.1-0.6-0.4-1-0.9-1s-0.8,0.4-0.9,1l-6.6-0.1
	c-0.1-0.6-0.5-1.1-0.9-1.1c-0.1,0-0.3,0.1-0.4,0.2l-0.2-26.4h-0.6l-0.2,27.3l-6.2-0.1c-0.1-0.6-0.4-1.1-0.9-1.1
	c-0.4,0-0.8,0.4-0.9,1.1l-4.6,0l-7.7,6.4l-0.1,2.1l-4.3,3.3l3.3,2.4v12.6h-13.7l-0.2-21.3h-0.4l-0.2,21.3h-10l-4.6,3.8l-0.1,1.2
	h-9.6v-2.9l0.5-1.5h-1.3v-0.3c0.3-0.1,0.4-0.3,0.4-0.6c0-0.3-0.3-0.5-0.6-0.6V393h-0.4v0.2c-0.4,0.1-0.6,0.3-0.6,0.6
	c0,0.2,0.2,0.4,0.4,0.5v0.3h-1.3l0.5,1.5v2.8h-12.9v-2.9l0.5-1.5H800v-0.3c0.3-0.1,0.5-0.3,0.5-0.6c0-0.3-0.3-0.5-0.7-0.6v-0.2h-0.4
	v0.2c-0.4,0.1-0.7,0.3-0.7,0.6c0,0.2,0.2,0.4,0.4,0.5v0.3h-1.3l0.5,1.5v2.9h-14.3l-0.1-6.5h0.4l2.2-3.7l-2.9-1.1v-2.2h-1.1v-0.7
	h-0.4v-0.8l1.5-2.5l-1.9-0.7l0.1-0.9l0.5-0.5l-1-1.3l0-0.7l-1.1-0.1v-4.3l0.7-1.8v-0.9l0.8-1.3l-2.3-1.2l0.4-1.1v-1h-1.3l0.2-2.4
	l-1.1-0.7l0-1.8h-1v1.8l-1.3,1.3v1.9h-0.8v1.1l0.4,0.8l-2.2,1.5l0.9,0.9l0,1.1l0.6,1.3v4.7h-0.7l-1.4,2l0.5,0.8v1h-0.9l-0.6,1
	l-1.6-1.9l0.4-1l-2.1-2.2l0.3-1.2l-2.3-2.1l0.3-1l-2.4-2.2l0.2-0.6l-2.6-2.3l0.2-0.5l-2.9-2l0-0.4l-1.3-1.2l-1.7-0.6l-1.1-1.2
	l-2.6-1l-0.5-0.6l-3.1-1.2l-3.6-1.2c0,0,0.6-0.8-2.3-1.8c-2.9-1-7.7-1.3-7.7-1.3s-4.8,0.3-7.7,1.3c-2.9,1-2.3,1.8-2.3,1.8l-3.6,1.2
	l-3.1,1.2l-0.5,0.6l-2.6,1l-1.1,1.2l-1.7,0.6l-1.3,1.2l0,0.4l-2.9,2l0.2,0.5l-2.6,2.3l0.2,0.6l-2.4,2.2l0.3,1l-2.3,2.1l0.3,1.2
	l-2.1,2.2l0.4,1l-1.6,1.9l-0.6-1h-0.9v-1l0.6-0.8l-1.4-2h-0.7v-4.7l0.6-1.3l0-1.1l0.9-0.9l-2.2-1.5l0.4-0.8v-1.1H694V364l-1.3-1.3
	v-1.8h-1l0,1.8l-1.1,0.7l0.2,2.4h-1.3v1l0.4,1.1l-2.3,1.2l0.8,1.3v0.9l0.7,1.8v4.3l-1.1,0.1l0,0.7l-1,1.3l0.5,0.5l0.1,0.9l-1.8,0.7
	l1.5,2.5v0.8H687v0.7h-1.1v2.2l-2.9,1.1l2.2,3.7h0.4l-0.1,6.5h-14.3v-2.9l0.5-1.5h-1.2v-0.3c0.3-0.1,0.4-0.3,0.4-0.5
	c0-0.3-0.3-0.5-0.7-0.6v-0.2h-0.4v0.2c-0.4,0.1-0.6,0.3-0.6,0.6c0,0.2,0.2,0.4,0.5,0.6v0.3h-1.3l0.5,1.5v2.9h-12.9v-2.8l0.5-1.5
	h-1.3v-0.3c0.3-0.1,0.4-0.3,0.4-0.5c0-0.3-0.3-0.6-0.7-0.6V393h-0.4v0.2c-0.4,0.1-0.6,0.3-0.6,0.6c0,0.2,0.2,0.4,0.5,0.6v0.3H653
	l0.5,1.5v2.9h-9.6l-0.1-1.2l-4.6-3.8h-10l-0.2-21.3h-0.4l-0.2,21.3h-13.7v-12.6l3.3-2.4l-4.3-3.3l-0.1-2.1l-7.7-6.4l-4.6,0
	c-0.1-0.6-0.4-1.1-0.9-1.1c-0.4,0-0.8,0.5-0.9,1.1l-6.2,0.1l-0.2-27.3h-0.6l-0.2,26.4c-0.1-0.1-0.3-0.2-0.4-0.2
	c-0.4,0-0.8,0.5-0.9,1.1l-6.6,0.1c-0.1-0.6-0.5-1-0.9-1c-0.4,0-0.8,0.4-0.9,1l-6.6,0.1c-0.1-0.6-0.4-1.1-0.9-1.1
	c-0.4,0-0.8,0.5-0.9,1.1l-4.1,0l0,2.1l-1,0.8v1.4l-4.1,0.2l3.7,3.5v0.3l-0.5,0.1l0.6,1.1l-0.1,13l-2.4,2.4v1h-1.4v0.9l1.2,1.3v2.1
	l-1.4-1V396l-0.5,0l-2.2-4h-2l1.1,2.8v4.2l0.5,0.5l-0.1,2.1h-1.5v1.7h-1.6l1.4,1.2v2.2h-5.3l4.9,4.9v4.5h-0.8v2.4h1.5l-0.8,35.6
	l-0.6,1.4h-1.3v3.9h-1.3v1.6h0.6v7.7h-2.3c0,4.9,0,9.8,0,14.8l-2.5,0l0.1-37.6H545v-1.7h-6.9v1.7h-1v15.8h-3.3l-0.4-30.9l1.4-0.6
	v-2.3l-0.9-0.6v-3.4h0.4V422H534v-4.3l4.7-3.5v-2.4h2v-3.1h-6.6v-3.3H533v-7.7l3-3.9v-2h-64.2V391h-3.2v-2.6h-8.1v-6.5h1.7v4.8h1.1
	l0.9-4.8l-0.6-1.8l0.5-3.5l-0.9-1.1l0.9-0.5l0.4-2l-0.1-3.7l-1.2-0.2l-3.6,3.9l0.1,2l-3.3,1.1l-0.3,3.8l0.6,3.9L456,385v3.7h-2.5
	l0-7.5l0.9-1.7l-0.5-3.3L453,376l-0.9-6.2l-1.1-1.2l-1.8,0.7l0.2-4.1l0.2-3.3l-1.4-1.9l-1,0.6l-1.7-1.7l-1.3-0.3l0.1-3.3
	c0,0,3.1-0.2,3.2-2.3c0-1.2-0.4-2.8-2.3-2.9l-0.1-1l4.8-3.8l0.6-2.2l-5.5,3.1l-0.1-1.3l-1.3-1.1l-1.3,1.1l-0.1,1.3l-5.5-3.1l0.6,2.2
	l4.8,3.8l-0.1,1c-1.9,0.1-2.3,1.7-2.3,2.9c0.1,2.2,3.2,2.3,3.2,2.3l0.1,3.3l-1.3,0.3l-1.7,1.7l-1-0.6l-1.4,1.9l0.2,3.3l0.2,4.1
	l-1.8-0.7l-1.1,1.2l-0.9,6.2l-0.9,0.1l-0.5,3.3l0.9,1.7l0,7.5h-2.5V385l-0.7-1.1l0.6-3.9l-0.3-3.8l-3.3-1.1l0.1-2l-3.6-3.9l-1.2,0.2
	l-0.1,3.7l0.4,2l0.9,0.5l-0.9,1.1l0.5,3.5l-0.6,1.8l0.9,4.8h1.2v-4.8h1.7v6.5h-8.1v2.6h-3.2v0.7h-64.2v2l3,3.9v7.7h-1.1v3.3h-6.6
	v3.1h2v2.4l4.7,3.5v4.3H353v1.7h0.4v3.4l-0.9,0.6v2.3l1.4,0.6l-0.6,39.4h-1.7v-31.2h-12.6v-56.6h-0.8V381h0.8v-2.4h-0.8v-1.1h0.8
	v-2.4h-0.8v-1.1h0.8v-2.4h-0.8v-1.1h0.8v-2.4h-0.8v-1.1h0.8v-2.4h-0.8v-1.1h0.8v-2.4h-0.8v-1.1h0.8v-2.4h-0.8v-1.1h0.8v-2.4h-0.8
	v-1.1h0.8v-2.4h-0.8v-1.1h0.8v-2.4h-0.8v-1.1h0.8V344h-0.8v-1.1H337V342h-0.8v-9.1h-3v9.1H326v0.9h-3.1l-9.8,12.6v118.1h-1.3v-20.8
	h-0.2v-1.1h-1.7v1.1h-1.7v29.5h-1.3v-43.1h-1.8v-0.9h-5.2v0.9h-1.1v1.2h-1.4v2.4h1.4v1h-1.4v2.4h1.4v0.9h-1.4v2.4h1.4v0.9h-1.4v2.4
	h1.4v0.9h-1.4v2.4h1.4v0.9h-1.4v2.4h1.4v1h-1.4v2.4h1.4v0.9h-1.4v2.4h1.4v0.9h-1.4v2.4h1.4v0.9h-1.4v2.4h1.4v0.9h-1.4v2.4h1.4v0.9
	h-1.4v2.4h1.4v0.9h-1.4v2.4h1.4v0.9h-1.4v2.4h1.4v0.9h-1.4v2.4h1.4v0.9h-1.4v2.4h1.4v0.9h-1.4v2.1h-0.9v-14.9h-0.6v-6.7h-3.2v6.7
	h-2.5v6.1h-5V470h0.4v-2.3l3.2-3l-3.8-4.9l-2.1,0.1v-19.2l1.4-6.4h-1.6v-5.7l6.1-5.7l-6.5-0.4v-1.1v-2.4l0.7-1.1h-0.7v-1h-1.2v-11.9
	h-1.9v-3.6l-1-1.1v-15.9l1.1-2.2l-1.1-0.7l0.1-1.4l2.6-3.3l-2.9-2.5v-3l0.7-0.9l-2-1.2V364l-0.9-2.6l-1.1,2.4v2.6l-1.8-1.1
	c0,0,0.8-15.4-14.1-18.9v-0.5l-0.4-0.1l-1.8-0.2l-0.2-4l-0.6-0.2v-1.6c0,0,2-0.6,2.1-2c0-1.1-0.2-2.5-2.1-2.6v-6.6h-0.3v6.6
	c-1.8,0-2.3,1.4-2.2,2.4c0.1,1.1,1,2.1,2,2.3l0,1.5l-0.6,0.5v3.7l-0.8,0.3l-0.2,0v0l-0.6,0.2l0,0.4c-13.1,3.5-13.5,16.4-13.5,18.4
	c0,0.1,0,0.2-0.1,0.3l-1.8,1.1v-2.6l-1.1-2.4l-0.9,2.6v4.9l-2,1.2l0.7,0.9v3l-2.9,2.5l2.6,3.3l0.1,1.1l-0.1,0.4l-1,0.7l0.6,1.3
	l-0.1,0.8l0.1,2.2l0.5,0.3v13.5l-1,1.1v3.6h-1.9v11.9h-1.2v1h-0.7l0.7,1.1v0.2l-1,0c0,0-1-6.5-6.8-7.1v-3.2h-1.1v3.2
	c-1.7,0.1-5.7,1.1-7.3,7.2l-0.7-0.1l-0.8-1.7v-20.6l0.8-1.5v-1h-0.7v-3.3l2.4-2.1l-2.8-3.3v-1l1.3-1.5l-2.4-3.3l0.5-1l-0.7-1.3
	l-0.6-9.5l-1.7-4l-1.2,4l-0.2,7.5l-1.1-0.2c0,0,2.5-37.2-37.2-51.4l-0.7-2.3l-0.1-10.8c0,0-3.5-2.9-4.2-5.6
	c-0.7-2.7-0.7-9.3-0.7-9.3l-1.5-1l0-1.1c0,0,0.9-0.5,0.9-1.5c0-1-0.8-1.4-1-1.4c-0.2-0.1,0-1.2,0-1.2l0.4-0.2l-0.1-9.7l-0.7,0
	l-0.7,0l-0.1,9.7l0.4,0.2c0,0,0.2,1.1,0,1.2c-0.2,0-1.1,0.4-1,1.4c0,1,0.9,1.5,0.9,1.5l0,1.1l-1.5,1c0,0,0,6.6-0.7,9.3
	c-0.7,2.7-4.2,5.6-4.2,5.6l-0.1,10.8l-0.7,2.3c-28.3,10.1-35.2,31.9-36.8,43.6l-2.7-117.5h2.2v-6.7h0.5v-2.8h-1v-6.9
	c9.5-3.5,16.2-12.5,16.2-23.2c0-11-7.1-20.3-17-23.5v-2.9h3.8v-3.2h-3.8v-1.1h3.9v-3.2h-0.3l-0.1-1.1h0.5v-3.2h-0.9l-0.1-1.1h1.1
	V168h-1.4l-0.1-1h1.4v-3.2h-1.7l-0.1-1.1h1.8v-3.2h-2.2l-0.1-1.1h2.3v-3.2h-2V154h2v-3.2h-6.7l-3.1-126.6h-3.4l-3.1,126.6h-6.8v3.2
	h1.8v1.1h-1.7v3.2h2.1l-0.1,1.1h-2v3.2h1.6l-0.1,1.1h-1.5v3.2h1.2l-0.1,1h-0.9v3.2h0.5l-0.1,1.1h-0.5v3.2h0.2l-0.1,1.1h-0.2v3.2h3.7
	v1.1h-3.8v3.2h3.8v3c-9.8,3.3-16.8,12.5-16.8,23.4c0,10.7,6.8,19.7,16.3,23.2v6.8h-1.1v2.8h0.5v6.7h2.2l-3.6,163.1
	c-1.9,1.3-2.9,3.4-3.3,4.7h-0.7v-1h-1.2v-11.9h-2v-3.6l-1-1.1v-15.9l1.1-2.2l-1.1-0.7l0.1-1.4l2.6-3.3l-2.9-2.5v-3l0.7-0.9l-2-1.2
	v-4.9l-0.9-2.6L85,364v2.6l-1.8-1.1c0,0,0.8-15.3-14-18.9l0-0.4l-0.1,0v-0.1l-0.4-0.1l-1.2-0.4v-3.7l-0.6-0.5l0-1.5
	c1-0.2,1.9-1.2,2-2.3c0.1-1-0.4-2.4-2.2-2.4v-6h-0.3v6c-2,0.1-2.2,1.5-2.2,2.6c0,1.4,2.1,2,2.1,2v1.6l-0.6,0.2l-0.2,4l-2.2,0.3v0.5
	c-14.9,3.5-14.1,18.9-14.1,18.9l-1.8,1.1v-2.6l-1.1-2.4l-0.9,2.6v4.9l-2,1.2l0.7,0.9v3l-2.9,2.5l2.6,3.3l0.1,1.4l-1.1,0.7l1.1,2.2
	v15.9l-1,1.1v3.6h-1.9v11.4h-3.4V403L6,412.8v2H3.9v13.3H6v2.8H3.9v13.3H6v2.8H3.9v13.3H6v2.8H3.9v13.3H6v2.8H3.9v0.6H0V512h1024
	V472.1z M93,419.1l-0.4,0v0l0.7-1.1C93.1,418.6,93,419.1,93,419.1z M353.1,481.3h-1.5v-4.8h1.6L353.1,481.3z M384.9,500.2H384v1.7
	h-9.3v-12.4h-2.5v-37.8h-3.4v-1.9h-4.4v-2.3h-1.5l-0.2-15.6h23.2L384.9,500.2z M418.5,500.2h-0.9v1.8h-20.9v-1.7h-0.9l-1-68.2h24.8
	L418.5,500.2z M458,500.2h-0.9v1.8h-26.7v-1.8h-0.9l-1-68.2H459L458,500.2z M491.6,500.2h-0.9v1.7h-20.9v-1.8h-0.9l-1-68.2h24.8
	L491.6,500.2z M524.2,465.8h-3.8V440h-13.2v6.9h-1.1v6.1h-2.2v19.1h-0.8v2.1h-1l-0.6-42.2h23.2L524.2,465.8z"/>
</svg>
