<?xml version="1.0" encoding="utf-8"?>
<!-- Generator: Adobe Illustrator 19.2.1, SVG Export Plug-In . SVG Version: 6.00 Build 0)  -->
<svg version="1.1" id="Ebene_1" xmlns="http://www.w3.org/2000/svg" xmlns:xlink="http://www.w3.org/1999/xlink" x="0px" y="0px"
	 viewBox="0 0 1024 512" enable-background="new 0 0 1024 512" xml:space="preserve">
<linearGradient id="SVGID_1_" gradientUnits="userSpaceOnUse" x1="512" y1="512" x2="512" y2="182.622">
	<stop  offset="0" style="stop-color:#FFFFFF;stop-opacity:0.2"/>
	<stop  offset="1.523411e-002" style="stop-color:#EDEDED;stop-opacity:0.2219"/>
	<stop  offset="5.344370e-002" style="stop-color:#C4C4C4;stop-opacity:0.2768"/>
	<stop  offset="9.526168e-002" style="stop-color:#A0A0A0;stop-opacity:0.3369"/>
	<stop  offset="0.1404" style="stop-color:#828282;stop-opacity:0.4017"/>
	<stop  offset="0.1897" style="stop-color:#6A6A6A;stop-opacity:0.4726"/>
	<stop  offset="0.2451" style="stop-color:#575757;stop-opacity:0.5522"/>
	<stop  offset="0.3098" style="stop-color:#4A4A4A;stop-opacity:0.6452"/>
	<stop  offset="0.3927" style="stop-color:#424242;stop-opacity:0.7644"/>
	<stop  offset="0.5567" style="stop-color:#404040"/>
</linearGradient>
<polygon fill-rule="evenodd" clip-rule="evenodd" fill="url(#SVGID_1_)" points="455.7,193.5 457.8,193.5 457.8,182.6 484.3,182.6 
	484.3,193.5 486.4,193.5 486.4,374.3 497.2,374.3 497.2,245.4 499.3,245.4 499.3,234.9 525.8,234.9 525.8,245.4 527.9,245.4 
	527.9,374.3 543.3,374.3 543.3,315.1 561,315.1 561,372.4 569.6,372.4 569.6,364.6 573.3,364.6 573.3,355 579.1,355 580.3,314.9 
	581.5,355 587.3,355 587.3,364.6 591,364.6 591,372.4 591,430.1 604.4,430.1 604.4,322.4 622.3,322.4 622.3,430.1 640.5,430.1 
	640.5,368.9 646.6,368.9 646.6,362.7 651.3,362.7 651.3,368.9 655.9,368.9 655.9,362.7 670.9,362.7 670.9,368.9 674.1,368.9 
	674.1,411.1 685.4,411.1 685.4,386.3 704.4,371.6 704.4,316.2 716.5,339.4 716.5,430.1 721.7,430.1 721.7,399.1 748.7,399.1 
	748.7,441.7 758.3,441.7 758.3,412.3 758.3,404.9 758.3,349.1 775.9,349.1 775.9,404.9 796.2,404.9 796.2,412.3 823.1,412.3 
	823.1,440.5 852,440.5 852,445.1 859.2,445.1 859.2,430.1 870.3,430.1 870.3,421.9 878.8,421.9 878.8,412.7 891.3,412.7 
	891.3,461.5 930.6,461.5 930.6,419.3 977.2,403 977.2,423 986.8,423 986.8,490.3 1024,490.3 1024,512 57.6,512 0,512 0,475.6 
	14.7,475.6 14.7,423.2 46.2,423.2 46.2,475.6 57.6,497.3 56.5,409.9 98.4,409.9 98.4,378.9 106.6,378.9 106.6,382.4 114.8,382.4 
	114.8,391.1 123,391.1 123,417.2 132.7,455.3 132.7,440.2 159.1,440.2 159.1,410.7 187.7,410.7 187.7,403.4 207.4,403.4 
	207.4,349.1 223.1,349.1 223.1,403.4 223.1,410.7 223.1,440.2 235.6,440.2 235.6,410.3 261.7,410.3 261.7,320.9 266.4,328.3 
	266.4,303.8 292.5,345.5 292.5,370 297.1,377.4 297.1,410.3 306.6,410.3 306.6,366.4 310.2,366.4 310.2,356.3 337.7,356.3 
	337.7,366.4 345.9,366.4 345.9,410.3 345.9,436.9 358.1,436.9 358.1,271.9 380.3,271.9 380.3,422.5 390.5,422.5 390.5,363.1 
	394.9,363.1 394.9,352.2 408.9,352.2 408.9,363.1 413.3,363.1 413.3,372.4 424.8,372.4 424.8,331.3 439.1,331.3 439.1,401 
	439.1,403 455.7,403 455.7,193.5 "/>
<polygon fill-rule="evenodd" clip-rule="evenodd" fill="#1D1D1D" points="459.5,272.8 469.9,272.8 469.9,446.5 478,446.5 478,440.2 
	478,416.8 478,375.1 478,319.2 517.1,319.2 517.1,375.1 522.6,375.1 522.6,416.8 529.6,416.8 529.6,440.2 553.4,440.2 553.4,366.6 
	600.8,366.6 600.8,441.6 619.7,441.6 619.7,462.1 629.4,462.1 629.4,400.5 633.6,400.5 633.6,382.8 642.7,382.8 642.7,360.6 
	646.1,360.6 648.6,328.7 651.2,360.6 654.6,360.6 654.6,382.8 663.6,382.8 663.6,400.5 667.8,400.5 667.8,462.1 678.1,462.1 
	678.1,453.8 678.1,386.9 678.1,377 683.7,377 687.9,386.9 700.1,386.9 700.1,453.8 706.4,453.8 706.4,424.4 706.4,370.3 
	733.6,370.3 733.6,424.4 742.3,424.4 742.3,450.3 752.1,450.3 752.1,476.1 760.1,476.1 760.1,462.3 760.1,385.5 763.3,385.5 
	763.3,351.5 793.7,351.5 793.7,385.5 796.8,385.5 796.8,462.3 812.8,462.3 812.8,402.8 845.7,402.8 845.7,462.3 881.3,462.3 
	881.3,436.1 884.7,436.1 884.7,423.4 888.9,423.4 888.9,415.2 893.5,415.2 893.5,405.7 909.5,405.7 909.5,415.2 914.1,415.2 
	914.1,423.4 918.2,423.4 918.2,436.1 921.7,436.1 921.7,487.1 931.2,487.1 931.2,470.1 936.7,470.1 936.7,431.9 987.7,431.9 
	987.7,470.1 993.3,470.1 993.3,487.1 1024,487.1 1024,512 0,512 0,467.9 11.9,467.9 11.9,446.7 50.3,446.7 50.3,467.9 59.9,467.9 
	59.9,408 62.3,408 62.3,393.8 95.8,393.8 95.8,408 98.2,408 98.2,451.8 107.3,451.8 107.3,431.3 192.5,431.3 192.5,443.4 
	207.1,443.4 207.1,401.6 231.6,401.6 231.6,443.4 231.6,460.3 236.5,460.3 236.5,383.9 260.9,383.9 260.9,460.3 266.5,460.3 
	266.5,414.3 272.8,414.3 272.8,397.4 301.4,397.4 301.4,414.3 307.7,414.3 307.7,432.7 339.4,432.7 339.4,359.7 348.8,354.9 
	348.8,317.4 367.5,307.9 385.8,311.8 385.8,347.7 395.3,348.9 395.3,459.6 407.8,459.6 407.8,293.3 418.3,286.5 418.3,232.6 
	439.1,219 459.5,219 459.5,272.8 "/>
</svg>
