<?xml version="1.0" encoding="utf-8"?>
<!-- Generator: Adobe Illustrator 19.2.1, SVG Export Plug-In . SVG Version: 6.00 Build 0)  -->
<svg version="1.1" id="Ebene_1" xmlns="http://www.w3.org/2000/svg" xmlns:xlink="http://www.w3.org/1999/xlink" x="0px" y="0px"
	 viewBox="0 0 1024 512" enable-background="new 0 0 1024 512" xml:space="preserve">
<path fill="#1D1D1D" d="M1022,491.4V490h-0.9l-0.6,0.6h-1.1v-4.8h0.3v-3.1h-0.8v-2.3h0.3v-0.5h0.3v-0.4h-5.2v-13.1h0.4v-5.2l0.5-0.4
	v-0.4h1.7l0-0.5l0.7-0.4h1.3v-0.9h0.3l0.8-1v-0.4h-5.7v-2.6l-0.8-0.7v-3.4h0.4v-0.7h-17.5v-2.3h-0.6v-1.5h-0.6v2.7H990v-1l-1.2-0.7
	v-0.5l0.3-0.1v-0.3l2.3-0.9l0.7-2.6l0.3-0.3v-1.1h-2l-1.4-0.9l0.6-0.8v-0.4h-1.8l-0.9-0.6h-1.4l-0.7,0.4h-2.2v0.6l0.5,0.5v1h-1v-0.9
	h-0.4v0.8h-0.9l-1.3-3.4h-0.2v-1.7h-0.3v1.6h-3.4v-3.9h-0.3v3.7h-8.8v-1H965v-0.9h-0.3v2.4l-10.8,0.9v-2.3h-0.4v2.4l-1.7,3h-0.7
	l-0.2-0.5h-1v-1.9l0.5-0.6v-1.7l0.7-1.2v-0.5h-0.9l-0.3,0.4l-0.4-0.4h-0.6v-1l0.3-0.1v-0.8h-1.3v0.9l0.4,0.2v0.9h-0.9l-0.3-0.2h-0.9
	v0.7l0.8,1.4v1.5l-0.4,0.5l-0.4,2.6h-2l-0.9,2.9v1l0.3,0.4l-0.2,0.2l-13.2,0.8v-8.9v-1.1l0.7-0.6v-0.6l-1.2-0.5v-1l-0.7-0.4v-14.3
	l0.6-0.4v-0.7h-0.6l0.3-0.5V418h-0.3v-1.2l1.5-0.9v-0.3l0.3-0.2v-0.4h-4v-0.5l-2.7-0.4v-4l0.1-0.7v-0.8l-0.3-0.4v-0.6l0.8-0.9V405
	l-0.8-2.2h-0.8v-0.4h0.3v-0.4l-1.1-0.6c0,0,0.5-5.5-3.9-11.7c-3.1-4.5-8.1-6.7-8.1-6.7l0-0.3l0.2-0.2l0-0.3l-0.3-0.3l0-1.1l-0.4-0.8
	l0.3-3l0.3-0.7l-0.6-1.1l-0.3-1l-0.3-0.6v-0.7l-0.8-1l1-2.9l0.5-2.4c0,0-0.5-0.8-0.6-1c-0.1-0.1,0-2.3,0-2.3l-0.9-1.1v-0.8l0.6-1.1
	V359l-0.7-0.7v-0.8l-0.4-0.4l-0.5,0.4v0.8l-0.7,0.7v1.1l0.6,1.1v0.8l-0.9,1.1c0,0,0.2,2.1,0,2.3c-0.2,0.2-0.6,1-0.6,1l0.5,2.4l1,2.9
	l-0.8,1v0.7l-0.3,0.6l-0.3,1l-0.6,1.1l0.3,0.7l0.3,3l-0.4,0.8l0.1,1.1l-0.3,0.3l0,0.3l0.2,0.2l0,0.3c0,0-4.9,2.2-8,6.7
	c-4.4,6.3-3.9,11.7-3.9,11.7l-1.1,0.6v0.4h0.3v0.4h-0.8l-0.8,2.2v1.5l0.8,0.9v0.6l-0.3,0.4v0.8l0.1,0.7v4l-2.7,0.4v0.5h-4v0.4
	l0.3,0.2v0.3l1.5,0.9v1.2h-0.3v0.4l0.3,0.5h-0.6v0.7l0.6,0.4v14.3l-0.7,0.4v1l-1.2,0.5v0.6l0.7,0.6v1.1v1.8l-4-0.1L878.5,325
	l0.3-0.2l-0.3-8.6l0.5-0.8l-0.5-5.3h-0.4l-0.3-3.8l-0.2,3.8h-0.3l-0.3,5.3l0.5,0.8l-0.1,8.8l0.4,0.1l0.4,115h-5.5v-11.5h-0.6v11.6
	h-15.9l-3.5-5.6h-1.4v-0.5h-0.8v0.7l-20.3,0.6L824,445l-12,1.5h-4.6v-2.3h0.5v-0.4l-3.8-5.2h-1.4v-2.5h-0.4v-1.5h0.4v-3.2h-0.4V430
	h0.4v-3.2h-0.4v-1.5h0.4v-3.2h-0.4v-1.4h0.4v-3.2h-0.4v-1.4h0.4v-3.2h-0.4v-1.5h0.4v-3.2h-0.4v-1.5h0.4v-3.2h-0.4v-1.5h0.4v-3.2
	h-0.4v-1.4h0.4v-3.2h-0.4v-1.5h0.4v-3.2h-0.4v-1.4h0.4V385h-0.4v-1.4h0.4v-3.2h-0.4v-1.5h0.4v-3.2h-0.4v-1.4h0.4v-3.2h-0.4v-1.5h0.4
	v-3.2h-0.4V365h0.4v-3.2h-0.4v-1.5h0.4v-3.2h-0.4v-0.4h0.6c0,0,0.2-0.6,0-0.6c-0.2,0-2.8,0-2.8,0v-1.6h-5.1v1.2c0,0-2.3,0.2-2.3,0
	s0-4.4,0-4.4h1.5l0.9-0.7h3.8l2.2-2.1v-0.8l-2.9,1.3l-3-0.4l-2.4-1.2l-1.5,0.6h-6.4l-0.9-1l-2.8,0.8v-4.6h-0.3v-0.8l0.7-0.3v-0.7
	l-17.4-1.1V338h-0.4v2.5l-8.2,1.9v1h0.8v0.8h-0.3v2.6H753l-1.2,1.1h-3l-1.5,1h-3.1l-1.3,1h-2.9l-1.7,1.4h-2.5v0.3l2,1l2.3,0.6l3.7-1
	v3.3l-7,1.5v1.6l-2.1,0.4v0.5h0.4v2.2h-0.3v3.2h0.3v1.4h-0.3v3.2h0.3v1.5h-0.3v3.2h0.3v1.4h-0.3v3.2h0.3v1.5h-0.3v3.2h0.3v1.4h-0.3
	v3.2h0.3v1.4h-0.3v3.2h0.3v1.5h-0.3v3.2h0.3v1.4h-0.3v3.2h0.3v1.5h-0.3v3.2h0.3v1.5h-0.3v3.2h0.3v1.5h-0.3v3.2h0.3v1.4h-0.3v3.2h0.3
	v1.4h-0.3v3.2h0.3v1.5h-0.3v3.2h0.3v1.4h-0.3v3.2h0.3v1.5h-0.3v3.2h0.3v1.4h-0.3v3.2h0.3v1.5h-0.3v3.2h0.3v1.5h-0.3v3.2h0.3v1.4
	h-0.3v2.6h-15.5l-9.9,0.7v6.3h-2.4v-6h-2.2l-0.9-1h-1.2v0.5L702,458h-0.7v7.1l-0.7,0.6v0.7h-1.7v-2.2h-5.6v-1h-7.9
	c0,0,0.2,0.7,0,0.7c-0.2,0-3.2,0-3.2,0l-1.3-1h-3.7v0.9h-0.9l0.4,0.7h0.4v1.4h-1.7v-1.2l0.3-0.3v-0.4l-0.5-0.4v-0.6l-0.3-0.7
	l-1.2-4.4l-1.6-1.2v-0.4l-0.4-0.3V455l-0.3-0.4l-0.3,0.4v1.4l-0.4,0.3v0.4l-1.6,1.2l-1.2,4.4l-0.3,0.7v0.6l-0.5,0.4v0.4l0.3,0.3v6.3
	h-2v18.3h-0.4l-140.8-91.8v0c-3.3-2.6-6.8-5.2-10.6-7.9c-33.7-24.1-41.9-28.5-41.9-28.5l-1.4-4.2l-1.6,2.7l2.7,6.7
	c0,0,2.9,1.8,7.8,5.1L365,447.6v-7h1.1v-1l0.7-0.3v-1.1h-7.5V434h-1.4l-0.7-1.7h-1.4v-0.8h-18l-0.7-0.7h-33.3v-3.5h2.1v-2.8
	l-16.9-4.4v-4.1l-18.2-11.7h-1.3V419h-1.1v-8.7L248.9,398h-1v17.9h-3.7v-0.8h-3.6v-0.8h-2.6v-1h-3.7v-0.7h-21.5l-7.7-4.9v-20.2
	l-11.2-3l-1.2-2.9v-3.2l-3.1-1.3l-2.2-8.5v-2.2l-1.7-1.8h-1.3l-3.3-9v-2.9l-3-2.2h-2.4l-6.6,0.7L116,366.5v1.3h-11l-2.6,3.8l-19,1.9
	v4.5l-14.2,5.5v1.9l-23.1,7.5v2.9v47.7h-4.3v-4.3l-3.6-2.4h-3.9v1.4h-7.3l-1.6-0.8h-8.9l-3.9,3.8v1.6H6.4l-4.7,4.8v2.8H0V512h275
	l5.6-2.9v-2.2l7.7-1.5c0,0,78.2-1.9,160.7-1.9c82.4,0,126,2.9,126,2.9v3.1l2,2.4h46.7l3-3.4l27.7,1v2.4h17.2h5.5h347v-18.8
	L1022,491.4z M584.5,484.9l-15.8,10.5l-10.3-0.4l23.3-15.5C582.7,481.6,583.7,483.3,584.5,484.9z M557.4,495l-10.3-0.4l31.4-20.9
	c1.1,1.9,2,3.6,2.9,5.3L557.4,495z M546.1,494.5l-5.4-0.2v-3.4l34.5-22.9c1.1,1.8,2.1,3.6,3,5.2L546.1,494.5z M540.7,490.2v-7.3
	l31.1-20.7c1.1,1.8,2.1,3.5,3.1,5.2L540.7,490.2z M540.7,482.2v-1.9h0.6V478h-2.4l-0.8-0.8h-0.7l30.9-20.6c1.1,1.7,2.2,3.5,3.2,5.1
	L540.7,482.2z M505.9,493.8v-3.6l6.8-4.5v0.6h-0.9c0,0,0.6,5.3,0.3,7l-0.8,0.5C509.7,493.8,505.9,493.8,505.9,493.8z M504.6,488.2
	v-2H504v0.9l-1.9,2.2v1.8h-2.3v-0.6h-3.5l-1.7,1.7H491v1.2h-1.9l29.5-19.6l-0.6,4.2l-1.8,0.7v3.9l-1.3,0.8l-2.4,0.8v0.7l-7.1,4.7
	L504.6,488.2z M529.7,478h-5.7l10.2-6.8v3.2L529.7,478z M520.7,477.9v-5.6l2.1-1.4v7H520.7z M536.2,477.2h-0.4v-6.7h-0.4l29.3-19.4
	c1.1,1.7,2.2,3.4,3.3,5L536.2,477.2z M523.2,477.9v-7.2l37.6-25c1.2,1.7,2.3,3.3,3.4,5L523.2,477.9z M523.2,469.9v-5.2h-0.4v5.5
	l-2.1,1.4v-0.2l1.5-3.4v-2.2l-3.4,6.7l-0.1,0.4l-30.7,20.4h-10.9l79.8-53.1c1.2,1.6,2.4,3.3,3.5,4.9L523.2,469.9z M476.1,493.3h-0.3
	v-3h-4.7l-0.7-0.4l82.6-54.9c1.2,1.6,2.5,3.2,3.6,4.8L476.1,493.3z M469.8,489.5l-1-0.6h-1.8l-1.1,1v1.5h-3.7v-3.1l-0.9-0.4
	l87.5-58.2c1.3,1.6,2.5,3.2,3.7,4.7L469.8,489.5z M460.7,487.6l-1.2-0.6h-3.6v1.4h-5.5l-0.6-0.8l94.8-63.1c1.3,1.6,2.6,3.1,3.9,4.7
	L460.7,487.6z M449.4,487.1l-1.1-1.5h-1.4v-1.4h-1.1v-0.7h-2l96.3-64.1c1.4,1.5,2.7,3,4,4.6L449.4,487.1z M442.8,483.6h-1.5v-3.2
	h-0.9v1h-1.6c0,0,0.3-1.4,0-1.4c-0.1,0-0.5,0-1,0c0.1-0.1,0.1-0.3,0.2-0.5l97.5-64.8c1.4,1.5,2.8,3,4.2,4.4L442.8,483.6z M365,466.7
	v-2.4l1.6-1.1h7.1v2.5l-1.4,1H365z M430.4,449.5l1.1-1.1c0.5,0.6,1,1.2,1.5,1.8l-5.9,3.9c-1.1-1.3-2.4-2.5-3.7-3.6l1.7-2.4l3.6-2.4
	c0.5,0.4,0.9,0.8,1.4,1.2l-1.1,1L430.4,449.5z M379.5,466.7v-3.5h1.2c-0.2,1.1-0.3,2.3-0.4,3.5H379.5z M373.7,456.5v1.3l-5.6,3.7
	H365v-4.9H373.7z M367.3,454.8l6.4-4.2v4.2H367.3z M378.5,449.8v4.7l-0.3,0.2h-1.1v-4.9H378.5z M404.7,439.7l0.2,1.5l2-0.3l-0.3-1.5
	c0.8-0.1,1.7-0.2,2.6-0.2v1.5h0.8v0.8l-6.7,4.5l-1.3-4l0.7-0.2l-0.5-1.5C403,440.1,403.8,439.9,404.7,439.7z M426.2,445.9l-1.3,1.7
	l-3,2c-1.4-0.9-3-1.6-4.6-2.2l0.8-2.5l4.4-3l-0.7,1.3l1.8,0.9l0.7-1.3c0.7,0.4,1.5,0.8,2.2,1.3l-0.9,1.2L426.2,445.9z M426.6,446.2
	l0.2,0.2l-0.7,0.5L426.6,446.2z M438.1,476.3l-1.4-0.5l-0.2,0.7l-4-1.3l5.1-3.4l-0.3,1.7l1.5,0.2
	C438.6,474.6,438.4,475.5,438.1,476.3z M383.9,456l1.4,0.7l0.9-1.8l-1.3-0.7c0.4-0.7,0.8-1.5,1.3-2.2l1.2,0.9l0.4-0.6l2.9,2.1
	l-6.5,4.4l-1.3-0.4C383.2,457.5,383.5,456.8,383.9,456z M396.8,444.2l1.8-0.9l-0.5-1l1.6-1c0.2-0.1,0.4-0.1,0.6-0.2l0.5,1.5l0.7-0.2
	l1.4,4.1l-5.6,3.7l-3-4.2l0.6-0.4l-0.5-0.7l2-1.3L396.8,444.2z M416.6,447.7l-1.8,5.6c-1.4-0.4-2.8-0.7-4.3-0.7V450l4.2-2.8
	C415.3,447.4,416,447.5,416.6,447.7z M415.2,446.8l2.2-1.5l-0.6,1.9C416.2,447.1,415.7,447,415.2,446.8z M416.9,463.1l-3.6,2.6
	c-0.2-0.2-0.4-0.4-0.5-0.5l1.1-1.5l2.2-1.5C416.4,462.5,416.6,462.8,416.9,463.1z M429.5,468.5l-3.9,2.6c0.1-0.8,0.2-1.7,0.3-2.6
	H429.5z M417.5,468.5l-1.9,1.3l-1.5-0.5c0.1-0.2,0.1-0.5,0.1-0.7H417.5z M418.6,468.5c0,0.7-0.1,1.4-0.3,2.1l-2-0.7L418.6,468.5
	L418.6,468.5z M407.4,460.3l1.4,4.2c-0.3,0.1-0.5,0.2-0.7,0.4l-2.6-3.6C406,460.9,406.7,460.6,407.4,460.3z M410,473h-0.6v-0.8
	c0.2,0,0.4,0.1,0.6,0.1V473z M412.2,473.3v-0.6l0.6-0.4l0.8,1C412.8,473.3,412.2,473.3,412.2,473.3z M412,472.2l-0.3-0.1l0-0.1
	c0.3-0.1,0.5-0.2,0.7-0.4l0.1,0.2L412,472.2z M414.2,473.3l-1-1.3l0.9-0.6l2.7,1.9C415.9,473.3,415,473.3,414.2,473.3z M412.9,471.5
	l-0.1-0.2c0.2-0.2,0.4-0.4,0.5-0.6l0.3,0.3L412.9,471.5z M413.6,470.4c0.2-0.2,0.3-0.4,0.4-0.7l1.1,0.4l-1,0.7L413.6,470.4z
	 M407.8,460.2c0.7-0.2,1.4-0.3,2.1-0.3v4.4c-0.3,0-0.5,0.1-0.8,0.1L407.8,460.2z M405.1,461.6l2.6,3.6c-0.2,0.2-0.4,0.4-0.5,0.5
	l-3.6-2.6C404,462.5,404.5,462,405.1,461.6z M406.8,466.1c-0.1,0.2-0.3,0.4-0.4,0.7l-4.2-1.4c0.2-0.7,0.6-1.3,1-1.9L406.8,466.1z
	 M406.3,467.3c0,0.1-0.1,0.3-0.1,0.5h-4.5c0-0.6,0.2-1.3,0.3-1.9L406.3,467.3z M417.6,473.3L417.6,473.3c0.4-0.7,0.7-1.4,1-2.1
	l4.5,1.5l-1,0.6C420.8,473.3,419.2,473.3,417.6,473.3z M417.2,473l-2.6-1.9l1.2-0.8l2.4,0.8C417.9,471.8,417.6,472.4,417.2,473z
	 M412.2,464.8l0.5-0.4l-0.3,0.5C412.3,464.9,412.2,464.8,412.2,464.8z M410,459.3c-0.7,0-1.4,0.1-2.1,0.3l2.1-1.4V459.3z
	 M407.5,459.2l-1.7-5.4c1.3-0.4,2.7-0.6,4.2-0.7v4.4L407.5,459.2z M407.1,459.5l-2,1.3l-3.6-4.9l1.1-0.8c0.8-0.5,1.7-0.9,2.6-1.2
	L407.1,459.5z M401.1,456.2L401.1,456.2l3.6,4.8l-2.1,1.4l-4.5-3.3C398.9,458.1,400,457.1,401.1,456.2z M403.2,462.8
	C403.2,462.8,403.1,462.8,403.2,462.8L403.2,462.8L403.2,462.8z M402.8,463.2c-0.4,0.7-0.8,1.3-1,2.1l-1.6-0.5l2.5-1.6L402.8,463.2z
	 M401.7,465.7c-0.2,0.6-0.3,1.3-0.3,2h-3.4v-1h-0.6l2.4-1.6L401.7,465.7z M423.2,473.3l0.6-0.4l0.7,0.2c0,0.1,0,0.1-0.1,0.2
	C424.2,473.3,423.8,473.3,423.2,473.3z M424.7,472.7l-0.3-0.1l0.4-0.3C424.7,472.5,424.7,472.6,424.7,472.7z M425.1,471.2h-0.3
	c0,0,0,0.1,0.1,0.4l-1.2,0.8l-4.9-1.6c0.2-0.7,0.3-1.5,0.4-2.3h6.2C425.3,469.4,425.2,470.3,425.1,471.2z M419.3,468l5.5-3.7
	c0.3,1.2,0.5,2.4,0.5,3.7H419.3z M419.1,467.4c0-0.6-0.2-1.1-0.3-1.7l5.6-1.8L419.1,467.4z M418.6,467.7l-0.4,0.3h-4
	c0-0.3-0.1-0.5-0.1-0.7l4.2-1.4C418.5,466.5,418.6,467.1,418.6,467.7z M413.9,466.8c-0.1-0.2-0.2-0.4-0.4-0.7l3.6-2.6
	c0.4,0.6,0.7,1.2,1,1.9L413.9,466.8z M414.9,462.2l0.5-0.7c0.1,0.1,0.1,0.1,0.2,0.2L414.9,462.2z M413.7,463l-2,1.3l1.3-4
	c0.7,0.3,1.3,0.6,1.9,1L413.7,463z M411.2,464.4c-0.2-0.1-0.5-0.1-0.7-0.1v-4.4c0.7,0,1.5,0.1,2.1,0.3L411.2,464.4z M410.5,459.3
	v-1.4l3.6-2.4l-1.4,4.2C412,459.5,411.2,459.3,410.5,459.3z M410.5,457.2v-4.1c1.5,0,2.9,0.2,4.2,0.7l-0.3,0.8L410.5,457.2z
	 M410,452.6c-1.5,0.1-3,0.3-4.3,0.7l0-0.1l4.4-2.9V452.6z M405.4,452.6l-1.6-4.9c2-0.6,4-1,6.2-1v2.8L405.4,452.6z M405,452.9
	l-3.8,2.5l-3.4-4.7c1.7-1.2,3.6-2.1,5.6-2.8L405,452.9z M397.4,451l3.4,4.7l-3.9,2.6l-3.9-2.8C394.2,453.7,395.7,452.2,397.4,451z
	 M392.6,455.1l-0.9-0.7l3.7-2.4C394.3,453,393.4,454,392.6,455.1z M398.5,457.9c-0.3,0.3-0.6,0.7-0.8,1l-0.3-0.2L398.5,457.9z
	 M397.4,459.3c-0.8,1.2-1.5,2.5-2,3.9l-3.3-1l4.8-3.2L397.4,459.3z M397.8,459.6l4.4,3.2l-2.7,1.8l-3.6-1.2
	C396.4,462,397,460.7,397.8,459.6z M399,464.9l-2.7,1.8h-1.1c0.1-1,0.3-2,0.6-2.9L399,464.9z M425.4,473.4l3.5,1.1
	c-1.6,0-3.5,0-3.5,0V473.4z M430.4,474.6l-5-1.6v-1l5.2-3.4h1.2c0,2.1-0.4,4.1-0.9,6.1C430.7,474.6,430.5,474.6,430.4,474.6z
	 M431.3,468l0.4-0.3c0,0.1,0,0.2,0,0.3H431.3z M430.2,468h-4.4c0-1.4-0.2-2.7-0.6-3.9l1.3-0.8l4.3-1.4c0.5,1.6,0.8,3.4,0.9,5.2
	L430.2,468z M428,462.2l2.4-1.6c0.1,0.2,0.2,0.5,0.3,0.7L428,462.2z M425.8,462.9l-0.9,0.3c-0.5-1.4-1.1-2.7-2-3.9l4.8-3.5
	c0.9,1.3,1.7,2.7,2.4,4.3L425.8,462.9z M424.5,463.3l-5.9,1.9c-0.3-0.7-0.6-1.4-1-2.1l5-3.6C423.4,460.7,424.1,462,424.5,463.3z
	 M417.3,462.8c-0.3-0.3-0.5-0.6-0.8-0.9l5.2-3.5c0.2,0.2,0.4,0.5,0.6,0.7L417.3,462.8z M416,461.5c-0.1-0.1-0.2-0.2-0.4-0.3l3.7-5
	c0.7,0.5,1.4,1.1,2,1.8L416,461.5z M415.2,460.9c-0.6-0.4-1.3-0.8-2-1l1.5-4.7l1.2-0.8c1,0.4,2,1,2.9,1.6L415.2,460.9z M415,454.2
	l0.1-0.2c0.1,0,0.1,0,0.2,0.1L415,454.2z M415.2,453.5l1.8-5.6c1.5,0.5,3,1.2,4.3,2l-5.7,3.8C415.6,453.6,415.4,453.6,415.2,453.5z
	 M410.5,449.3v-2.5c1.1,0,2.2,0.1,3.3,0.3L410.5,449.3z M410,446.3c-2.2,0-4.3,0.4-6.3,1l-0.2-0.6l6.5-4.3V446.3z M403.2,447.4
	c-0.7,0.3-1.5,0.5-2.1,0.9l2-1.3L403.2,447.4z M390,449.5l1.4-1.4l-0.9-0.9l2.1-1.4l0.5,0.7l0.6-0.4l3,4.1l-5.7,3.8l-3.1-2.2
	l0.4-0.6l-1.2-0.9c0.5-0.7,1.1-1.3,1.7-1.9L390,449.5z M384.1,459.5l7.1-4.7l1,0.7c-1.2,1.7-2.2,3.6-2.9,5.7L384.1,459.5
	L384.1,459.5z M392.7,455.8l3.8,2.7l-5,3.3l-1.6-0.5C390.5,459.4,391.5,457.5,392.7,455.8z M390.9,462.2l-1.6,1.1
	c0.1-0.5,0.3-1,0.4-1.5L390.9,462.2z M391.6,462.5l3.7,1.2c-0.3,1-0.5,2-0.6,3h-5.9c0.1-0.8,0.2-1.7,0.3-2.5L391.6,462.5z
	 M388.3,466.7h-3l3.2-2.1C388.4,465.3,388.3,466,388.3,466.7z M430.1,476v-0.2h0.2c0,0.1,0,0.1,0,0.1L430.1,476z M439,471.8
	l-1.2-0.2l1.3-0.9C439.1,471.1,439.1,471.5,439,471.8z M431.7,475c0-0.2,0-0.4-0.3-0.4c0,0-0.1,0-0.1,0c0.6-1.9,0.9-4,0.9-6.1h5.5
	v0.7h1.5c0,0.2,0,0.5,0,0.7L431.7,475z M437.7,467.3v0.7h-5.5c0-0.2,0-0.4,0-0.6l5.2-3.5l0.2,1l1.5-0.2c0.1,0.8,0.2,1.7,0.2,2.5
	H437.7z M437.9,462.8l-0.7,0.1l0,0.3l-5.1,3.4c-0.1-1.8-0.4-3.4-0.9-5l5.3-1.7l0.2,0.7l1.4-0.5c0.2,0.7,0.4,1.4,0.6,2.1L437.9,462.8
	z M436.3,459.5l-5.2,1.7c-0.1-0.3-0.2-0.6-0.3-0.8l6-4c0.3,0.6,0.6,1.3,0.8,1.9l-1.4,0.5L436.3,459.5z M435.2,456.7l0.4-0.2l-5,3.3
	c-0.6-1.5-1.4-3-2.4-4.3l4.5-3.3l0.4,0.6l1.2-0.9c0.5,0.7,0.9,1.4,1.3,2.2l-1.4,0.7L435.2,456.7z M432.1,451.5l0.3,0.4l-4.5,3.2
	c-0.1-0.2-0.3-0.4-0.4-0.5L432.1,451.5z M427.5,455.4l-4.8,3.5c-0.2-0.3-0.4-0.5-0.6-0.7l4.9-3.3
	C427.2,455.1,427.3,455.2,427.5,455.4z M421.7,457.7c-0.7-0.7-1.4-1.3-2.1-1.9l3.5-4.8c1.3,1,2.5,2.1,3.6,3.4L421.7,457.7z
	 M419.2,455.5c-0.9-0.6-1.8-1.1-2.7-1.6l5.5-3.7c0.2,0.1,0.4,0.3,0.7,0.4L419.2,455.5z M422.4,450l1.5-1l-1,1.3
	C422.8,450.2,422.6,450.1,422.4,450z M418.4,444l0.6-1.8l0.7,0.2l0.5-1.5c0.6,0.2,1.2,0.4,1.7,0.7L418.4,444z M418.5,442l-0.8,2.4
	l-3.4,2.2c-1.3-0.2-2.6-0.4-3.9-0.4V442l3.2-2.2l-0.2,1.1l2,0.3l0.2-1.5c0.8,0.2,1.7,0.4,2.5,0.6l-0.5,1.5L418.5,442z M410.5,441.3
	v-0.5h0.7v-1.5c0.7,0,1.4,0.1,2.1,0.1L410.5,441.3z M394,444.2L394,444.2c0.5-0.4,1.1-0.8,1.7-1.1L394,444.2z M381.1,460.8l-1,0.7
	h-0.7v-4.9h1.2v-1.8h-1.2v-0.1l6.9-4.6C384,453.2,382.2,456.8,381.1,460.8z M380.7,462.9v-1.1l0.3-0.2
	C380.8,462.1,380.8,462.5,380.7,462.9z M378.5,456.5v4.9h-1.4v-4.9H378.5z M377.5,463.2l-0.4,0.3v-0.3H377.5z M374.7,456.5h0.9
	l-0.9,0.6V456.5z M373.7,458.5v3h-4.5L373.7,458.5z M374.7,457.9l1.4-1v4.6h-1.4V457.9z M376.1,463.2v0.9l-1.4,1v-1.9H376.1z
	 M376.1,464.8v1.9h-1.4v-0.9L376.1,464.8z M377.1,464.2l1.4-1v3.4h-1.4V464.2z M381.4,464.7l1.5,0.2l0.3-2l-1.5-0.2
	c0.1-0.6,0.3-1.3,0.4-1.9l0.6-0.4l1,0.3l0.2-0.7l5.2,1.7c-0.2,0.7-0.4,1.4-0.5,2.1l-4.5,3h-3C381.3,466,381.3,465.4,381.4,464.7z
	 M436.2,479.9c-0.1,0-0.2,0-0.2,0l-0.2,0.2l-0.6-0.3l-0.3,0.6h-0.7v-1.2h-4v-1.7c0.2-0.4,0.3-0.8,0.5-1.2l1.3-0.8l4.4,1.4l-0.2,0.7
	l1.4,0.5c-0.1,0.4-0.3,0.8-0.5,1.2L436.2,479.9z M440.1,470.1l90.7-60.3c1.5,1.5,2.9,2.9,4.3,4.4l-96.7,64.3
	C439.4,475.8,440,473,440.1,470.1z M440.2,469.3c0-0.3,0-0.7,0-1.1c0-2-0.2-3.9-0.6-5.8l86.2-57.3c1.5,1.4,3,2.8,4.5,4.2
	L440.2,469.3z M439.5,461.8c-0.5-2.1-1.1-4-2-5.9l83.1-55.3c1.6,1.3,3.2,2.7,4.7,4.1L439.5,461.8z M437.3,455.3
	c-0.9-1.8-1.9-3.6-3.1-5.1l81-53.9c1.7,1.3,3.4,2.6,5,3.9L437.3,455.3z M427.9,445.6l0.2-0.2c0,0,0.1,0.1,0.1,0.1L427.9,445.6z
	 M423.4,441.4l80.2-53.3c1.7,1.2,3.5,2.4,5.3,3.7L429,444.9C427.3,443.5,425.4,442.3,423.4,441.4z M422.8,441.1
	c-2.3-1.1-4.8-1.9-7.4-2.3l82.4-54.8c1.7,1.2,3.5,2.4,5.3,3.7L422.8,441.1z M414.5,438.6c-1.4-0.2-2.8-0.3-4.3-0.3
	c-2.6,0-5.1,0.3-7.6,1l89.2-59.3c1.7,1.2,3.5,2.4,5.4,3.7L414.5,438.6z M400.7,439.8c-5,1.7-9.5,4.7-13,8.6l-8.2,5.5v-4.1h1.2v-1.8
	h-3.3l108.6-72.2c1.7,1.1,3.5,2.4,5.4,3.6L400.7,439.8z M376.1,449.8v4.9h-1.4v-4.9l0.1,0H376.1z M366.2,454.8H365v-4.9h8.7
	L366.2,454.8z M365,463.2h0.6l-0.6,0.4V463.2z M373.7,466.5v0.2h-0.4L373.7,466.5z M514.7,395.9l-80.9,53.8
	c-1.3-1.6-2.7-3.1-4.3-4.4l80-53.2c0.8,0.6,1.7,1.2,2.5,1.8C512.9,394.6,513.8,395.2,514.7,395.9z M485.4,375.5l-109.1,72.6h-10.9
	l114.6-76.2C481.6,373,483.4,374.2,485.4,375.5z M586.1,494.4c-3,0.7-9.9,1.4-9.9,1.4l-6.5-0.3l15.1-10c2.3,4.5,3.5,7.2,3.5,7.2
	S589.1,493.7,586.1,494.4z M596.3,477.8c-16.3-14.3-22.6-36.5-55.9-66.7l119.4,78.4h-6.5v-2.8h-4.1v0.9h-0.5v4.7h-2.5v3.6h-1.2v-1.8
	h-3.9v-2.5h-1.5v2.5h-1v-1.6h0.2v-4.9h-0.2v-0.3h-2.8v8.4C628.6,495,612.3,491.9,596.3,477.8z M888.9,433.7h-0.7v-13.9h0.7V433.7z
	 M927.7,433.7H927v-13.9h0.7V433.7z"/>
</svg>
