<?xml version="1.0" encoding="utf-8"?>
<!-- Generator: Adobe Illustrator 19.2.1, SVG Export Plug-In . SVG Version: 6.00 Build 0)  -->
<svg version="1.1" id="Ebene_1" xmlns="http://www.w3.org/2000/svg" xmlns:xlink="http://www.w3.org/1999/xlink" x="0px" y="0px"
	 viewBox="0 0 1024 512" enable-background="new 0 0 1024 512" xml:space="preserve">
<path fill="#1D1D1D" d="M1011.6,475.9v-40.8l-12.4-7.1l-1.9-18.3V255.8h-25.9v-42.5H969v35.5h-3.4v5.9h-12.5v-11.7h-1.6l-2.6,5.7
	h-5.6v1.3h-10.1v2.2h-3.9v-4.7h-8.2v-6.6h-1.5l-2.5,5.3h-2.5v7.3h-13.3v-3.8h-2.6v3.8h-13.3v21.4h-1.9v3.4h-20.4c0,0,0,3.1,0,3.5
	c0,0.4,5.1,0,5.1,0v4.3h-5.3v96.6h-0.7c0,0-0.1-2.6-2.3-4.9c-1.5-1.6-3.3-0.9-4.3-3.3c-0.8-2,1.9-2.2,2.3-4.7
	c0.2-1.5-4.5-4.2-5.3-10.9c-0.3-2.6-1.3-11-1.3-11l-0.7-1.2l0.7-1.9l-1.1-1.8v-11.7h-0.7v11.7l-1.1,1.7l1.1,2.1l-1,1.2
	c0,0,0,3.6-0.6,10.8c-0.6,7.2-3.8,9-4.7,10.8c-0.9,1.9,1.7,3.1,1.7,4.8c-0.1,1.7-2,2.7-3.8,3.9c-1.7,1.2-1.5,5.1-1.5,5.1h-3.4
	l-2.9,2.1v1.2l2.9,2.1v3.8h-22.3v-2.1H811v-11.5h1.3v-1.6l-3-4.4v-1.3l-1.1-2.9V363l-1.3-1.4V246.2H796v-7.5h-0.5v2.6h-1.5v-6.1
	h-0.8v-1.4h-3.5v6.3h-2.5v-1.3h-8.2v1.1h-2.2V238h-3.8v0.9h-3.1l-2.1,1.3v4.4h-1.4v-17.2l-41.6,1.3v18.3h-3.5v4h0.9v12h-0.7v101.2
	l-0.4,0.4l-0.3,7.1c0,0-1.1,1.3-2.2,2.2c-1.1,1-0.8,3.7-0.8,3.7h-1.4v1.5l1.6,0.8v6.4l-1.5,1v1.1h0.8v1.8c0,0-1.7,0.9-3,1.9
	c-1.4,1.1-1,6.3-1,6.3h-1.2v2.5l-1.3,2.6h-2v1.2h3.3v1.9l-12.1,19.7H697v2.4h-13v-5.4h-1.6v11.8h-4.8l-2.2-3h-2v-13.4h1.2v-1.9h-4.1
	v-1.4h-2v1.3h-1.3v-37.6h-0.8v-1.3l0.4-1.5h1.7v-1.1h-13.9l-1.5-1.8v-4h-1.9v0.7h-17.4l-3.1,2v2.8H617v1h1.1v1.6h-0.7v11.9l-9.7-1.9
	h-5.9v-1.9h-6.9v2H591v-21.5c0,0-12.5,0-13,0c-0.6,0,0-10.4,0-10.4h-3.8v0.7h-7.5v-1h-4.8v1.3h-1.6v2.1h-26.8l-1.7-2.5v-3.2h-4v2.8
	c0,0-14.6,0-15.4,0c-0.7,0,0,1.3,0,1.3h-1.9v-2.2h-2.2v2.6l-1.2,1h-2.3v-1h-1.6v1.5h-4v5.4h-6v43.1H492v8.8l-6.4,2v1.9H484v-68.1
	h1.5v-2.7h-0.7v-7.6h0.7v-4.7l-0.7-0.6v-35.2h1.1l0.6-2.2h0.8v-1.4h0.8v-0.7h1.5v-1.5h-2.1l-0.1-1.2h-2.2l-1.1-1.9v-4h1.4v-4
	l-1.4-1.1v-13.5l-1-1.5v1.7v9.5h-3.5v-5.6h-1.9v5.7h-3.1v-11.7l-0.9,0.9v11l-1.6,0.4v2.4l-3,1.6v2.4h-1.9v-16h-1v16H463l-0.7-1.8
	v-3.2h-2.3v3.2h-2.3v-2.9h-3.4l-2.1-2.2h-2v-1.1l-3.4-1.8v-1.8h-1v-6h0.7v-21.7h0.7v-3.5l-1.4-1.5v-17.4l1.4-1.1v-6.2h1.5v-1.7
	l-1.1-0.8v-2.3h-0.9V211h-0.9v-10.3h-0.7v7.6l-1,1.8h-0.8v-2.2h-1.8v3.4h-1.9v-6H438l-0.6,2.6v4.5h-2.1v-27.3h1.3v-2.7l-0.6-0.3
	v-10.1l3.6-2.9v-0.8h0.5V166l-0.8-2.1h-0.6v0.8l-1.8,0.3l-0.1,0.7h-2.5c0,0-3.8-2.7-5.6-5.1c-1.8-2.4-3.3-6.2-3.3-6.2v-9l-2.2-1.4
	v-1.6H421v-2.8c0,0,4-1.3,4-4.7c0-3.5-4.8-4.6-4.8-4.6v-3.3l2.7-0.5v-0.6h1.9v-1.1h-3.3l-1.2-1.6l-0.2-12.2h2.9v-2.4H420l-0.1-4.9
	h2.8v-2.3h-2.8l-0.1-5h2.7v-2.1h-2.7l-0.1-5.2h2.6v-1.9h-2.6l-0.1-5.4h2.5V80h-2.5l-0.1-5.6h2.4v-1.6h-2.4l-0.1-5.7h2.3v-1.4h-2.3
	l-0.1-5.9h2.2v-1.2h-2.2l-0.3-20.1l-0.9-1.2l-0.9,1.2L417,58.6h-2.2v1.2h2.2l-0.1,5.9h-2.3v1.4h2.3l-0.1,5.7h-2.4v1.6h2.4l-0.1,5.6
	h-2.5v1.8h2.5l-0.1,5.4H414v1.9h2.6l-0.1,5.2h-2.7v2.1h2.7l-0.1,5h-2.8v2.3h2.8l-0.1,4.9h-2.9v2.4h2.9l-0.2,12.2l-1.2,1.6h-3.3v1.1
	h1.9v0.6l2.7,0.5v3.3c0,0-4.8,1.1-4.8,4.6c0,3.4,4,4.7,4,4.7v2.8h-2.1v1.6l-2.2,1.4v9c0,0-1.6,3.7-3.3,6.2c-1.8,2.4-5.6,5.1-5.6,5.1
	h-2.5l-0.1-0.7l-1.8-0.3v-0.8h-0.7l-0.8,2.1v2.4h0.5v0.8l3.6,2.9v10.1l-0.7,0.3v2.7h1.3v27.3H399V208l-0.6-2.6h-1.8v6h-1.9v-3.4H393
	v2.2h-0.8l-1-1.8v-7.6h-0.7V211h-0.9v2.2h-0.9v2.3l-1.1,0.8v1.7h1.5v6.2l1.4,1.1v17.4l-1.4,1.5v3.5h0.7v21.7h0.7v6h-1v1.8l-3.4,1.8
	v1.1h-2l-2.1,2.2h-3.4v2.9h-2.3v-3.2h-2.2v3.2l-0.7,1.8h-3.1v-16h-1v16h-2v-2.4l-3-1.6v-2.4l-1.6-0.4v-11l-0.9-0.9v11.7h-3.1v-5.7
	h-1.9v5.6h-3.5v-9.5v-1.7l-1,1.5v13.5l-1.4,1.1v4h1.4v4l-1.1,1.9h-2.1l-0.1,1.2h-2.2v1.5h1.5v0.7h0.8v1.4h0.8l0.6,2.2h1.1v35.2
	l-0.7,0.6v4.7h0.7v7.6h-0.7v2.7h1.5v46.4h-2v4.6h-3.1v-4.6h-2.6v4.6h-3.1v-4.6h-2.6v4.6h-3.1v-4.6h-2.6v4.6h-3.1v-4.6h-2.6v4.6h-2
	v-7.9h2.8v-10.2h-2.8v-2.8H304c-5.6-8.8-13.7-9.7-16-9.8l-0.1-0.6l-0.3-0.1l-0.2-1l-0.2,1l-0.3,0.1l-0.1,0.6c-2.3,0.1-10.3,1-16,9.8
	H249v2.8h-2.8v10.2h2.8v7.9h-2.1v-4.6h-2.5v4.6h-3.1v-4.6h-2.6v4.6h-3.1v-4.6h-2.6v4.6H230v-4.6h-1.3l-1.5-82.6l1.1-1.7v-5.8h0.6
	v-1.8l3.3-3.6l-0.1-2.3l-3.4-0.2l-0.1-1.7l1.3-0.4l0.4-3l2.7-1.3V292h6.4v-2l3.7-3.1l-13.1-9.4l-2.3,0.3l-0.1-6.7h2.9v-1.1h0.8v-0.6
	l-4.5-3.4l-0.1-2.5l1.4-3.1l0.6-1.9l-1.1-5l2.4-1.1l1.2-2.6l-6.2-8.4v-2l0.5-1l-0.7-1.5v-12.6h-0.3l-0.4,12.9l-0.4,0.4l-0.2,1.1
	l0.4,0.6l0.2,2.1l-2.8-1l-0.6-1.3l-0.2-1.6l-1.5-1.1l-0.6-2.8l-0.1,3.1l-1.2,1.2l0.7,1.8l0.5,2.7l-1,1.6l0.3,1.3l-1.3,0.3l-0.3,1.9
	l-0.8,1.1l0.4,2.1l-0.7,1.5l-1.2,0.2c0,0-1.3-0.1-2.9-1.4c-1.6-1.3-2.2-4.3-2.2-4.3s0.1,2.3,0.3,3.1c0.1,0.8,2.4,2.9,2.8,3.1
	c0.4,0.2,2,1.2,2,1.2l1.4-0.1l1.6-1.8l1.4,2.2l-1.1,4.6l2.6,3.7v1.5l-2.8,1.1l-0.1,1l-4.1,0.6l0.7,0.8v1.1l3.2,2.3v7.9l-16.2,2.8
	l3.8,3.6l0.3,2.2l9.9,6.3l0.1,3l1.3,0.9v1.9l-5.3,0.2l2,4.6l2.3,0.8v3.6h1.3v6.2l0.9,0.7v82.9h-0.4v4.6h-3.1v-4.6h-2.6v4.6h-3.1
	v-4.6h-2.6v4.6h-3.1v-4.6h-2.6v4.6h-9.7v7.9h-4.9v5.4h4.9v3.3h-2.8v11.3h2.8v1.3h-7.3v-13.7H176l-4.6,10.8l0.2,1.8h-6.5v-1.6h-1.7
	v-4.2l0.8-0.7l0.1-1.9h-1.1v-18.4l1.9-3.5l-3.4-3.3l-0.7-7.9h-2.5l-0.3-6.9l1.9-1.8l-0.1-1.5h-0.8l-0.3-6.1h-0.8l-0.2,6.3l-2-1v-5
	l-2.2-3.4l-0.4-3.3l0.5-0.8l-0.1-1.8l-1.2-0.5l-0.2-8.8l-0.6,0.1l-0.1,8.8l-0.9,0.7v1.9l0.7,0.6v2.9l-1.9,3.9v4.6l-2.4,0.8v-6h-0.8
	l-0.2,5.8h-0.7v1.8l2.4,2.4v6.8h-3.1v7.4l-3.7,5l3.1,2.8V423h-0.9v2.2l0.6,0.6v4.4h-2v1.3h-2.2V418H138v-1.7h-3.3v2.1h-1.6v12h-5.6
	v-42.7h-1.3v-8.5h-4.5v8.5h-4.1v-0.9h-13.6v0.9h-0.8v36.6h-1.7v2.1h-5.8v-29.1h-5.3l-0.8,5.6l-39.1,0.3l-1.5-6.3h-3.8v11l-3.4,2.4
	l0.7,2.8v11.1l-3.8,0.4l-26.5,9.7l1.4,3.4l-0.5,6.3l-13,5.2V512h1024v-33.1L1011.6,475.9z"/>
</svg>
