<?xml version="1.0" encoding="utf-8"?>
<!-- Generator: Adobe Illustrator 19.2.1, SVG Export Plug-In . SVG Version: 6.00 Build 0)  -->
<svg version="1.1" id="Ebene_1" xmlns="http://www.w3.org/2000/svg" xmlns:xlink="http://www.w3.org/1999/xlink" x="0px" y="0px"
	 viewBox="0 0 1024 512" enable-background="new 0 0 1024 512" xml:space="preserve">
<path fill="#1D1D1D" d="M1024,418.9h-6.7v0.6h-1.8v-0.6h-3.9v0.6h-1.8v-0.6h-3.9v0.6h-1.8v-0.6h-3.9v0.6h-1.8v-0.6h-3.9v0.6h-1.8
	v-0.6h-3.9v0.6H987v-0.6h-3.9v0.6h-1.8v-0.6h-3.9v0.6h-1.8v-0.6h-3.9v0.6h-1.8v-0.6H966v0.6h-2.8v0.9h-1.4v-2l1.4-0.8v-5.4l2.6-2.7
	l1.7-0.1l0.8-1.1l-1.8-1.5l-3.3,3.1l-1.5-2.2v-2.1h1.3v-1.6h-1.9l-0.8-0.8v-4.1h0.8v-1.3c0,0-4.9,0-5.1,0c-0.2,0,0,1.2,0,1.2h-3v0.9
	h-14.9V399h-2.6v-0.6h-4.7v0.6h-3.1l-0.2-1l-1.8-0.3l1.3-3.8l-0.5-1.6l-1.6-1.2l0.4-0.4l2.2,0.4l1-0.6l1.6-0.5l0.3-0.9l-1.9-1.1
	l-1-1.8l-1.3-0.5l-1.2,1.5l-1-0.8l0.8-2.3l-1.6-0.6l-2.1,3l-1.9,0.2l0.1-2.4l-1.4-0.7l0.7-2.8l-1.5-1.1l1.1-0.5l-0.3-1.7l1-1.1
	l-0.4-0.6l-3,1.6l-0.1-0.8l-0.6-0.3l-0.9,1.3l-0.4-2.7l-1.3-1.3v-0.6l-0.3-0.2l-0.3,0.2v0.6l-1.3,1.3l-0.4,2.7l-0.9-1.3l-0.6,0.3
	l-0.2,0.8l-3-1.6l-0.4,0.6l1,1.1l-0.3,1.7l1.1,0.5l-1.5,1.1l0.7,2.8l-1.4,0.7l0.1,2.4l-1.8-0.2l-2.1-3l-1.6,0.6l0.9,2.3l-1,0.8
	l-1.2-1.5l-1.3,0.5l-1,1.8l-1.9,1.1l0.3,0.9l1.6,0.5l1,0.6l2.2-0.4l0.3,0.4l-1.6,1.2l-0.5,1.6l1.4,3.8l-1.9,0.3l-0.2,1h-3.1v-0.6
	h-4.7v0.6h-2.6v0.9h-14.9V399h-3c0,0,0.2-1.2,0-1.2c-0.2,0-5.1,0-5.1,0v1.3h0.7v4.1l-0.7,0.8h-1.9v1.6h1.3v2.1l-1.5,2.2l-3.3-3.1
	l-1.8,1.5l0.8,1.1l1.7,0.1l2.6,2.7v5.4l1.4,0.8v2h-1.2v-1.4h-3.9v0.6h-1.8v-0.6H851v0.6h-1.8v-0.6h-3.9v0.6h-1.8v-0.6h-3.2l1.8-1.8
	l0.2-2.6l-0.7-0.8v-1.9h2.8l0.9-0.7V410h-7.2v-2.5h-3.3l-4.9-223.1l-5.5-14.7l0.6-3.2l2.4-2.3l-0.8-1.9l-1.8-0.7l-2.2-2.8v-3
	l0.5-1.1l-0.1-2.6l-1.3-1.2v-6.1h4.8V143h-4.8V138h-1h-1v5.1h-4.8v1.7h4.8v6.1l-1.3,1.2l-0.2,2.6l0.5,1.1v3l-2.2,2.8l-1.8,0.7
	l-0.8,1.9l2.4,2.3l0.6,3.2l-5.5,14.7l-5,223.1h-2.1v-2.6h1.6v-2.2h-1.6v-2.1h-2.5l-1.6-1.5h-5.4v2h-11.8l-1.8-1.7h-16.2v-6l-4.7-5.9
	h-11.1v-2.4h-8.9v2.5h-2.3v2.4h-8.8l-3.6,6.8h-5.6v-1.1h-1.2v1.2l-10.6,1.5h-14.6l-2.4-1.5h-3.5v-3.3h1v-2.5l-2.9-1V387h-1.9v3
	l-14.7-5.7v-1.8h-0.8v-3.1h-3V375l0.8-2v-2.5l-1.8-2.3v-1.2h-2.3l-0.4,1.9l-1.2,1.4v1.8l0.9,1.5l-0.2,1.6l-1.2-2.5h-2.4l-1.3,1
	l-2.5-0.5l-4.7-7.8v-1.1l-1.9-1.8v-0.8l-2.3-0.7l-1.7,0.6v0.8l-1.9,1.6v1.3l-5.6,8.1v-5.5h0.4v-2.6h-3.2v-3.5h0.9v-2.5h1.1v-2.5
	l-1-1v-1.9h0.5V353l-0.8-0.8h-0.7c0,0,0.5-4.7-3.2-8.7c-3.7-4.1-6.1-4.7-6.1-4.7v-0.8h-0.6v-2.7h-0.7v-3h0.5v-0.9l-0.5-0.7
	c0,0,0.1-1.6-1-2.8s-2-2.4-2-2.4v-0.6l-0.4-0.4v-0.6l0-0.5l0.3-1.9h0.8v-0.7h-0.8l-0.3-3h-0.5h-0.5l-0.3,3h-0.8v0.7h0.8l0.3,1.9
	l0,0.5v0.6l-0.4,0.4v0.6c0,0-0.9,1.2-2,2.4c-1.1,1.2-1,2.8-1,2.8l-0.5,0.7v0.9h0.5v3h-0.7v2.7H613v0.8c0,0-2.4,0.6-6.1,4.7
	c-3.7,4.1-3.2,8.7-3.2,8.7h-0.7l-0.8,0.8v0.8h0.5v1.9l-1,1v2.5h1.1v2.5h1v1.6h-3.3v2.1h-1v-20.6h0.7v-1.6h-1v-1.1v-1.2h1.3v-1.3h0.5
	v-1l-1.2-1.3h-1.1v0.5h-4.5V337h-1.6v-6.9l1.9-1.9v-0.9h-1.4c0,0-2.2-24.1-14.5-36.2c-12.3-12.1-19.5-15.6-19.5-15.6V272h-3.6v-9.7
	l0.7-2.1v-0.6l-1.1-0.5l-2-3.4h0.3v-7.1h-2.2v1.7c0,0-3-3.6-4-6.3c-1-2.8-1.3-3.9-1.3-3.9v-1.4H545v-2c0,0,1.3-0.7,1.3-2.4
	c0-1.7-1.9-3-1.9-3v-4.5h1.8v-0.7h-1.8v-2.4H544h-0.5v2.4h-1.8v0.7h1.8v4.5c0,0-1.9,1.3-1.9,3c0,1.7,1.3,2.4,1.3,2.4v2H542v1.4
	c0,0-0.3,1.2-1.3,3.9c-1,2.8-4,6.3-4,6.3v-1.7h-2.2v7.1h0.3l-2,3.4l-1.1,0.5v0.6l0.7,2.1v9.7h-3.6v3.4c0,0-7.2,3.5-19.5,15.6
	c-12.3,12.1-14.5,36.2-14.5,36.2h-1.4v0.9l1.9,1.9v6.9h-1.6v0.8h-4.5v-0.5h-1.1l-1.2,1.3v1h0.5v1.3h1.3v1.2v1.1h-0.9v1.6h0.6v20.6
	h-0.9v-2.1h-3.3v-1.6h1v-2.5h1.1v-2.5l-1-1v-1.9h0.5V353l-0.8-0.8h-0.7c0,0,0.5-4.7-3.2-8.7c-3.7-4.1-6-4.7-6-4.7v-0.8h-0.7v-2.7
	h-0.7v-3h0.5v-0.9l-0.5-0.7c0,0,0.1-1.6-1-2.8c-1.1-1.2-2-2.4-2-2.4v-0.6l-0.5-0.4v-0.6l0-0.5l0.3-1.9h0.8v-0.7h-0.8l-0.3-3h-0.5
	h-0.5l-0.3,3h-0.8v0.7h0.8l0.3,1.9l0,0.5v0.6l-0.4,0.4v0.6c0,0-0.9,1.2-2,2.4c-1.1,1.2-1,2.8-1,2.8l-0.5,0.7v0.9h0.5v3H465v2.7h-0.6
	v0.8c0,0-2.4,0.6-6.1,4.7c-3.7,4.1-3.2,8.7-3.2,8.7h-0.7l-0.8,0.8v0.8h0.5v1.9l-1,1v2.5h1.1v2.5h1v3.5h-3.2v2.6h0.4v5.5l-5.6-8.1
	v-1.3l-1.9-1.6v-0.8l-1.7-0.6l-2.3,0.7v0.8l-1.9,1.8v1.1l-4.7,7.8l-2.5,0.5l-1.3-1H428l-1.2,2.5l-0.2-1.6l0.9-1.5v-1.8l-1.2-1.4
	l-0.4-1.9h-2.3v1.2l-1.8,2.3v2.5l0.8,2v4.4h-3v3.1h-0.8v1.8l-14.7,5.7v-3h-1.8v3.2l-1.3,0.5c-3.2-1.9-6.9-3.7-11.1-5.5
	c-21.9-9.2-52-14.4-52-14.4v-0.7c0,0-14.2-2.6-24.1-3.5c-9.9-0.9-20.7-0.4-20.7-0.4v6.1l-1.5,2.6h-7.1v-8.1h-4.1v3.3h-12.1v5.1
	h-17.7v-2.8h-4.6l-6.9-11.5h-21.8l-7.3-17.1l-4-3.7v-2.1l1.5-1.5v-18.2l-5.5-4.8l-9.6,1.5l-20.3-28.5l-6.5-3.3c0,0-35.2,12-59,42.7
	c-13.8,17.8-14.1,34.4-14.1,34.4l2.6,1.8V388l-3.3,10.6v3.7l2,7.2v11.4l-4,10.4l2.3,8.2v18.1l-0.7,2v4.2l-1.7,1.3v5.5l2.7,3v21.6
	v3.8v1.1h-1.3l-2-2.4v-7.4l-0.7-0.7v-34.2l0.5-0.5v-3.3l0.9-1.4v-0.7h0.7l0.3-1.1v-0.5h-3.3v-2.3h0.3v-1.1l-0.9-0.7h-0.7v-8.2
	l0.9-1.7v-0.7h0.6v-1.4h-2.2v-1.4h-0.7v-1.1h-1.9v-0.7h-4v0.7h-35H8.7v-0.7h-4v0.7H2.8v1.1H2.2v1.4H0V512h9.4v-11.1l-0.4-1v-18.4
	c0,0,1.3-5.8,5.8-5.8c4.5,0,5.3,4.9,5.3,4.9v19.5l-0.7,1.7V512h11.3v-19.9l0.5-0.7v-0.7h-0.5v-16l1.2-1V473h0.7V472h-1.7
	c0,0,0.7-4.5,3.7-8.3c3-3.8,8.2-3.8,8.2-3.8v0.5h0.9h0.9v-0.5c0,0,5.2,0.1,8.2,3.8c3,3.8,3.7,8.3,3.7,8.3h-1.7v1.1h0.7v0.6l1.2,1v16
	h-0.5v0.7l0.5,0.7V512H68v-10.2l-0.7-1.7v-19.5c0,0,0.7-4.9,5.3-4.9c4.5,0,5.8,5.8,5.8,5.8v18.4l-0.4,1V512h946V418.9z M131,326.3
	l5.5-3.7v9.7l-5.5,2.9V326.3z M106.9,349.4l2.2-2.2v8l-2.2,1.9V349.4z M103.7,451.3V435c0,0-0.8-8.1,1.9-9.9
	c2.7-1.8,2.9,5.5,2.9,5.5l0.6,18L103.7,451.3z M110.1,387.9v15.6l-4.9,3.6v-13.9c0,0-1-8.7,2.1-10.1
	C110.4,381.6,110.1,387.9,110.1,387.9z M120.8,444.5l-8.4,3.2v-18.1c0,0,0.3-10,4.1-10.9c3.8-0.8,4.3,6.4,4.3,6.4V444.5z
	 M122.6,394.9l-8.4,6v-16c0,0,0.7-8.9,4.3-11.3c3.6-2.3,4.1,5.5,4.1,5.5V394.9z M136.8,439.1l-10.9,3.8v-18.6c0,0,0-11.2,5.4-12.4
	c5.4-1.2,5.5,7,5.5,7V439.1z M138.3,386.7l-10.5,6.3v-17.4c0,0,0.6-8,5-11.8c4.4-3.8,5.5,4.2,5.5,4.2V386.7z M159.8,434.2l-15.2,3.3
	v-20.3c0,0,0.8-12,7.7-13.1c6.9-1,7.5,7.9,7.5,7.9V434.2z M161.1,377.7l-15.3,6.4v-18.8c0,0,0.3-9,6.6-11.8c6.2-2.8,8.7,4.2,8.7,4.2
	V377.7z M189,429.4l-19.9,3.4v-22.6c0,0,1.5-10.4,9.7-13.1c8.2-2.7,10.2,8.2,10.2,8.2V429.4z M190.1,369.5l-19.8,5v-19.3
	c0,0,0.5-8.9,8-11.7c10.4-3.8,11.7,5.2,11.7,5.2V369.5z M225.4,425.7l-24.1,2.5V404c0,0,1.2-12.5,11.9-13.6c10.7-1,12.2,10,12.2,10
	V425.7z M268.9,410.9v11.9l-14.3,0.8l-5.1-15c0,0,1.5-7.5,8.9-7.5C269.2,401.2,268.9,410.9,268.9,410.9z M305.2,427.3h-12.4h-12.5
	v-16.5c0,0,0.9-12,12.5-11.7c11.6,0.3,12.4,11.2,12.4,11.2V427.3z M376,384.1l3.3,1.3v9.4l-3.3-1.3L376,384.1z M336.7,375.5l6.8,1.6
	v9.5l-6.8-0.9V375.5z M348.2,423.7v11.5H334V423c0,0,0-10,7.5-10C349,413,348.2,423.7,348.2,423.7z M354.9,403.8
	c0,0,0.2-5.2,6.6-4.6c4.4,0.4,5.3,5.9,5.3,5.9v10l-11.9-2.7V403.8z M367.5,447c-3.6-0.4-7.4-0.7-11.6-1v-21.9c0,0-1.2-6.6,5.5-6.6
	c6.7,0,6,8,6,8L367.5,447z M383.3,449c-3-0.5-6.3-0.9-9.9-1.3v-21c0,0-1-6.6,4.7-6.6c5.7,0,5.2,8,5.2,8V449z M396.3,451.3
	c-2.3-0.5-4.9-1-7.7-1.5v-20.1c0,0-0.8-6.3,3.7-6.3c4.4,0,4,7.6,4,7.6V451.3z M469,332.9h0.7h0.7v5h-0.7H469V332.9z M472.7,371.3
	h-3.1h-3.1c0,0,0-4.6,0-7.5c0-2.9,3.1-3.2,3.1-3.2s3.1,0.3,3.1,3.2C472.7,366.7,472.7,371.3,472.7,371.3z M617.6,332.9h0.7h0.7v5
	h-0.7h-0.7V332.9z M621.4,371.3h-3.1h-3.1c0,0,0-4.6,0-7.5c0-2.9,3.1-3.2,3.1-3.2s3.1,0.3,3.1,3.2
	C621.4,366.7,621.4,371.3,621.4,371.3z M708.4,486.7v3.9h-15.4v-3.9h1.4v-2h-0.7v-1.4l-0.5-0.5l-0.5-65l1.7-0.7v-1.2l0.9-0.6V413
	h10.7v2.3l0.9,0.6v1.2l1.7,0.7l-0.5,65l-0.5,0.5v1.4H707v2H708.4z M730.5,486.7v3.9h-15.4v-3.9h1.4v-2h-0.7v-1.4l-0.5-0.5l-0.5-65
	l1.7-0.7v-1.2l0.9-0.6V413h10.6v2.3l0.9,0.6v1.2l1.7,0.7l-0.5,65l-0.5,0.5v1.4h-0.7v2H730.5z M752.6,486.7v3.9h-15.4v-3.9h1.4v-2
	H738v-1.4l-0.5-0.5l-0.5-65l1.7-0.7v-1.2l0.9-0.6V413h10.6v2.3l0.9,0.6v1.2l1.7,0.7l-0.5,65l-0.5,0.5v1.4h-0.7v2H752.6z
	 M774.7,486.7v3.9h-15.4v-3.9h1.4v-2h-0.7v-1.4l-0.5-0.5l-0.5-65l1.7-0.7v-1.2l0.9-0.6V413h10.6v2.3l0.9,0.6v1.2l1.7,0.7l-0.5,65
	l-0.5,0.5v1.4h-0.7v2H774.7z M796.8,486.7v3.9h-15.4v-3.9h1.4v-2h-0.7v-1.4l-0.5-0.5l-0.5-65l1.7-0.7v-1.2l0.9-0.6V413h10.7v2.3
	l0.9,0.6v1.2l1.7,0.7l-0.5,65l-0.5,0.5v1.4h-0.7v2H796.8z M928.8,497.2H921l1.9-2l-1.1-2.3l0.7-2l-0.4-3.2l-2.3-1.9l0.5-1l-1.4-1.2
	l-3.1-0.7L915,480l0.4-1.3l-1.2-3.7l-1.5-2.1v-1.9l0.6-0.9l-0.6-1.5h-2.2l-0.7,1.1l0.4,1l0.3,0.4l-0.3,0.8l-0.9,0.3l-2.9,0.7
	l-2.1,1.9l-0.6,4l1.1,1.2l1.5,0.7l-0.7,4L902,489l-0.3,1.6l-0.7,4.1l-0.7,2.5h-5.5v-32.9l1.2-0.6v-2.8l1.6-0.5v-0.9h-0.6
	c0,0-0.2-10.7,12.5-12.7v0.4l2.4,0.6l2.4-0.6v-0.4c12.7,2,12.5,12.7,12.5,12.7h-0.6v0.9l1.6,0.5v2.8l1.2,0.6V497.2z"/>
</svg>
