<?xml version="1.0" encoding="utf-8"?>
<!-- Generator: Adobe Illustrator 19.2.1, SVG Export Plug-In . SVG Version: 6.00 Build 0)  -->
<svg version="1.1" id="Ebene_1" xmlns="http://www.w3.org/2000/svg" xmlns:xlink="http://www.w3.org/1999/xlink" x="0px" y="0px"
	 viewBox="0 0 1024 512" enable-background="new 0 0 1024 512" xml:space="preserve">
<path fill="#1D1D1D" d="M909.5,357.4l-0.2-0.3l-0.3,0.1c-9.7-5-19.9-10.6-30.4-16.9c-2-1.2-4-2.5-5.9-3.7l-1-1.6l-0.7,0.5
	c-11.4-7.4-19.7-13.7-19.7-13.7v-26.2h4.1v-5.9h-4.1v-23.2l-7.7-18l-1-15.1h-2.2l-1,14.7l-6.4,18.4h-4.8l-1.1-4.4h-4.2v-15.7h-4.6
	l-22.1-44.2l-3.5,0l-3.3-20.3l-2.3,20.4l-4.2,0l-13.5,36.7l-10.1-6.3l-9,15.8v-9h-2.8l-2.2-24.3l-1.8,24.3h-3.5v10.7h-3.3v32.2
	l-2.4,3.3v4.4l3.7-0.6v7.5l-43,19.9v-4.7l-9.4,4.1v3.9L658,332.6v-5l-11.6,2.8v-5.3l-4.4,1.1V340l-10.8,5.8v-10.8l-5.5-0.3
	l-10.8-22.7l-1.2-9.1l-1.1,0.3l-1.2,8.6l-5,0.8v8.3l-7.6,9.8v-3.5h0.7V326h-0.7v-61.6l1.2-4.8v-12l1.4-2.7h-1.8v-32.6l3.1-2.6v-1.3
	l-3.9-0.3v-3.8h-0.5v-9.1l-0.7-5l-0.8,4.6v9.6l-2.2-0.3v-3.5l1.4-2.1l-1.4-2v-5.4l1.1-2l-1.6-3.6l-1.9-0.3c0,0-7.3-9.6-9.7-14.3
	c-2.5-4.7-3.9-10.2-3.9-10.2h1.1v-8.5h-0.7v5.1h-2.5v-16.1l1.9-1.8l-1.3-1.9v-1.4h-1.4c0,0-6.8-13.3-8.6-18.7
	c-4-11.6-6.7-27.1-6.7-27.1l-0.4-5.4h1.6v-2.8h-1.3v-4.5L562,76l-2.5-2.9v-3.6l1.1-0.7l-0.6-1.1l-1.3-4l-1,3.9l-0.6,1l1,0.7l0.1,3.7
	l-2,2.8l1.4,2V82h-1.4v2.8h1.6l-0.1,5.8c0,0-2.9,20.8-5.4,27c-2.5,6.2-7.4,17.6-7.4,17.6l-1.7,0.1v1.6l-1,1.6l1.4,1.2v17.1l-1.4,0.1
	v-4.5h-1.2v7.7l1.6,1.6c0,0-2.5,7.8-4.7,11.7c-2.3,3.9-6.3,11.1-6.3,11.1l-3.7,0.3l-0.8,2.8v3.6l1.9,1.6v12.5h-3v-8.3l-0.9-5.8
	l-0.9,5.9v12.8h-3.5v1.7l3.8,2.9v31h-2l2.6,3.1v11.6l1.9,5.1v60.8H526v1.3h1.6v6h-1.4v1.2h1.6v28.8l-0.8,0.8v2.2h-0.7v27h-8.6v-2.8
	h0.6v-1.2h-0.6v-1.5l-2.3-4.4v-2.2h0.7v-0.9h-0.7l-0.5-7.2l-0.4,7h-0.7v1.3h0.5v2.1l-2.1,4.2v1.8h-0.6v1h0.8v2.3h-4.9v-24.6h2
	l1.2-1.3h-2.8v-9.2l-0.8-2.8h-1.5l-0.9,2.7v3.3h-1.5v-26.3h-0.7v3.3l-2.2-2.2v-11.9h-1.1v3.5l-1.4-1.3v-8.7l-1.6-1.8V309h-1.4v6.6
	l-1.3,2.1v8.7l-1.4,1v-3.1h-1.1v12l-2.4,2.5v-3.4h-1.1V361H486v-3.9l-0.8-2.2H484l-1,2.3v9.8h-2.4l1.1,1.4h2.4v23.5h-4.5v-14.6h0.9
	v-1.2h-0.9V373h1v-1.3h-1v-25.2h0.7v-1.8h-0.9v-3.1l-1.1-1v-4.8c0,0,0.8,0.2,0.8,0c0-0.1,0-1.8,0-1.8h-0.8v-1.3h0.6v-1h-1.3v-2.1
	h-1.1l-0.8-3.9V323h0.6v-1.7h-0.7l-0.8-7l-0.6,7.1h-0.7v1.7h0.8v2.8l-0.8,3.7h-1l0.2,2.2h-1.4v1.4h0.8v1h-1.4v1.5h1.3v5.3l-1.2,0.9
	v3.1l-0.8-0.1v1.9h0.9v13h-2.5l-2.4-10.3V347l-0.5-3.9l-0.9,2.3l-1.1-8.9l-1,9.6h-3.5l-0.3-3.7l-1.2-2.6l-0.4-8.4l-0.9,8.4l-1,2.9
	v2.1l-1-0.1l0.1-1.4v-4.8c0,0,0.8,0.2,0.8,0c0-0.1,0-1.8,0-1.8h-0.8v-1.3h0.6v-1h-1.3v-2.1h-1.1l-0.8-3.9v-2.8h0.6V324h-0.9l-0.6-7
	l-0.6,7.1h-0.7v1.7h0.8v2.8l-0.8,3.7h-1l0.2,2.2h-1.4v1.4h0.8v1H447v1.5h1.3v5.3l-1.2,0.9v2.6h-4.1l0-2.8h0.7v-1.8h-0.9v-3.1l-1.1-1
	v-4.8c0,0,0.8,0.1,0.8,0c0-0.2,0-1.8,0-1.8h-0.8v-1.3h0.6v-1h-1.3v-2.1h-1.1l-0.8-3.9l0-2.7h0.6v-1.7H439l-0.6-7.1l-0.6,7.1h-0.7
	v1.7h0.8v2.8l-0.8,3.7h-1l0.2,2.2H435v1.4h0.8v1h-1.4v1.5h1.3v5.6h-1v2.7l-1.3-3.4l-1.1,5.3h-4.7l-0.7-6l-1.1,5.4c0,0,0,0,0,0v1
	h-6.2v-2l-1.1-1v-4.8c0,0,0.8,0.2,0.8,0c0-0.1,0-1.8,0-1.8h-0.8V333h0.6v-1h-1.3V330h-1.1l-0.8-3.9v-2.8h0.6v-1.7h-0.7l-0.8-7.1
	l-0.6,7.1h-0.7v1.7h0.8v2.8l-0.8,3.7h-1l0.2,2.2h-1.3v1.4h0.8v1H411v1.5h1.3v5.3l-1.2,0.8v3.1l-0.8-0.1v1.9l0,0v0.1h0.9v8
	c0,0.1-0.1,0.2-0.1,0.4l-2.3-1.6v-0.3h1v-1.2h-1v-3.1l-1.2-3.1l-1.2,2.9l-0.6,0.6v0.9l0.4,0.4l-0.1,0.8h-0.2l-6.3-4.3v-1.9l-0.1-1.9
	l1.1-0.2v-1.2h-1.1l0-0.4v-0.6h0.6v-1h-1.3l-0.1-2.3H398l-0.9-3.7v-1.5c0,0,0,0,0,0v-1.5l0.6,0v-1.2h-0.9l-0.6-7.3l-0.6,7.1h-0.7
	v1.7h0.8v2.8l-0.8,3.7h-1l0.2,2.2h-1.3v1.4h0.8v1h-1.4v1.5h1.3v0.4c-0.7,2.1-1.5,4.2-2.3,6.2h-4.9V346l-1.1-1v-4.8
	c0,0,0.8,0.1,0.8,0c0-0.2,0-1.8,0-1.8h-0.8v-1.3h0.6v-1h-1.3V334h-1.1l-0.8-3.9v-3h0.6v-1.3h-0.9l-0.6-7.3l-0.6,7.1h-0.7v1.7h0.8
	v2.8l-0.8,3.7h-1l0.2,2.2h-1.4v1.4h0.8v1h-1.5v1.5h1.4v5.3l-1.2,0.9v3h-1.2v1.9h-4.3v-2.4l-1.6-3.6l-1.4,3.4v8.8l-1.9,4.6l-2.5,0.1
	v-8.7h0.7v-1.8h-0.9v-3.1l-1.1-1v-4.8c0,0,0.8,0.1,0.8,0c0-0.2,0-1.8,0-1.8h-0.8v-1.3h0.6v-1h-1.3v-2.1h-1.1l-0.8-3.9v-3h0.6v-1.3
	h-0.9l-0.6-7.3l-0.6,7.1H359v1.7h0.8v2.8L359,336h-1l0.2,2.2h-1.4v1.4h0.8v1h-1.4v1.5h1.4v5.3l-1.2,0.9v3.1l-0.8-0.1v1.9h0.9v23.3
	h-1.2v1.5l1.3,0.9v2.3h-0.8v1.5h0.6V394l-1.1-1.7v-5.1h-0.9v5.1l-1.1,1.1h-4.1v-7.1h1.3v-1.1h-1.3v-4.6h-1.6v0.7h-1.2v-1h-2.2v0.8
	h-1.3V380h-2.1v0.9h-0.8v-1.1h-1v5.3h-1.3v0.9h1.6v9.4H331v-4.8h-1v-3h1.2v-1h-0.7V382h-2.6v-6.3h0.8V373h-1.6v-25.3l0.5-0.5v-2.8
	h-1.2v-8.7h0.6l-1.4-6.9l-1.3,6.1v9.2l-0.6-0.6v-16.2h-1.2v2.6l-0.8-0.8v-10.4l-1.1-8.6l-0.6,8.1h-0.8l-0.7-9.7l-0.8,9.4v7
	c0,0-1.3-2.7-1.4-2.9c-0.1-0.2,0-8.6,0-8.6l-1,2v-26.2h-0.9l-1-1h-0.8v-10.8l-1,6.4h-1.8v-5.6h0.8v-1.6l-2.5-1.6l-1-10.4h0.8v-2.1
	h-0.8l-3-23.8l1.2-1v-1.2l-1.2-1.5l-0.6-5.6l-0.8,5.5l-0.9,1.2v1.5l0.7,1.1l-2.5,23.4h-1v2.4h0.8l-1.5,11l-2,1v1.8h0.8v5.6h-1.7
	l-0.8-5.4v11.3h-1.6l-0.4,0.7H292V317l-1.1-3.1v8h-1.3l-0.7-12.5L288,319h-1.1l-0.8-10.2l-0.5,10.2v9.8h-0.9l-0.5-2.7l-0.5,6.9v6.3
	l-0.7,4v-9.4l-1.1-5.9l-1,6v38.5h-1.8v-16.1H278v-4.5h1.1v-1.1H278v-1.4h0.8v-0.7l-2.3-4.4l-0.6-6.7l-0.9,6l-2.2,4.6v1h0.5v1.3h-0.7
	v1.3h1v4.4h-1.6v6.3l-2.7-2v-4.1l-1.3-1.4v4l-3.4-3.4v-15.6h-1.2v4.1l-3.3-5.6l-0.3-7.4H259v7.3l-3.4,5.5v-4.4h-1.2v1.4l-0.1,14.1
	l-5.1,1v3.9h-1.6v-4.9l-0.4-0.4v-4.5h0.8v-0.9h-0.8v-2.2l-1.9-3.8v-6.1h-1.1v6.3l-2.4,3.3v2.1H241v1.3h1v4.1l-0.5,0.5h-0.8v4.6h-2
	v3.1H237v-7.4l-2,3.5v9.8l-3.7-0.2V363h-1.1v-4.5h1.1v-1.1h-1.1v-1.4h0.7v-0.7l-2.3-4.4l-0.6-6.7l-0.9,6l-2.2,4.6v1h0.5v1.3h-0.7
	v1.3h1v4.4h-1.6l-0.4,28.9l-5,0.2l-2.2-4.4v-5.5l-0.7-0.7v-10.8l-0.7-0.7v-55.1h0.9v-1.8h-0.9v-2.9h1.1v-1.3h-1.3v-48.6l1.3-0.6
	v-1.1h-1.3v-8.6h-0.7l-0.7,1.9l-0.5-0.5v-6.5l1.3-1l-0.8-0.8v-6.2H213l-0.7,0.7l-3-8.3v-5.9l0.9-0.9l0.2-1.3l-0.9-1l-1-4l-1.3,3.9
	l-1,0.7l0.3,1.6l0.7,1l0,5.8l-3.2,8.2l-0.7-1.2l-0.6,0l0.2,7l-1,0.5l1,1.1v5.6l-0.4,1.3l-0.7-2.5h-0.8v9h-1.4v1.4l1.3,0.5v9.5h-7
	v-3.6h0.9v-1.2h-0.6v-1.9l-3.8-2.1h-2.4v-5.3h-2.6v-4.7h1.4v-1.8l-0.6-0.6v-4.9l-3.8-7.5l-0.3-6.1l1-1v-1.4l-1-1.4l-1-3l-1,3
	l-0.9,0.9v1.4l0.7,1.5l0.2,6l-3.2,5.4l-3.2-8.8l0.8-1.6l0-3.4l-1.3-1.3v-57.3l1.1-1.2l-0.2-1.5l-1.6-2.5l-1.1,2.3v1.6l0.7,1.1
	l-0.7,57.3l-1.3,0.7v3.5l1,2.1l-2.1,4.8l-0.6-4.2l-3.8-7.2v-6.9l0.8-0.8l0.1-1.4l-0.9-1.5l-0.9-3.6l-1,3.6l-1.4,0.9v1.6l1.3,1.7
	l-0.3,6.2l-4.2,7.8v6.5l1,1v5.4l-2,2.3l-0.5-2.6l-0.8-0.1v8.7l-1.1,0.1v1.6h1.3v6.4h-3.2v-8.3h-0.9v9.3l-2.3,3.2v4.1h-6.8v-8.7h1.4
	v-1.7h-1V252h-0.5v2.2h-1.4v-3.1h-0.7v-4.6l1.5-0.8v-6.9l-1.5-0.1c0,0-3-5.5-3.3-7.8c-0.2-2.3-0.3-5.4-0.3-5.4l1-1.1l0.1-1.3
	l-1.1-1.5l-0.8-4l-1.2,3.9l-1,1.1l0.3,1.6l0.8,1.4c0,0-0.1,3.9-0.2,4.9c-0.1,1-3.2,8.2-3.2,8.2h-1.4v6.5l1.9,1.3v4.2h-1.1v2.8h-1.6
	v-2.4h-1v8.2h-0.8v2h1.2v32h-1.2v1.7h1.1v15h-1.1v1l1,1v44.6l-4.2,11.1h1.2v3.2l-1.2,2v1.6H120c-1.3-70.3-11.8-118-24-147.7v0
	c-0.7-1.7-1.3-3.3-2-4.8h0c-0.3-0.7-0.6-1.4-1-2.1l0.1,0.1c-7.9-16.8-16.9-25.9-18.4-27.4c-4.4-4-8.5-5.9-11.9-5.9
	c-16.3,0-48.7,43.4-55.9,156H0V512h1024V395.1C1024,395.1,977.1,391.8,909.5,357.4z M619,475.8h-16.3v-26.2c1.3-0.7,2.9-1.2,4.9-1.2
	c9.2-0.2,11.4,6.8,11.4,10.3V475.8z M737.7,451.1h-7.4v-10.7h-5.5v-17.3h-5.9v17.3h-6.6l-4.1-4.1h-4.8v4.1h-5.2v18.4h-7v4.4H671
	v-16.9h-5.2v16.9h-19.5v-78.1l91.4-30.2V451.1z M865.8,339.1l-7.1,4.9l-7.3-13.5C853.2,331.5,858.3,334.7,865.8,339.1z M863.3,361.7
	c-4.8-3.6-8.5-6.5-10.6-8.3l4.4-3.1L863.3,361.7z M850.6,338.2l4.5,8.2l-4.5,3.1V338.2z M868.8,450.6l-18.6,0.8v-90.3
	c0,0,7.3,6,18.6,13.7V450.6z M868.8,362.6l-8-14.8l8-5.5V362.6z M1013.9,398.3l-12.5,5.3L988.7,393
	C998.7,395.4,1007.6,397.2,1013.9,398.3z M1013,418.9c-6.3-0.9-15.1-2.3-25.7-4.4l13.4-5.8L1013,418.9z M980.5,391.9l16.5,13.6
	l-16.5,7V391.9z M948.7,380.7c5.8,2.3,11.8,4.4,17.8,6.3l-7.7,4.6l-11.1-11.2C948,380.4,948.4,380.5,948.7,380.7z M971.9,411.1
	c-7.9-1.9-16.6-4.2-25.7-6.9l11.9-7.1L971.9,411.1z M938.7,377.5l16.1,16.4l-14.4,8.6c-0.2-0.1-0.3-0.1-0.5-0.2l-1.3-1.9V377.5z
	 M933.2,374.1l-9.3,4.5l-8.9-13C921,368.5,927.1,371.4,933.2,374.1z M933.1,400c-1.2-0.4-2.5-0.8-3.7-1.2
	c-6.7-2.3-13.3-5.1-19.8-8.3l12.8-6.2L933.1,400z M904.7,363.2l2.7-0.9l12.5,18.3l-15.2,7.4V363.2z M902.4,359.3l-13.3,4.4
	l-10.5-17.1C885.8,350.4,893.8,354.8,902.4,359.3z M896,383.3c-6.5-3.7-12.6-7.6-18.1-11.3l9.4-3.1L896,383.3z M871,342.4l13.8,22.7
	l-11.6,3.8c-0.6-0.4-1.1-0.8-1.6-1.2l-0.6-1V342.4z M902.5,449.1l-31.5,1.4v-74.1c8.8,5.9,19.7,12.6,31.5,18.5V449.1z M902.5,385.5
	l-11-18l11-3.6V385.5z M936.5,447.6l-31.8,1.4v-53c7.7,3.7,15.6,7,23.6,9.4c2.7,0.8,5.5,1.6,8.2,2.4V447.6z M936.5,397.1l-10.1-14.8
	l10.1-4.9V397.1z M978.2,445.7l-39.5,1.8v-39c14.2,4.1,27.7,7.4,39.5,10.1V445.7z M978.2,411.2L962,394.7l10.2-6.1
	c2,0.6,4.1,1.2,6.1,1.7V411.2z M1022.3,443.7l-41.8,1.9v-26.5c21.2,4.8,36.8,7.4,41.8,8.2V443.7z M1022.3,420
	c-0.3,0-0.7-0.1-1.1-0.1l-15.8-13.1l16.7-7.2c0.1,0,0.1,0,0.2,0V420z"/>
</svg>
