<?xml version="1.0" encoding="utf-8"?>
<!-- Generator: Adobe Illustrator 19.2.1, SVG Export Plug-In . SVG Version: 6.00 Build 0)  -->
<svg version="1.1" id="Ebene_1" xmlns="http://www.w3.org/2000/svg" xmlns:xlink="http://www.w3.org/1999/xlink" x="0px" y="0px"
	 viewBox="0 0 1024 512" enable-background="new 0 0 1024 512" xml:space="preserve">
<path fill="#1D1D1D" d="M1024,431.1l-12.5-12.1v-3.8h1.4v-1.5l-10.6-6.8v-2.7h-7.1v-2.4H993l-14.3-13.2h-1.3v-2.5h-4.7v-4.4
	l-1.3-1.3v-1.7h-1.8v1.6h-1v5.9h-9.3v-2.8l-1.8-2.9h-4.8v1.6h-1.1v-1.5H950v1.4l-1.2,0.4v3.3H946l-3.1,3.2v-1.2h-0.6v-1.1h0.9v-1.4
	h-3.9v1.4h1v0.9h-0.5v3.5h-3.4v-3h-3.6l-2,1.9v2.5h-2.1v-13.2H928v13.4h-2.5v-2h-3.2l-0.8-1.6h-4.2v1.4h-1l-6-8.5l1.7-2.3v-3.2h-0.6
	v-1.4l-3.4-4.1v-4.3H905v3.8h-1.3v1.4l-2.3,2.5v2h-4.5V367h0.9v-1h-1.2v-2.6h-3v1.3h-3.1v1.9h-1.1v1.1h-1v-5.4h-6.1
	c-2.5-6.6-12-6.9-12-6.9v-1h-4.1v1c0,0-4.3,0.3-7.4,2.6c-3.2,2.3-4.2,4.9-4.5,6.5c-0.3,1.6,2.4,1.6,2.4,1.6s1.6,5.1-0.4,11.8
	c-2,6.7-5.8,5.8-5.8,5.8s-7-0.2-9.1,2.9c-2.1,3-0.6,6.1-0.6,6.1l1.7,1.5v1.8h-1.3v1.7h-1.4v1.9l-7.1-7.1v-2h3.8V385l-3.3-4.7h-16.9
	v-3.9h-0.8v3.8h-1.4l-1.9-2.5v-4.1h-5v-3.5h-6v6.6l-0.6-0.6v1.1h-4.3V372h-1.2v1h-2l-2.6-2h-4.2v-1.1h-3.4l-1.3,1.3v1.2h-1.8v-1H777
	l-5,1.8v1.2h1.1v2h-5.3v0.9h-4.9l-1.3-0.9V371H761v-0.9h1.1v-1.1h-5.8v1h1.5v0.9h-0.8v5.6h-1.8v2.7H754l-1.1-1.1v-1.7h-1.7v-6.5h0.8
	v-1c0,0-8.2,0-8.5,0c-0.3,0,0,0.9,0,0.9h0.7v7.1h-1.5v2.2h-3.2l-5.1,4.8h-1.7v-1.6h-27.4l-1.5-1v-1.1h-5v-2.9h0.9v-0.8h-5.6v1.1h0.7
	v2.2l-2.9-2.4v-3.1h-0.8v2.4l-21-17.5v-3.6h-2.1l-0.8-2.1v-0.7l-0.9-0.7v-2.4l0.6-0.3v-0.7l0.9-0.6v-2.5H667l-0.7-1H664h-2.3l-0.7,1
	h-0.8v2.5l0.9,0.6v0.7l0.6,0.3v2.4l-0.9,0.7v0.7l-0.8,2.1h-2.1v3.6l-32.1,26.8v-2.5h0.6V382h-5v1h1.2v5h-2.4l-9.4-4.8v-1.7h-1.9
	v-0.9h-1.6v-1.9l-0.9-0.4V370h0.7c0,0-0.2-0.9,0-0.9c0.2,0,0.8,0,0.8,0v-1.4l-0.4-0.4h-0.4c0,0-1.4-6.6-5.8-6.6v-4.5l-0.3-0.7v-4
	h-0.4h-0.4v4l-0.3,0.7v4.5c-4.4,0-5.8,6.6-5.8,6.6h-0.4l-0.4,0.4v1.4c0,0,0.6,0,0.8,0c0.2,0,0,0.9,0,0.9h0.7v8.3l-0.9,0.4v1.9h-1.6
	v0.9H590v1.7l-4.1,2.1h-3.1v-8.1h-6.3v-1.6l-10.1-4.4v-2h-4.9v1.6h-4.3v-3.6h-1.7v-7.3h-0.9v7.4H552v3.3h-2.3v-2.1h-4.6v8.1h-0.6
	v1.3h-1.7v-2.4h0.8v-2.8h-0.8v-30.1h1v-1.7h1.2v-2.6h2.4v-3.1h1.1v-3.2h-3.9l-1.4-1.5h-4.7v-3.4h-1.5v-3.5h-1v-15.6l2.1-1.6v-1.1
	h-1.3l-0.9-2.3v-2.4l-2.2-2.2h-0.9v-5.1h1.6v-2.5h-1.6l-1.8-26.5l0.6-1.1l-0.9-1.3l-0.6-18.2l-0.6,18.4l-0.8,1.2l0.8,1.2l-1.5,23.2
	l-6.2-12.5v-1.5h-0.8v-1h0.9v-1.1h-0.9v-2.4h-1.2v-5.6h-2.5V248l1.9-1.3v-0.9h2.1v-1.1l-2.2-1.1v-0.9h-2.3v-0.9v-17.2h-0.9v10.6
	h-1.8v-1.9l-0.7-0.7l-5.9-92h0.6v-1.3l-0.5-0.5v-3.8h0.5v-2.4h-0.6v-3h0.5v-2.1h-1.4v-2.7h0.5v-2h-0.5v-3.5h0.4v-2.1h-0.6v-3.1h0.4
	v-1.5h-1.2V103l1.4-2.4l-1.4-2.2v-9.6l0.7-1.6l-1.8-2.3V77l0.7-2.2l-1.4-3.1H503l-1.4,3.1l0.7,2.2v7.8l-1.8,2.3l0.7,1.6v9.6
	l-1.3,2.2l1.3,2.4v9.8H500v1.5h0.4v3.1h-0.6v2.1h0.4v3.5h-0.5v2h0.5v2.7h-1.4v2.1h0.5v3h-0.6v2.4h0.5v3.8l-0.5,0.5v1.3h0.6l-5.9,92
	l-0.7,0.7v1.9H491v-10.6h-0.9v17.2v0.9h-2.3v0.9l-2.2,1.1v1.1h2.1v0.9l1.9,1.3v15.7h-2.4v5.6h-1.2v2.4h-0.9v1.1h0.9v1h-0.8v1.5
	l-6.2,12.5l-1.5-23.2l0.8-1.2l-0.8-1.2l-0.6-18.4l-0.6,18.2l-0.9,1.3l0.6,1.1l-1.8,26.5h-1.6v2.5h1.6v5.1h-0.8l-2.3,2.2v2.4
	l-0.9,2.3h-1.3v1.1l2.1,1.6v15.6h-1v3.5h-1.5v3.4h-4.7l-1.4,1.5h-4v3.2h1.1v3.1h2.4v2.6h1.2v1.7h1v30.1h-0.8h-4v1.3h-2.3v-1.4h-4.1
	v1.9h-42.1v6.7h-6.4v-7.3l1.3-2v-1.1l-1.3-0.1v-2.3l-3-3.1v-3.8l-1.6-2l-0.5-8.3l-0.6,0.1v7.9l-1.4,2.4v3.7l-2.9,3.1v2.1l-1,0.2v1.2
	l1.1,1.5v6.7h-3v-4.7h-0.8v-2.8h1.2v-2.4l-0.6-0.6v-2.9l0.4-0.4v-1.6l-0.7-0.7l-2.2-3.4l-0.3-7.7l-0.5-0.1v7.7l-2.3,3.4l-0.8,0.4
	v2.2l0.5,0.4v2.3l-0.5,0.5v2.4h1v3.1H384v4.9h-1.8v0.5h-9.2v-10.1h-2.2v-1.4h-2.9v-9.4h-0.5v4.7h-2v5.4h-11v3.7h-3v7.4h-2.8v-2h-4
	v-2.7h-13.4v-1h-3.7v1.3h-6.8v-1.1h-15.3v1.1h-9.1v-2.1h-1.9v1.8h-1.9v-8.3h-1.7v-7.7h-0.7v-10.4h-0.5v10.4h-1.4v8h-1.4v8.3h-5.9
	v-16.2h1v-3.6h1.6v-2h0.9v-2l-1.8-2.5v-3.5h-1.6v-3.3l-0.5-0.5v-17.5l2.8-3.1l-0.1-5.8h-3.7v-8.2l0.6-1.2v-2.7h-2.9v4.9h-1.2
	l-1.8-2.7v-2.2l1.4-1.1l0.1-1.7l-0.5-0.3v-5.7h-1.7v-14l1.6-2.9V271l-1.6-5h-0.8v6.8h-1.7l-3.4-5.1v-3h-1.7v-2.2l1.1-1.1v-1.9
	l-1.2-1.2l-0.6-2.3v-8.2l1.1-1.1l-1.9-3.2l-0.2,0.2l-1.9,3.2l1.1,1.1v8.2l-0.6,2.2l-1.2,1.2v1.9l1.1,1.1v2.2h-1.7v3l-3.4,5.1h-1.7
	v-6.8h-0.8l-1.6,5v7.7l1.6,2.9v14h-1.7v5.7l-0.5,0.3l0.1,1.7l1.4,1.1v2.1l-1.8,2.7h-1.2v-4.9h-2.9v2.7l0.6,1.2v8.2h-3.7l-0.1,5.8
	l2.9,3.1v17.5l-0.5,0.5v3.3H246v3.5l-1.8,2.5v2h0.9v2h1.6v3.6h1v16.2h-4.4l-0.9-0.9v-0.4H242v-2.4h0.4v-0.7h-0.8V371h-0.9v-3.8
	l-0.2-0.2l-0.3-8.9l-0.3,8.9l-0.2,0.2v3.8h-0.9v1.1H238v0.7h0.4v2.4h-0.3v0.4l-1.7,1.7v1.6v0.3h0.2v0.5l-1.5-1.2l-0.9-4.6h-4.6v2.2
	h-11v-1.8h-4.4v2.6l-18,0.4c0-0.1,0-0.2,0-0.3c0-4.8-2.9-8.8-6.9-10.1v-2.4h1.3v-1.5h-2.1v-2.3h-1.2V352h-1.1v8.8h-1.5v2.3h-2.1v1.5
	h1.6v2.3c-4.1,1.2-7.2,5.3-7.2,10.2c0,0.2,0,0.5,0.1,0.7l-0.1,0l-2.7-70.2l0.9-0.8V306h2.1v-0.3h0.6v-0.4l-4.4-1v-1.8h0.2v-0.7h-0.4
	L173,287l-0.6,14.8h-0.3v0.8l0.1-0.1v1.8c0,0-3.2-0.5-4.9-1.3c-3.6-1.6-4.1-3.1-4.1-3.1v-1.5l1.2-0.8l0.8-1v-0.9h-0.3v-1.2h0.3v-1.2
	h-0.5l-0.2-2.7H164v0.1h-0.4v-0.5h-0.9v-2h-0.3v-3.8l-0.5-0.8v3.6h-0.7v-18.1l0.6-0.9l2.7-0.8c0,0,1.7-0.6,0.8-2
	c-1-1.3-3.3-1.7-3.3-1.7V263h-0.8v-0.9l-0.6-0.6v-3.8l-0.8,0.8v2.5l-0.7,0.4v0.4h-0.6v0.5h-0.8l-3.1-4.7v-2.7l1.9-1.8h0.3l0.6-0.9
	l-0.2-0.4l0-1.3l-2.8-3.7v-1h-0.6v-2.4l0.5-0.8v-1.3l-0.5-0.6v-6.1l4.3-2.9l0.9-1.3l1.2-0.4l1-1.6h-0.6l-0.5,0.2l-0.3,0.4l-0.4,0
	l-0.3-0.9h-0.5l-0.3,1l-0.5-0.1l-0.1-0.4l-0.4-0.4h-0.4l0.7,2.1h0.7l-0.6,1.4l-4,2.5v-1.1l0.8-0.3l1-1.4l-0.5-0.1l-0.5,0.3l-0.3,0.4
	l-0.3-0.1l-0.2-1.4h-0.3h-0.3l-0.2,1.4l-0.3,0.1l-0.3-0.4l-0.6-0.3l-0.5,0.1l1,1.4l0.8,0.3v1.1l-4-2.5l-0.6-1.4h0.7l0.7-2.1h-0.4
	l-0.4,0.4l-0.1,0.4l-0.5,0.1l-0.4-1h-0.5l-0.2,0.9l-0.4,0l-0.3-0.4l-0.4-0.2h-0.6l1,1.6l1.3,0.4l0.9,1.3l4.3,2.9v6.1l-0.5,0.6v1.3
	l0.5,0.8v2.4h-0.7v1l-2.8,3.7l0,1.3l-0.2,0.4l0.6,0.9h0.3l1.9,1.8v2.7l-3.1,4.7h-0.8V262h-0.6v-0.4l-0.7-0.4v-2.5l-0.8-0.8v3.8
	l-0.6,0.6v0.9h-0.8v0.8c0,0-2.4,0.3-3.4,1.7c-1,1.3,0.8,2,0.8,2l2.7,0.8l0.6,0.9v18.1h-0.7v-3.6l-0.5,0.8v3.8h-0.3v2h-0.9v0.5h-0.4
	v-0.1h-0.5l-0.2,2.7h-0.5v1.2h0.3v1.2h-0.3v0.9l0.8,1l1.2,0.8v1.5c0,0-0.5,1.5-4.1,3.1c-1.7,0.8-4.9,1.3-4.9,1.3v-1.8l0.1,0.1v-0.8
	H134l-0.6-14.8l-0.4,14.9h-0.4v0.7h0.2v1.8l-4.4,1v0.4h0.5v0.3h2.1v0.8l0.9,0.8l-2,75.6l-0.5,0.2h-1.6v-3.4h-2.3v-4.6h1.4v-1.7l-1-1
	v-0.5h-0.9l0-5.3c0-0.1,0-0.1,0-0.2s0-0.1,0-0.2v-0.5h0c-0.3-5.6-3.7-10.2-8.5-11.7v-2.9h1.6v-1.9h-2.6v-2.9h-1.5l-0.3-17.6h-0.6
	l-0.3,17.6h-2v2.9h-2.6v1.9h1.9v2.8c-4.9,1.4-8.5,6.1-8.8,11.8h-0.1l0,6.1h-0.9v0.5l-1,1v1.7h1.4v4.6h-2.3v3.4h-3.6v2.6h1.7v2.4h0.9
	v16.1h-2.1v4.7l-3.2,0.7v31.5h0.3l-12.1,6.3v10.8h-4.2l-3.9,2.7h-1.9v-0.6h-1.6v0.4h-0.4c-0.5-1.7-1.1-3.8-1.1-4.1
	c0-0.6,0.3-2,0-2.2c-0.3-0.2-2-1.1-2.1-1.4c-0.1-0.3-2.1-2.5-1.9-2.9c0.2-0.4,1.3-3.3,1.3-4.6c-0.1-1.3-0.7-5.2-0.7-5.2l-0.9-1.2
	l1-1l1,0.9l0.6-0.1l0.7,0.4l0.6-0.2l0.5,1.1l0.7-0.2l0.6,1l0.8-0.3l1,1.9l0.8-0.7c0,0,0.4,1.6,0.7,2.1c0.3,0.5,1.7,2.9,1.7,2.9
	l1.5,1.9c0,0,0.6,1.8,1,2.6c0.4,0.7,2.2,2.2,3.3,1.9c1-0.2,0.3-0.9,0.3-0.9l-0.5-1.2c0,0-0.1-0.9-0.3-1.2c-0.3-0.3-0.6-1.4-0.5-1.9
	c0-0.5-0.1-1.5-0.4-2.4c-0.2-0.8-1.1-5.3-1.2-5.8c-0.1-0.5-0.6-4.7-4.3-5.2c-3.7-0.5-7.4,0.7-8.9,1.6c-1.5,0.9-2.6,0.7-2.7,0.6
	c-0.2,0-4.6-0.4-6.3-0.4c-1.7,0-2.5-0.1-2.5-0.1l-2.8-3.4v-1.2c0,0,1-2.8,1-4.2c0.1-1.4,0-2.9,0-2.9s0.5-0.8,0.5-1.1
	c0-0.3-0.3-1-0.4-1.3c0-0.1,0-0.4-0.1-0.5c-0.2-0.2-0.9-0.3-1-0.6c-0.3-0.3-0.7-1.2-0.8-1.6c0-0.1,0-0.4,0-0.5
	c-0.1-0.3-0.4-0.7-0.5-1c-0.3-0.8-0.8-2.7-1.2-3c-0.4-0.4-1.3-0.7-2.3,0c-1,0.7-1.5,1.4-1.9,1.5c-0.5,0.2-1.5,0.8-1.4,1.1
	c0.2,0.3,1.3,0.7,1.5,1c0.3,0.3,0.1,1.2,0.3,1.6c0.2,0.5,1.2,1,1.4,1.5c0.1,0.2,0.1,0.5,0,0.7c0,0.1-0.2,0.2-0.2,0.3
	c-0.1,0.2,0,0.5,0,0.7c-0.1,0.2-0.4,0.5-0.5,0.7c0,0.2,0,0.6,0,0.6l-1,1l-0.2,1c0,0-1.1,0-1.7-0.1c-0.6-0.2-2.6-0.9-2.6-0.9
	s-0.2-0.3-0.9-0.3c-0.7,0.1-3.3,0-3.3,0l-2.1-1.6l-0.6,0.4l1.9,1.6l0,0.4l0.7,0.1l0.3,0.3l-0.3,0.2l0.1,0.3l0.8,0.2l1,0.6l1.5,0.9
	l0.4-0.3l0-0.4l1.5,1l0.8,0.5l1.7,0.1l0.1,1.1l-0.2,0.3l-0.1,0.3c0,0-0.4,0-0.9,0.2c-0.5,0.2-2.2,1.7-2.2,1.7l-1.7,1.4l-1.2-1.4
	l-1.4-3.1l-2.3-2.6l-0.9-1.2l-2.2-1.2l-1.6-0.6l-1.3-0.3l-1.7,0l-0.3-1.3l-0.3,0l-0.5,1.6L23,425l-0.6-0.6l-0.9,0.3l-0.2,0.6
	l-0.8-0.3l-0.1,0.4l0.3,1.2l0,1.2c0,0-0.8,1.5-0.9,1.9c-0.1,0.4-0.1,1.3-0.3,1.7c-0.2,0.3-1.8,3.2-1.8,3.2s-0.5,1.2-0.1,1.8
	c0.3,0.6,0.6,1,1,1c0.2,0,0.4-0.3,0.6-0.4c0.1-0.1,0.4-0.4,0.6-0.4c0.2,0.1-0.1,0.6,0,0.8c0.1,0.1,0.3,0.4,0.5,0.4
	c0.3,0.1,0.7-0.2,1.1-0.5c0.4-0.3,1.7-1.9,1.8-2.2c0.1-0.2,1.2-1.6,1.5-1.6c0.4,0,0.6,0,0.8,0.1c0.2,0.1,0.5,0.4,0.6,0.5
	c0.4,1.1-0.3,4.1-0.1,4.6c0.2,0.6,0.4,2.4,0.4,2.7c0,0.4-0.5,2.8-0.6,3.1c-0.1,0.4-0.2,1.6,0,2.3c0.2,0.6,0.9,2.3,0.8,2.5
	c-0.1,0.2-2,2-2,2s-2.4,1.7-3,1.9c-0.5,0.1-1.1,0.4-1.3,0.8c-0.2,0.4-0.6,1.1-0.8,1.2c-0.1,0.1-0.3,0.5-0.3,1s-0.4,2.3-0.6,2.8
	c-0.3,0.5-0.9,2.1-0.8,2.5c0.2,0.4,0.4,0.7,0.3,1c0,0.2,0.3,2,0.3,2s0.4,1.9,0.5,2c0.2,0,1.9-2.1,1.9-2.1s0-0.9,0-1
	c0-0.1-0.5-0.5-0.5-0.5l-0.5-0.1v-0.4l0.3-0.2l0.6-5.2l1.5-1.3c0,0,4.4-1.1,5-1.4c0.6-0.3,1.4-0.6,1.5-0.5c0.2,0,1.6,0.1,1.7-0.1
	c0.1-0.2,0.9-0.5,0.9-0.5l0.6,1.2l0.7,0.5c0,0,3,7,3.3,7.3c0.3,0.3,1.1,3,1,3.3c-0.1,0.4-0.3,3.3-0.3,3.3l-0.6,0.4l-0.2,0.6
	l-9.6,0.5l-0.4,1.5l-0.3,0.2h-2.5v0.3l0.6,0.7v0.4h0.5l0.4,0.4L0,482.6v0.5V512h1024V431.1z M40.5,436c0,0,1.1-0.5,0.9-1.4
	c0,0,1-0.6,1.2-0.5c0.1,0.1,0,1.3,0,1.3l-0.7,1.4l-0.9,0.2l-0.7-0.3l-0.5-0.5L40.5,436z M38.3,434.8c0,0,0.4-0.2,0.5-0.1
	c0.1,0.1-0.4,0.9-0.4,0.9l-0.9-0.2L38.3,434.8z M36.9,455.2c0,0,0.6-0.2,0.7-0.2c0.2,0,0.4-1.8,0.4-1.8s0.9,0,1,0
	c0.1,0,0,1.8-0.3,2.5c-0.3,0.7-1.7,1.1-1.7,1.1C36.7,456.1,36.9,455.2,36.9,455.2z M63.8,464.7l-0.8,0.8v2.8l0.5,0.5l-25.2,0.9
	c0,0-0.1-1.1-0.1-1.3c0.1-0.2,0.7-0.4,0.9-0.6s0.1-1.6,0-1.9c-0.1-0.2-0.7-1.3-0.8-1.7c-0.1-0.4-0.7-2.5-0.6-2.9
	c0.1-0.4-0.2-2.7-0.2-2.7l1.5,0l0.3,0.3l1,0.3l0.8-0.9l-0.2-0.5c0,0,1.4-4.3,1.6-4.5c0.3-0.2,3.5-0.1,4.2,0.1
	c0.8,0.1,3.3-1.3,3.6-1.5c0.4-0.2,2.8,0,2.8,0s0.9,2.2,0.9,2.7c0,0.5,0.7,1.7,0.9,1.8c0.1,0.1,0.2,2.2,0.2,2.6
	c0,0.4-4.2,3.6-4.7,3.9c-0.4,0.2-0.8,0.6-0.8,0.9c0,0.4-0.5,1.3-0.6,1.6c-0.2,0.3-0.3,1.6-0.3,1.8c0,0.2-0.3,1.1-0.3,1.3
	c0.1,0.2,2.3-1,2.3-1s0.6-1.1,0.5-1.4c-0.1-0.3-0.6-0.7-0.6-0.8c-0.1-0.1,0.4-0.1,0.5,0c0.1,0.1,0.5-0.2,0.6-0.3
	c0-0.1,2.2-2.4,2.4-2.6c0.2-0.2,3.4-1.9,4.1-2.3c0.7-0.4,0.8-1.1,0.8-1.2c0-0.2-0.4-0.9-0.6-1.2c-0.2-0.3-0.2-2.3-0.2-3.1
	c0-0.8,1.4-1.6,1.4-1.6s0.4,0.4,0.6,0.6c0.1,0.3,1.9,1.4,2,1.5c0.1,0.1,1.7,1.2,1.7,1.5c0.1,0.3,1.5,1.8,1.7,1.9
	c0.1,0.1,0.6,1.9,1.1,3.3L63.8,464.7z M155.8,286.8h-2.3h-2.3v-11.2h0.8l0.1-0.6l-0.4,0v-0.7l0.8,0.2l0.3,0.3l-0.7,1.5v0.7h1.4h1.4
	v-0.7l-0.7-1.5l0.4-0.3l0.8-0.2v0.7l-0.4,0l0.1,0.6h0.7V286.8z"/>
</svg>
