<?xml version="1.0" encoding="utf-8"?>
<!-- Generator: Adobe Illustrator 19.2.1, SVG Export Plug-In . SVG Version: 6.00 Build 0)  -->
<svg version="1.1" id="Ebene_1" xmlns="http://www.w3.org/2000/svg" xmlns:xlink="http://www.w3.org/1999/xlink" x="0px" y="0px"
	 viewBox="0 0 1024 512" enable-background="new 0 0 1024 512" xml:space="preserve">
<path fill="#1D1D1D" d="M1024,449.8h-0.3l-0.6-1h-8.4v-0.5h-0.5V448h-1v-0.4h-18.5v-5.4l-0.2-0.4l-0.2,0.4v0.5
	c-0.4,0.4-1,1.1-1.2,1.6c-0.2,0.7-1.3,2.1-1.5,2.2c-0.2,0.1,0.1,0.4,0.1,0.4s0.5-0.4,1.2-0.5c0.7-0.1,0.9,0.1,1-0.3
	c0.1-0.2,0.3-0.6,0.5-0.8v2.3h-18.5v0.4h-1v0.4h-0.5v0.5h-8.4l-0.6,1h-0.4v1.7l-0.3,0.5v1.9h-3.8v0.6h0.5v0.7l0.5,0.4v0.6l2.2,1.7
	v0.8h0.9v1.4l0.1,0.4v0.6l0.1,0.1v4.7h-0.3v0.9h0.3v1.7h-0.2v8.3h-0.6v5.9h-1v2h-0.6v-11.9l-2.7-2.7v-29l-1.1-1.2h-3.2v-1l-2.4-1.1
	v-2.1l0.8-0.5l-0.1-0.7l0.3-0.6v-0.7l-3.1-1.8v-0.8l-0.8-0.4v-3.1l-0.2-0.3v-4.1l0.7-2.5H950l-0.2-0.7h0.7l0-0.7l0.6-0.8v-1.5
	l-1.1-1.6v-0.7l-2-1.9v-0.6l-0.9-0.4v-1.7l-0.9-1.3l-4.7-1.6v-1.3l-0.9-0.7l-5.7-1.8l-1.1-1.6l-1.2-0.6l-0.8,0.6h-0.2v-0.8l-0.7-0.3
	l-0.4,0.7l-1.1-0.8c-3.3-1.8-6.5-2.2-6.5-2.2l0-0.3l0.9-0.8v-1.2l-0.6-1.7v-0.4h-0.5l-1.7-2.5l0.4-0.3v-0.4l-0.4-0.3l-1,0.7
	l-4.8-1.6l-0.2-0.5l-0.5-0.7l0.2-0.5l0.6-0.6v-0.5l-1.3-1.1h-1.4v-0.5l-0.6-0.5V384l-0.7-0.3v-1.3c0,0-0.3-0.5-0.4-0.6
	c0-0.1,0-2.6,0-2.6l0.4-0.2v-0.5l-1.1-0.5v-1.7l-0.2-0.4v-3.4l-0.4-0.4l-0.4,0.4v3.4l-0.2,0.4v1.7l-1.1,0.5v0.5l0.4,0.2
	c0,0,0,2.5,0,2.6c0,0.1-0.4,0.6-0.4,0.6v1.3l-0.7,0.3v0.5l-0.7,0.5v0.5h-1.4l-1.3,1.1v0.5l0.6,0.6l0.2,0.5l-0.5,0.7l-0.2,0.5
	l-4.8,1.6l-1-0.7l-0.4,0.3v0.4l0.4,0.3l-1.7,2.5h-0.5v0.4l-0.6,1.7v1.2l0.9,0.8l-0.1,0.3c0,0-3.2,0.4-6.5,2.2l-1.1,0.8l-0.4-0.7
	l-0.7,0.3v0.8h-0.2l-0.7-0.6l-1.3,0.6l-1.1,1.6l-5.7,1.8l-0.9,0.7v1.3l-4.7,1.6l-0.9,1.3v1.7l-0.9,0.4v0.6l-2,1.9v0.7l-1.1,1.6v1.5
	l0.7,0.8l0,0.7h0.6l-0.1,0.7h-0.5l0.6,2.5v4.1l-0.2,0.3v3.1l-0.8,0.4v0.8l-3.1,1.8v0.7l0.3,0.6l0,0.7l0.8,0.5v2.1l-2.4,1.1v1h-0.3
	v-1.5h-4.7V437h-26.1v-60.2l1.5-1.4v-1.5h-1.3V371l-0.9-0.5v-1.7h-1.1v1.6h-1.1v-20.5h-0.4v9.9h-1v10.6h-2.5V354h-0.9l-0.5-1.4h-1.7
	l-0.9,0.9h-1.9v-3.7h-0.8v3.7h-2.2V346h-0.8v7.6H811v-18.9h-0.4v18.9H809v-4.2h-0.5v4.2h-4l-1.8-0.7h-1.8l-3.1,4.3v3l-1.5,2.2h-2.1
	v1.4l-1.4,1.4v7h-9.7l-1.7-1.8h-4.6v0.9h-21.5v-9l1-1.3v-1.5h-0.9v-26.3l0.9-2.6v-1.9h-2.2v-4.4h0.7v-1h-1.3l-29.7-3.2l-0.6-3.5h0.6
	v-1.8h-2v-1.5l-1.2-0.9v-1.4H720v-8l0.7-2.2v-2.8l-0.7-0.9v-1.3l0.7-0.4v-1.8l-2.8-1.4v-3.3l-0.9-1.1v-23.5l1-1.7l0.1-1l-0.7-0.5
	l0.3-0.5l-0.1-0.5l0.5-0.4l0.2-1l-2-1l-0.3-0.9l-1.3-0.5l-0.2-1.3l1.5-3.5l-0.8-0.6v-3.2l-2.5-1.1v-11.7l-0.2-1v-11.5l-1.2-0.8
	l-1.2,0.8v11.5l-0.2,1v11.7l-2.5,1.1v3.2l-0.8,0.6l1.5,3.5l-0.2,1.3l-1.3,0.5l-0.3,0.9l-2,1l0.3,1l0.5,0.4l0,0.5l0.3,0.5l-0.6,0.5
	l0,1l1,1.7v23.5l-0.9,1.1v3.3l-2.8,1.4v1.8l0.7,0.4v1.3l-0.7,0.9v2.8l0.7,2.2v8h-0.7v1.4l-1.2,0.9v1.5h-2v1.8h0.6l-0.6,3.5
	l-29.7,3.2h-1.3v1h0.7v4.4h-2.2v1.9l0.9,2.6v26.3h-0.9v1.5l1,1.3v9h-21.5v-0.9h-4.6l-1.7,1.8h-9.7v-7l-1.4-1.4v-1.4h-2l-1.5-2.2v-3
	l-3.1-4.3h-1.8l-1.8,0.7h-4v-4.2H614v4.2h-1.7v-18.9H612v18.9h-4.7V346h-0.8v7.6h-2.2v-3.7h-0.8v3.7h-1.9l-0.9-0.9H599l-0.5,1.4
	h-0.9v16.3h-2.5v-10.6h-1v-9.9h-0.5v20.5h-1.1v-1.6h-1.1v1.7l-0.9,0.5v2.9h-1.3v1.5l1.5,1.4v59.4l-0.5-0.5h-1c0,0,0.4-2,0-2
	c-0.4,0-0.9,0-0.9,0s0.6,1.9,0,1.9c-0.7,0-16.4,0-16.4,0v-5.1h-3.4v0.8h-1v-18.2H567v18.3h-1.3v1.4h-9.3v-2.9l-2.1-1.4h-1.3v3.2h-1
	l-0.7,1.3h-6.3v-20.4H544v20h-1.1v-2.1l-1.3,0.5v1.8H534v-2.3h-6.1v1.2H525v-1.2h-1.1v-2.7l-0.8-1.2h-0.9l-1.1,1v-1.4h0.5v-1.1h-0.7
	v-5.7l-0.6-0.4h-1.4l-3.1-5.7v-3h0.4v-0.8h-2.4c0,0-1.2-2-1.3-2c-0.1,0-1.3,0-1.3,0v-12h0.8v-0.7l-19.3-4h-6v0.5l0.4,0.4v8.3h-1.5
	v-1.7h-0.8v1.7h-1.1v1.6h-14.9v-3.4l0.9-0.8v-1.4h-9.8v0.6l0.6,0.6v4h-16.1l-10,2.5v-5.5l1.2-0.8v-1.3h-8.5v-1.2h-0.9v1h-1.2v1.1
	l1.3,1.5v2.8h-8.9l-1-1.5h-1.8l-13.7,3.8v1.4l-1.2,0.4l-1.9-6.3l1.1-1.7v-0.7l-14.3-2.7l-13.7,2.3v0.9l0.9,0.6v2.8l-10.6-0.9v-5
	h-0.9v3.6h-2.7v-3.2h-5.5v-3.6h-0.9v3.6h-1.2v-4.5h-0.8v4.5h-1.3v-1.1h-2v1.2h-1.8v-1.6h-1.8l-0.1-2.4l1.2-2.1h3.7V388l-2.8-2.7
	v-6.2h-1.5v3.2l-7-14.1v-2.8h-1.1l-1.7-2.5l0.8-1.1v-1h-0.3v-1.8l-0.7-0.3l0.1-1.2h-0.6l-0.2-3.2l2.3-0.3l0.3-1.3l-2.1-2.3l-4.6-8.6
	v-1.2l-1.1-1.5l-0.1-1.3l0.6-0.8v-0.6l-0.8-1.6l-0.1-1.1l0.3-1l-0.2-0.6l-0.4-12.1l0.4-0.4v-0.6l-0.4-0.4l-0.1-1.1l-0.2-0.5
	l-0.2,0.5l-0.1,1.1l-0.4,0.4v0.6l0.4,0.4l-0.4,12.1l-0.2,0.6l0.3,1l-0.1,1.1l-0.8,1.6v0.6l0.6,0.8l-0.1,1.3l-1.1,1.5v1.2l-4.5,8.6
	l-2.1,2.3l0.3,1.3l2.2,0.3l-0.2,3.2h-0.6l0.1,1.2l-0.7,0.3v1.8h-0.3v1l0.8,1.1l-1.7,2.5h-1.1v2.8l-7,14.1v-3.2h-1.5v6.2l-2.8,2.7
	v1.4h3.7l1.2,2.1l-0.1,4.8h-5.4v-4.7h-2.7v-3.2h-2v7.8h-7v-16.7h-1.3v16.7h-6.3v-11h-1.3v11h-0.8v-1.9h-2.7c0,0,0.4,2.3,0,2.3
	c-0.4,0-7.1,0-7.1,0V394c0,0-2.2-3.9-2.5-3.9c-0.3,0-5.7-0.6-5.7,0c0,0.7,0,3.6,0,3.6h-2.6v1.1h-2.2v-1.1h-2v1.2h-1.6V394h-1.1v2
	h-1.9v-2c0,0-1.1-0.4-1.1,0c0,0.4,0,2.8,0,2.8s-0.9-0.3-0.9,0c0,0.3,0,1.3,0,1.3h0.5v1.7H251l-11.7,10.3l0.6,1.3v1.4l-1.2,3.9h-0.9
	v1.9l-3.1,7.9v1.3h1.7v1.7l-0.6,1.5v3.6l-0.8,0.8l-3.6,1.4v-4.4h0.9c0,0,0.3-1.1,0-1.1c-0.3,0-3.9-1-3.9-1v-0.8h0.7v-0.7h-16.7
	c-2.2-1.1-4.3-1.5-4.3-1.5V427l-0.8-0.2V426l-1.4-0.3v-1.1l0.5-0.3v-0.4l1.2-0.9v-0.6l-2.8-0.4v-0.4l-2.1-0.9v-0.6
	c0,0,0.8-0.5,1-2.1c0.3-1.6-2.3-2.6-2.3-2.6v-0.7l-0.5-0.5v-1.9l0.4-0.4v-1.6l-0.8-1.2l-0.8,1.2v1.6l0.4,0.4v1.9l-0.5,0.5v0.7
	c0,0-2.5,1-2.3,2.6c0.3,1.6,1,2.1,1,2.1v0.6l-2.1,0.9v0.4l-2.8,0.4v0.6l1.3,0.9v0.4l0.5,0.3v1.1l-1.4,0.3v0.8l-0.8,0.2v0.4
	c0,0-6.3,1.3-8.5,5.3c-2.2,4-1.4,5-1.4,5v2.1h-1.9v-1.7H180l-0.7-1.4l-0.4,0.5v4.1h-0.7v1.6l1.4,0.8v0.9l1.3,0.8v6.4h-8.4v-0.8
	l-1-0.3v-1.4h-1.7v1.4l-1.2,1h-4.9l-1.4-1.6h-1.1v0.5l-1-0.5V448h-0.6v2.1h-1v-0.9h-1v-0.6l-1.2-1.1v-1.1l-1.8-1.8v-0.8l-4.1-2.4
	h-5.4l-0.9-0.6v-1.2h0.5v-0.8h-3.7v-3.1l-1.5-1.3v-0.5h0.3v-1.5l-0.8-0.2v-1.1l1.4-1.1V428l-1.9-1.4v-1.2h0.5v-1.6h-0.6v-2.4
	l-0.7-0.8h-0.7l-0.7,0.8v2.4h-0.6v1.6h0.4v1.3l-1,0.2v0.8H134l-2.2-3.3c0,0-0.6-6.9-3.2-11.2c-2.6-4.3-8.6-7.5-8.6-7.5s0-0.9,0-1.2
	c0-0.2-0.5,0-0.5,0v0.6h-1.5V403l0.3-0.4V402l-0.3-0.3v-3l-1.1-0.6V397h0.3v-0.9h-0.4c0,0,0-1.3,0-1.5s-0.5,0-0.5,0v1l-2.9-2.3
	l-0.8-0.2v-1.8L112,391v-0.9l-0.3-0.2v-5.2l-0.4-0.7l-0.4,0.7v5.2l-0.3,0.2v0.9l-0.4,0.2v1.8l-0.8,0.2l-3,2.3v-1c0,0-0.5-0.2-0.5,0
	s0,1.5,0,1.5h-0.4v0.9h0.3v1.2l-1.1,0.6v3l-0.3,0.3v0.6l0.3,0.4v2.2h-1.6v-0.6c0,0-0.5-0.2-0.5,0c0,0.3,0,1.2,0,1.2s-6,3.2-8.6,7.5
	c-2.6,4.4-3.2,11.2-3.2,11.2l-2.3,3.3h-1.2V427l-1-0.2v-1.3h0.4v-1.6h-0.6v-2.4l-0.7-0.8h-0.7l-0.6,0.8v2.4h-0.6v1.6h0.5v1.2L82,428
	v1.9l1.5,1.1v1.1l-0.8,0.2v1.5H83v0.5l-1.5,1.3v3.1h-3.7v0.8h0.5v1.2l-0.8,0.6H72l-4.1,2.4v0.8l-1.8,1.8v1.1l-1.1,1.1v0.6H64v0.9h-1
	V448h-0.6v2.1l-1,0.5V450h-1.1l-1.4,1.6H54l-1.2-1v-1.4h-1.7v1.4l-1,0.3v0.8h-8.4v-6.4l1.3-0.8v-0.9l1.4-0.8v-1.6h-0.7v-4.1
	l-0.4-0.5l-0.7,1.4h-0.8v1.7h-1.9v-2.1c0,0,0.7-1.1-1.4-5c-2.2-4-8.5-5.3-8.5-5.3V427l-0.8-0.2V426l-1.4-0.3v-1.1l0.5-0.3v-0.4
	l1.2-0.9v-0.6l-2.8-0.4v-0.4l-2.1-0.9v-0.6c0,0,0.7-0.5,1-2.1c0.2-1.6-2.3-2.6-2.3-2.6v-0.7l-0.5-0.5v-1.9l0.4-0.4v-1.6l-0.8-1.2
	l-0.8,1.2v1.6l0.4,0.4v1.9l-0.5,0.5v0.7c0,0-2.5,1-2.3,2.6c0.3,1.6,1,2.1,1,2.1v0.6l-2.2,0.9v0.4l-2.8,0.4v0.6l1.2,0.9v0.4l0.5,0.3
	v1.1l-1.4,0.3v0.8l-0.8,0.2v0.4c0,0-6.4,1.3-8.5,5.3c-2.2,4-1.4,5-1.4,5v2.1H2.8v-1.7H2l-0.7-1.4l-0.5,0.5v4.1H0V512h983.4v-3.8
	l-0.3-0.5v-9.1h0.5v-3h0.3v-3.3l-0.6-0.8v-6.8c0,0-0.7-10.6,11.2-10.6c11.9,0,11.2,10.6,11.2,10.6v6.8l-0.6,0.8v3.3h0.3v3h0.5v9.1
	l-0.4,0.5v3.8h18.6V449.8z M679.6,359.5h-6.5v-26h6.5V359.5z M749.9,359.5h-6.5v-26h6.5V359.5z"/>
</svg>
