<?xml version="1.0" encoding="utf-8"?>
<!-- Generator: Adobe Illustrator 19.2.1, SVG Export Plug-In . SVG Version: 6.00 Build 0)  -->
<svg version="1.1" id="Ebene_1" xmlns="http://www.w3.org/2000/svg" xmlns:xlink="http://www.w3.org/1999/xlink" x="0px" y="0px"
	 viewBox="0 0 1024 512" enable-background="new 0 0 1024 512" xml:space="preserve">
<path fill="#1D1D1D" d="M1016.5,459.4v-9.2h-0.7v-1.6v-5.4h0.4v-2.1h-0.4v-6.8l-0.5-0.7v-2.4l-0.7-0.8V418l1.2-1.9v-0.6h0.4l0.3-0.6
	v-0.5l-0.3-0.2v-2h0.2v-0.7h-0.2v-0.9l-0.2-0.3v-1.1h-0.3v1.1l-0.2,0.2v0.5l-1.2-0.3V410h0.2v-1h-0.3v-5.2l0.3-0.8v-0.7h-0.3v-3.4
	l-0.5-2.1h-0.2v-0.7l-0.6-3.3h-0.3l-0.4,2.9h-0.3v-0.5l0.2-0.3v-0.5h-0.3v-2.1l0.7-0.6v-0.4l0.6-0.7v-0.7l-0.3-0.7v-2.1h0.2v-0.6
	h-0.2V385l-0.2-0.8h-0.3l-0.2,0.7v1.2l-1.7-0.6v-2h0.2V383l-0.5-1.7v-4h0.2v-0.8h-0.3v-1.2l-0.2-2.3l-0.4-0.5v-1l-0.5-0.4v0.4
	l-0.8-0.8v-0.8l-0.2-0.4v-2.8l0.3-0.3v-1.2l-0.6-1.3v-1.5h-0.2v0.5l-0.8-0.8v-1.3l0.4-0.4v-0.4l-0.3-0.4v-1l-0.8-1v-0.4l-0.3-0.6
	v-0.6l0.3-0.2v-0.4l-0.4-0.5V350l-0.3-0.4l-0.3,0.4v5.1l-0.4,0.5v0.4l0.3,0.2v0.6l-0.3,0.6v0.4l-0.7,1v1l-0.3,0.4v0.4l0.3,0.4v1.3
	l-0.8,0.8v-0.5h-0.2v1.5l-0.6,1.3v1.2l0.3,0.3v2.8l-0.2,0.4v0.8l-0.8,0.8v-0.4l-0.5,0.4v1l-0.4,0.5l-0.2,2.3v1.2h-0.3v0.8h0.2v4
	l-0.4,1.7v0.6h0.2v2l-1.7,0.6v-1.2l-0.2-0.7H998l-0.2,0.8v1.6h-0.2v0.6h0.1v2.1l-0.3,0.7v0.7l0.6,0.7v0.4l0.7,0.6v2.1h-0.3v0.5
	l0.2,0.3v0.5h-0.3l-0.3-2.9h-0.3l-0.6,3.3v0.7h-0.2l-0.5,2.1v3.4H996v0.7l0.3,0.8v5.2H996v1h0.2v0.6l-1.2,0.3v-0.5l-0.2-0.2v-1.1
	h-0.3v1.1l-0.3,0.3v0.9H994v0l-9.6-15.2v-0.7h0.4v-0.7h-0.7v-7.4l-0.7-1.1v5.9h-1.6V391H981v1.3h-16.7l0.6-0.5v-0.4l0.6-0.7v-0.7
	l-0.3-0.7v-2.1h0.2v-0.6h-0.2V385l-0.2-0.8h-0.3l-0.2,0.7v1.2l-1.7-0.6v-2h0.2V383l-0.5-1.7v-4h0.2v-0.8h-0.3v-1.2l-0.2-2.3
	l-0.4-0.5v-1l-0.5-0.4v0.4l-0.8-0.8v-0.8l-0.2-0.4v-2.8l0.3-0.3v-1.2l-0.6-1.3v-1.5h-0.2v0.5l-0.8-0.8v-1.3l0.4-0.4v-0.4l-0.3-0.4
	v-1l-0.7-1v-0.4l-0.3-0.6v-0.6l0.3-0.2v-0.4l-0.4-0.5V350l-0.2-0.4l-0.2,0.4v5.1l-0.4,0.5v0.4l0.3,0.2v0.6l-0.3,0.6v0.4l-0.7,1v1
	l-0.3,0.4v0.4l0.4,0.4v1.3l-0.8,0.8v-0.5h-0.2v1.5l-0.6,1.3v1.2l0.3,0.3v2.8l-0.2,0.4v0.8l-0.8,0.8v-0.4l-0.5,0.4v1l-0.4,0.5
	l-0.2,2.3v1.2h-0.2v0.8h0.2v4l-0.5,1.7v0.6h0.3v2l-1.7,0.6v-1.2l-0.2-0.7h-0.2l-0.2,0.8v1.6h-0.2v0.6h0.2v2.1l-0.3,0.7v0.7l0.6,0.7
	v0.4l0.6,0.5h-34v-16.2h0.6v-1.3h-0.5v-3.2h0.5V370h-0.6v-4.3l0.6-1.9v-1.3l-0.6-0.6v-8.3h0.4v-0.9h-0.4l-0.8-9.3l-0.8-0.9v-1
	l0.8-1.4v-1.2l-1-1.1v-2h0.3v-1.1h-0.4v-5.8l0.4-1.2v-1.3h-0.4v-4.7l-0.6-0.7v0.7h-0.7v-4.5l-1.7-3.8v-0.6l0.3-0.4v-0.7l-0.5-0.7
	l-0.6-13.8h-0.5l-0.7,6.3l-1.1-0.9v-9.3l0.4-0.6v-0.8l-0.9-0.3v-6.5h-0.9v0.8l-1.3-1.5v-8.8l-1.6-1.8v-3.6L904,268v-1.3l-0.4-0.7
	v-0.9l-0.4-0.5v-2.2l0.4-0.7v-1.2l0.5-0.7v-0.8l-0.8-0.9v-0.8l-0.3-0.2v-3.5l-0.3-0.3l-0.3,0.3v3.5l-0.3,0.2v0.8l-0.8,0.9v0.8
	l0.5,0.7v1.2l0.3,0.7v2.2l-0.4,0.5v0.9l-0.4,0.7v1.3l-0.7,2.2v3.6l-1.6,1.8v8.8l-1.3,1.5v-0.8h-0.9v6.5l-0.9,0.3v0.8l0.4,0.6v9.3
	l-1.1,0.9l-0.7-6.3h-0.5l-0.6,13.8l-0.5,0.7v0.7l0.3,0.4v0.6l-1.7,3.8v4.5h-0.7v-0.7l-0.7,0.7v4.7h-0.4v1.3l0.4,1.2v5.8h-0.4v1.1
	h0.3v2l-1,1.1v1.2l0.8,1.4v1l-0.8,0.9l-0.8,9.3h-0.4v0.9h0.4v8.3l-0.7,0.6v1.3l0.6,1.9v4.3h-0.6v1.6h0.5v3.2h-0.5v1.3h0.6v16.2h-34
	l0.6-0.5v-0.4l0.6-0.7v-0.7l-0.3-0.7v-2.1h0.2v-0.6h-0.2V385l-0.2-0.8h-0.2l-0.2,0.7v1.2l-1.7-0.6v-2h0.3V383l-0.5-1.7v-4h0.2v-0.8
	h-0.3v-1.2l-0.2-2.3l-0.4-0.5v-1l-0.5-0.4v0.4l-0.8-0.8v-0.8l-0.2-0.4v-2.8l0.3-0.3v-1.2l-0.6-1.3v-1.5h-0.2v0.5l-0.8-0.8v-1.3
	l0.4-0.4v-0.4l-0.3-0.4v-1l-0.7-1v-0.4l-0.3-0.6v-0.6l0.3-0.2v-0.4l-0.4-0.5V350l-0.2-0.4l-0.2,0.4v5.1l-0.4,0.5v0.4l0.3,0.2v0.6
	l-0.3,0.6v0.4l-0.7,1v1l-0.3,0.4v0.4l0.3,0.4v1.3l-0.8,0.8v-0.5h-0.2v1.5l-0.6,1.3v1.2l0.3,0.3v2.8l-0.2,0.4v0.8l-0.8,0.8v-0.4
	l-0.5,0.4v1l-0.4,0.5l-0.2,2.3v1.2h-0.3v0.8h0.2v4l-0.5,1.7v0.6h0.3v2l-1.7,0.6v-1.2l-0.2-0.7h-0.3l-0.2,0.8v1.6h-0.2v0.6h0.2v2.1
	l-0.3,0.7v0.7l0.6,0.7v0.4l0.6,0.5h-16.7V391h-0.7v1.3h-1.6v-5.9l-0.7,1.1v7.4h-0.7v0.7h0.4v0.7l-9.6,15.2v0H811v-0.9l-0.2-0.3v-1.1
	h-0.3v1.1l-0.2,0.2v0.5l-1.2-0.3V410h0.2v-1h-0.3v-5.2l0.3-0.8v-0.7h-0.3v-3.4l-0.4-2.1h-0.2v-0.7l-0.6-3.3h-0.3l-0.3,2.9h-0.3v-0.5
	l0.2-0.3v-0.5h-0.3v-2.1l0.7-0.6v-0.4l0.6-0.7v-0.7l-0.3-0.7v-2.1h0.1v-0.6h-0.2V385l-0.2-0.8h-0.2l-0.2,0.7v1.2l-1.8-0.6v-2h0.3
	V383l-0.5-1.7v-4h0.2v-0.8h-0.3v-1.2l-0.2-2.3l-0.4-0.5v-1l-0.5-0.4v0.4l-0.8-0.8v-0.8l-0.2-0.4v-2.8l0.3-0.3v-1.2l-0.6-1.3v-1.5
	h-0.2v0.5l-0.8-0.8v-1.3l0.4-0.4v-0.4l-0.3-0.4v-1l-0.8-1v-0.4l-0.3-0.6v-0.6l0.3-0.2v-0.4l-0.4-0.5V350l-0.3-0.4l-0.2,0.4v5.1
	l-0.4,0.5v0.4l0.3,0.2v0.6l-0.3,0.6v0.4l-0.7,1v1l-0.3,0.4v0.4l0.3,0.4v1.3l-0.8,0.8v-0.5h-0.2v1.5l-0.6,1.3v1.2l0.3,0.3v2.8
	l-0.2,0.4v0.8l-0.8,0.8v-0.4l-0.5,0.4v1l-0.4,0.5l-0.2,2.3v1.2h-0.2v0.8h0.2v4l-0.5,1.7v0.6h0.3v2l-1.8,0.6v-1.2l-0.2-0.7h-0.2
	l-0.2,0.8v1.6h-0.2v0.6h0.2v2.1l-0.3,0.7v0.7l0.6,0.7v0.4l0.7,0.6v2.1h-0.3v0.5l0.2,0.3v0.5h-0.3l-0.3-2.9h-0.3l-0.6,3.3v0.7h-0.2
	l-0.2,1.1H789v2.2h-7.9l-2,2h-4.3v-3.4h-2.3l-3-69.7L768,327l-2-32.4h-1.8l-2.2-48.4l-1.9-5.1h-1.7l-1.1,2.9l-2.1-6.4V233l-3-2
	l-0.3-5h1.4v-1h-1.5l-0.3-4.2h1.4v-1.1h-1.5l-0.3-4.2h1.5v-1H751l-0.3-4.2h1.5v-1h-1.5l-0.3-4.2h1.5v-1h-1.5l-0.3-4.2h1.5v-1H750
	l-0.3-4.2h1.5v-1h-1.5l-0.3-4.2h1.5V188h-1.6l-0.3-4.2h1.5v-1H749l-0.3-4.2h1.5v-1h-1.6l-0.3-4.2h1.5v-1h-1.6l-0.3-4.2h1.5v-1H748
	l-0.3-4.2h1.5v-1h-1.6l-0.3-4.2h1.5v-1h-1.6l-0.3-4.2h1.5V151H747l-0.3-4.2h1.5v-1h-1.6l-0.3-4.2h1.5v-1h-1.6l-0.9-14.4l1.2-1v-2
	h-1.5l-0.3-4.2l1.9-1.2v-0.9l2.1-0.7V114l-3.1-1.4v-2l-0.9-1.5v-5.3l-0.8-1.3v-1l1.2-1.3V99l-0.8-1v-1.2l-1.6-1.8l-1.6,1.8V98
	l-0.8,1v1.2l1.2,1.3v1l-0.8,1.3v5.3l-0.9,1.5v2l-3.1,1.4v2.1l2.1,0.7v0.9l1.9,1.2l-0.3,4.2h-1.5v2l1.2,1l-0.9,14.4h-1.6v1h1.5
	l-0.3,4.2h-1.6v1h1.5l-0.3,4.2h-1.6v1.1h1.5l-0.3,4.2h-1.6v1h1.5l-0.3,4.2h-1.6v1h1.5l-0.3,4.2h-1.6v1h1.5l-0.3,4.2h-1.6v1h1.5
	l-0.3,4.2h-1.6v1h1.5l-0.3,4.2h-1.6v1h1.5l-0.3,4.2h-1.6v1.1h1.5l-0.3,4.2h-1.5v1h1.5l-0.3,4.2h-1.5v1h1.5l-0.3,4.2h-1.5v1h1.5
	l-0.3,4.2h-1.5v1h1.5l-0.3,4.2h-1.5v1h1.5l-0.3,4.2h-1.5v1.1h1.4l-0.3,4.2h-1.5v1h1.4l-0.3,5l-3,2v4.6l-2.2,6.4l-1.1-2.9h-1.7
	l-1.9,5.1l-2.3,48.4h-1.8l-2,32.4l-1.6,2.2l-1.5,35.4h-14.9l-16.4-32.7l-47.8-3.5l-1.9-8.1l0.4-0.7v-4h-0.5v-2.3l-0.3-1.6v-2.4
	l-0.6-0.9l-0.6,0.9v2.4l-0.3,1.6v2.3h-0.5v4l0.4,0.7l-1.8,7.7l-17.1-1.3v-16.3h1v-2.1h-1l-1-2.5h-1.1l-0.4,2.5h-1.1v2.3h1.4
	l-1.4,18.9l-1.7,2c0,0-5.3-0.6-7.3,2.7c-2,3.2-2.4,9.4-2.4,9.4l-3.2,3.4v1.6l1.6,0.4v7.1L586.2,371h-0.9l-6.1-20.9l0.6-2.1l2.8-1.4
	v-1.1L582,345l0.3-0.9v-7.3l-0.7-1v-0.9l-2-1.1v2.4l-1.4-0.8v-1.1h-0.7l-3.2-13.8l0.4-0.7v-4h-0.5v-2.3l-0.3-1.6v-2.4l-0.6-0.9
	l-0.6,0.9v2.4l-0.3,1.6v2.3h-0.5v4l0.4,0.7l-3.2,13.8h-0.7v1.1l-1.4,0.8v-2.4l-2,1.1v0.9l-0.7,1v7.3l0.3,0.9l-0.5,0.5v1.1l2.8,1.4
	l0.6,2.1l-6.1,20.9h-2.1v1.5h0.5l-1.4,8.7h-1.1v1.9l1.2,0.9v1.3l0.8,0.7v11.3l-0.5,0.5v2.9h0.5v6.6h-12.8l-1.4-2.5h-15v-1h-2.8v-5.7
	h-1v5.2l-3.8,1.3h-55.3l-0.6,0v-3l1-1.4v-1.6h-0.7l-1.3-1.2v-3.5l0.7-0.7v-1.1l-1.7-0.6v-0.9c0,0,1-0.6,1.6-2
	c0.6-1.3-0.4-2.5-0.4-2.5l-1.9-1.6V382l-0.5-1.6v-4.1l0.8-0.9v-1.6l-0.9-1.5v-1.3l-1-0.8v-3l-0.8-1v-5.2l-0.6-1.3v-2.8l0.6-1v-1.1
	l-0.9-0.9v-1l-0.3-0.5l-0.3,0.5v1l-0.9,0.9v1.1l0.6,1v2.8l-0.6,1.3v5.2l-0.8,1v3l-1.1,0.8v1.3l-0.9,1.5v1.6l0.8,0.9v4.1l-0.5,1.6
	v2.8l-1.9,1.6c0,0-1,1.1-0.5,2.5c0.6,1.3,1.6,2,1.6,2v0.9l-1.7,0.6v1.1l0.7,0.7v3.5l-1.4,1.2h-0.7v1.6l1,1.4v2.6l-4.3-0.1v-2.5
	l1-1.4v-1.6h-0.7l-1.4-1.2v-3.5l0.7-0.7v-1.1l-1.7-0.6v-0.9c0,0,1-0.6,1.6-2c0.6-1.3-0.4-2.5-0.4-2.5l-1.9-1.6V382l-0.5-1.6v-4.1
	l0.9-0.9v-1.6l-0.9-1.5v-1.3l-1.1-0.8v-3l-0.8-1v-5.2l-0.6-1.3v-2.8l0.6-1v-1.1l-0.9-0.9v-1l-0.3-0.5l-0.3,0.5v1l-0.9,0.9v1.1l0.6,1
	v2.8l-0.6,1.3v5.2l-0.8,1v3l-1.1,0.8v1.3l-0.9,1.5v1.6l0.8,0.9v4.1l-0.5,1.6v2.8l-1.9,1.6c0,0-1,1.1-0.4,2.5c0.6,1.3,1.6,2,1.6,2
	v0.9l-1.7,0.6v1.1l0.7,0.7v3.5l-1.3,1.2h-0.7v1.6l0.9,1.4v2.1l-4.8-0.2v-8l1-1.3v-1.3h1.4v-1c0,0-5.6-3.5-6.2-6.4
	c-0.6-2.9-3.3-3.3-3.3-3.3v-2l-0.6-0.4V378c0,0,1.2,0.2,1.2-2.5c0-2.6-2-2.9-2-2.9v-5.1h2.3v-1.1h-2.3v-4.2l-0.6-0.7l-0.6,0.7v4.2
	h-2.3v1.1h2.3v5.1c0,0-2,0.3-2,2.9c0,2.6,1.2,2.5,1.2,2.5v2.2l-0.6,0.4v2c0,0-2.7,0.4-3.3,3.3c-0.6,2.8-6.2,6.4-6.2,6.4v1h1.4v1.3
	l1,1.3v7.6h-16h-1.1H394l-1.5,0.6c-0.7-3.9-1.6-7-1.6-7h-1.2v-4.2h0.7v-2.5h-2.4c0,0-2.1-4.3-9.6-13.3c-7.5-9-18.4-11.3-18.4-11.3
	V365l0.7-0.5v-0.6l0.6-1v-4.6l-0.4-0.7l-1,1.5v1.4h-1v-1.4l-0.6-1.1v-8l0.4-0.6v-1.2h-0.3V346l0.8-0.5v-0.7h0.6v-0.7l-1.5-0.5
	c0,0-1.4-4.4-3-5.8c-1.6-1.4-4.2-1.6-4.2-1.6l-0.2-0.5v-3.8c0,0,0.9-0.9,0.9-1.6c0-0.8-0.9-1.2-0.9-1.2v-7.2l-0.4-0.5l-0.4,0.5v7.2
	c0,0-0.9,0.4-0.9,1.2c0,0.8,0.9,1.6,0.9,1.6v3.8l-0.2,0.5c0,0-2.6,0.2-4.2,1.6c-1.6,1.5-3,5.8-3,5.8l-1.5,0.5v0.7h0.6v0.7l0.8,0.5
	v2.2h-0.3v1.2l0.4,0.6v8l-0.6,1.1v1.4h-1v-1.4l-1-1.5l-0.4,0.7v4.6l0.6,1v0.6l0.7,0.5v0.7c0,0-10.9,2.3-18.4,11.3
	c-7.5,9-9.6,13.3-9.6,13.3h-2.4v2.5h0.7v4.2h-1.2c0,0-1.6,5.4-2.1,10.9c-0.5,5.4-0.5,11-2.7,11.6v1.7h1.2v1.6l1.2,1v5.7h-4.6
	l-6.9,4.7h-2.6v1.8h-4l-0.7-1.5h-2l-11.6-11.1h-8.7l-0.8-83.5h0.4l0.2-0.9h1.7l0.2-0.8h0.7l1.7-0.7v-0.7h-0.6l-0.5-1.1h-1.5
	l-0.5-0.5l0.3-1.9h0.8v-5.4l-0.7-0.4v-0.7l0.3-0.6v-1l-3.1-0.3v-1.1l1-0.4v-0.7l-1.3-0.4v-1.2l0.7-0.3v-2.6l-0.9-0.5v-30.4l-0.6-0.6
	l-0.6,0.6v30.4l-0.9,0.5v2.6l0.8,0.3v1.2l-1.3,0.4v0.7l1,0.4v1.1l-3.1,0.3v1l0.3,0.6v0.7l-0.7,0.4v5.4h0.8l0.3,1.9l-0.5,0.5H259
	l-0.4,1.1H258v0.7l1.7,0.7h0.7l0.2,0.8h1.7l0.2,0.9h0.4l-0.8,83.5h-9.4v-2h-0.3v-0.8h0.3v-2.1h-0.3v-0.8h0.3v-2.1h-0.3v-0.8h0.3
	v-2.1h-0.3v-0.8h0.3v-2.1h-0.3v-0.8h0.3v-2.1h-0.3V406h0.3v-2.1h-0.3v-0.8h0.3v-2.1h-0.3v-0.8h0.3V398h-0.3v-0.8h0.3v-2.1h-0.3v-0.8
	h0.3v-2.1h-0.3v-0.8h0.3v-2.1h-0.3v-0.8h0.3v-2.1h-0.3v-0.8h0.3v-2.1h-0.3v-0.8h0.3v-2.1h-0.3v-0.8h0.3v-2.1h-0.3v-0.8h0.3v-2.1
	h-0.3v-0.8h0.3v-2.1h-0.3v-0.8h0.3v-2.1h-0.3V368h0.3v-2.1h-0.3v-0.8h0.3V363h-0.3v-0.8h0.3V360h-0.3v-0.8h0.3v-2.1h-0.3v-0.8h0.3
	v-2.1h-0.3v-0.8h0.3v-2.1h-0.3v-0.8h0.3v-2.1h-0.3v-0.8h0.3v-2.1h-0.3v-0.8h0.3v-2.1h-0.3v-0.8h0.3v-2.1h-0.3v-0.8h0.3v-2.1h-0.3
	v-0.8h0.3v-2.1h-0.3v-0.8h0.3v-2.1h-0.3V330h0.3v-2.1h-0.3v-0.8h0.3V325h-0.3v-0.8h0.3v-2.1h-0.3v-0.8h0.3v-2.1h-0.3v-0.8h0.3v-2.1
	h-0.3v-0.8h0.3v-2.1h-0.3v-0.8h0.3v-2.1h-0.3v-0.8h0.3v-2.1h-0.3v-0.8h0.3v-2.1h-0.3v-0.8h0.3v-2.1h-0.3v-0.8h0.3v-2.1h-0.3v-0.8
	h0.3v-2.1h-0.3v-0.8h0.3v-2.1h-0.3V292h0.3v-2.1h-0.3v-0.8h0.3V287h-0.3v-0.8h0.3V284h-0.3v-0.8h0.3v-2.1h-0.3v-0.8h0.3v-2.1h-0.3
	v-0.8h0.3v-2.1h-0.3v-0.8h0.3v-2.1h-0.3v-0.8h0.3v-2.1h-0.3v-0.8h0.3v-2.1h-0.3v-0.8l-0.9-0.9v-58l-0.9-0.9v-61.6h-1v44.3l-0.3,0.7
	v17.1h-0.9v-62.1h-1V188l-1,1v17.6l-1.9,3.3l-26.4,27.1h-6.3v1.9h-2.1v-1.5h-9.9V255h-7.4l-1.8,2.8v4.1h-1.3v44.8h2.1v6.4h-2.1
	v132.6h-6.8v-0.1l0.6-0.5V444h-2.5l0.5-1.1v-1.3l-3.4-2.2v-1l-0.9-0.8v-1.8l0.9-0.7v-2.4l-1.2-0.6v-0.8l0.3-0.3v-1.3l-0.8-0.7
	l-0.9,0.9v1.2l0.2,0.3v0.8l-1.2,0.6v2.3l1.2,0.9v1.7h-1l-2.4-1.8v-2.2h0.9v-1.1l0.7-0.7v-1.5h0.7V429h-2.9l-1.1-0.9h-0.9v-0.7l1-1
	v-0.9h0.8l0.6-0.6v-2.2h-6.2v-0.6l-0.7-0.4V421l-0.8-0.7v-1.2l0.8-0.6v-1l-0.5-0.5v-1l-1.2-1.2l-1.2,1.2v1l-0.5,0.5v1l0.8,0.6v1.2
	l-0.8,0.7v0.7l-0.7,0.4v0.6H155v2.2l0.6,0.6h0.9v0.9l1,1v0.7h-0.9l-1.1,0.9h-2.9v1.1h0.7v1.5l0.7,0.7v1.1h0.9v2.2l-2.4,1.8h-1v-1.7
	l1.2-0.9v-2.3l-1.2-0.6v-0.8l0.2-0.3v-1.2l-0.8-0.9l-0.8,0.7v1.3l0.3,0.3v0.8l-1.1,0.6v2.4l0.9,0.7v1.8l-0.9,0.8v1l-2,1.3l-0.7-39.7
	h0.4v-1.7l0.9-1.4h1.7l0.1-1.8h0.7v-0.6l0.9-0.5v-1.2h-0.6l-0.9-0.9v-1.6l0.8-1.3l1.3-0.2V389l-0.6-0.5h-2l-1.4,1.2l-0.4,1.3h-1.1
	v-1.2l-0.7-0.5v-6.8l0.4-0.6h0.3v-0.8l-2.4-3.9h-0.6l-0.7-2.4h-1.2v-2.1l-0.5-0.5l-0.5,0.5v2.1h-1.2l-0.7,2.4h-0.6l-2.4,3.9v0.8h0.3
	l0.4,0.6v6.8l-0.7,0.5v1.2h-1.1l-0.4-1.3l-1.4-1.2h-2l-0.6,0.5v0.6l1.3,0.2l0.8,1.3v1.6l-0.9,0.9h-0.6v1.2l0.9,0.5v0.6h0.7l0.1,1.8
	h1.7l0.9,1.4v1.7h0.4l-0.9,50.9h-2v-1h-6v-0.8h-3.4l-3.3-2.9v-11.2l1.9-1.8v-1.6l-0.7-1.3v-5.1l-0.9-0.9v-4l-1.3-1.9v-2.2h-0.9v3
	h-0.7l-1.1-1l0.7-1.5v-2.8h-0.6c0,0,0.5-3.2-3.7-11.8c-4.2-8.6-14.2-12-14.2-12v-0.7l-0.8-0.6v-4.1l0.8-0.7V381l-0.9-1v-3.8h-0.8
	v2.4l-1.2-0.8v-2.9l-1.2-1.2v-0.9L93,371v-1l0.3-0.7v-1.3l-0.7-1.4v-1.7h1.3v-1h-1.3v-1.1l-0.5-0.5l-0.5,0.5v1.1h-1.3v1h1.3v1.7
	l-0.7,1.4v1.3l0.3,0.7v1l-1.6,1.8v0.9l-1.2,1.2v2.9l-1.2,0.8v-2.4h-0.8v3.8l-0.9,1v3.7l0.8,0.7v4.1l-0.8,0.6v0.7c0,0-10,3.4-14.2,12
	c-4.2,8.6-3.7,11.8-3.7,11.8h-0.6v2.8l0.7,1.5l-1.1,1h-0.7v-3h-0.9v2.2l-1.3,1.9v4l-0.9,0.9v5.1l-0.7,1.3v1.6l1.9,1.8V447l-3.3,2.9
	h-3.4v0.8h-6v1h-2l-0.9-50.9H49v-1.7l0.9-1.4h1.7l0.1-1.8h0.7v-0.6l0.9-0.5v-1.2h-0.6l-0.9-0.9v-1.6l0.8-1.3l1.3-0.2V389l-0.6-0.5
	h-2l-1.4,1.2l-0.3,1.3h-1.1v-1.2l-0.7-0.5v-6.8l0.4-0.6h0.4v-0.8l-2.4-3.9h-0.5l-0.7-2.4h-1.2v-2.1l-0.5-0.5l-0.5,0.5v2.1h-1.2
	l-0.7,2.4h-0.6l-2.4,3.9v0.8h0.4l0.4,0.6v6.8l-0.7,0.5v1.2h-1.1l-0.4-1.3l-1.4-1.2h-2l-0.6,0.5v0.6l1.3,0.2l0.8,1.3v1.6l-0.9,0.9
	h-0.6v1.2l0.9,0.5v0.6h0.7l0.1,1.8h1.7l0.9,1.4v1.7h0.4l-0.7,39.7l-2-1.3v-1l-0.9-0.8v-1.8l0.9-0.7v-2.4L34,432v-0.8l0.3-0.3v-1.3
	l-0.8-0.7l-0.8,0.9v1.2l0.3,0.3v0.8l-1.2,0.6v2.3l1.2,0.9v1.7h-1l-2.4-1.8v-2.2h0.9v-1.1l0.7-0.7v-1.5h0.7V429H29l-1.1-0.9h-0.9
	v-0.7l1-1v-0.9h0.9l0.6-0.6v-2.2h-6.2v-0.6l-0.7-0.4V421l-0.8-0.7v-1.2l0.8-0.6v-1l-0.5-0.5v-1l-1.2-1.2l-1.2,1.2v1l-0.4,0.5v1
	l0.8,0.6v1.2l-0.8,0.7v0.7l-0.7,0.4v0.6h-6.2v2.2l0.6,0.6h0.8v0.9l1,1v0.7h-0.9l-1.2,0.9H9.9v1.1h0.7v1.5l0.7,0.7v1.1h0.9v2.2
	l-2.4,1.8h-1v-1.7l1.2-0.9v-2.3L8.9,432v-0.8l0.2-0.3v-1.2l-0.8-0.9l-0.8,0.7v1.3l0.3,0.3v0.8l-1.1,0.6v2.4l0.9,0.7v1.8l-0.9,0.8v1
	l-3.4,2.2v1.3l0.5,1.1H1.2v1.2l0.6,0.5v0.8h0.8v6.6H0.6v1l1.7,1.8V467L0,468.1V512h15.6v-19.9h0.6v-1.6h-0.9c0,0-0.9-7.6,5.6-7.6
	c6.5,0,5.6,7.6,5.6,7.6h-0.9v1.6h0.6V512h132v-19.9h0.6v-1.6h-0.9c0,0-1-7.6,5.6-7.6c6.6,0,5.6,7.6,5.6,7.6h-0.9v1.6h0.6V512H1024
	v-45.9L1016.5,459.4z M907.3,399.9H904v-23.6c0-3,0.7-5.4,1.7-5.4c0.9,0,1.7,2.4,1.7,5.4V399.9z M901.5,289.9c0-0.7,1.1-1.3,1.1-1.3
	s1.1,0.6,1.2,1.3c0,0.7,0,9.8,0,9.8h-1.2h-1.1C901.5,299.7,901.4,290.6,901.5,289.9z M901.1,314.4c0-1.8,0.6-3.2,1.4-3.2
	c0,0,0.1,0,0.1,0c0,0,0.1,0,0.1,0c0.8,0,1.4,1.4,1.4,3.2v16.3h-1.5h-1.5V314.4z M902.6,343.2c2.4,0,4.3,1.9,4.3,4.3
	c0,2.4-1.9,4.3-4.3,4.3c-2.4,0-4.3-1.9-4.3-4.3C898.3,345.1,900.2,343.2,902.6,343.2z M897.9,376.3c0-3,0.7-5.4,1.7-5.4
	c0.9,0,1.7,2.4,1.7,5.4v23.6h-3.3V376.3z"/>
</svg>
