<?xml version="1.0" encoding="utf-8"?>
<!-- Generator: Adobe Illustrator 19.2.1, SVG Export Plug-In . SVG Version: 6.00 Build 0)  -->
<svg version="1.1" id="Ebene_1" xmlns="http://www.w3.org/2000/svg" xmlns:xlink="http://www.w3.org/1999/xlink" x="0px" y="0px"
	 viewBox="0 0 1024 512" enable-background="new 0 0 1024 512" xml:space="preserve">
<path fill="#1D1D1D" d="M1024,438.7h-5.2v-4.2h-2.1v-2h1.8v-1.9h-3.4l-2.2-4v-1.8h-1.9l-0.9,0.7h-1.5v-0.9h-3.1v-1.2h-2.1v-14.1
	h-0.7v11.8h-1.7v0.5h-1.5v-1.1h-1.8v0.6h-10.4v-4.4H985v4.2l-6.8-8.7V411H977v-2.6h-0.8v4.6h-2.7v-0.6h-3.2v0.8h-3.8v-0.8h-4.2
	l1.7-86.9l-29.1-12.4l-1.3,0.1v7.1h-1.9v-7l-1.7,0.1v7h-1.9v-6.9l-1.7,0.1v7h-1.9v-6.8l-1.7,0.1v6.9h-1.9v-6.7l-1.7,0.1v6.8h-1.9
	v-6.7l-1.7,0.1v6.7h-1.9v-6.6l-1.7,0.1v6.7H910V315l-1.7,0.1v6.6h-1.9v-6.4l-1.7,0.2v6.5h-1.9v-6.3l-1.1,0.1v16.5h-1.3v22.5h1.3v5
	h-1.3v5.2h1.3v5.2h-1.3v5.2h1.3v5.2h-1.3v5.2h1.3v5.2h-1.3v5.2h1.3v5.2h-1.3v5.2h1.3v2.1h-7.9v0.8l0.6,0.7h-13.7v-12.9h-1v11.7h-8.2
	v-8.2h-0.8v6.1h-10.2v-1.9h-1v1.7H850l-0.5,1.3h-1.6V407H847v0.7h-1v-1.3h-2.6v0.7h-3.7V399h-0.9v0.7H836l-7.6-3.8l-6.4,3.4h-3.4
	v-0.8h-1.1v8.5h-4.9l-0.7,0.6h-2.3v-1h-3.3l-7,4.6v0.8l-4.3,2.1v0.7h0.6v6.5h-6.3v0.7h0.5v1.5h-2.8V410h-0.7v9.6l-9.7-4.7v-1.8h-0.8
	v1h-5.1v-0.8h-1.3v1.7h-4.7l-0.8-0.7H756v-8.7h0.7v-4.6h-5.8v-12.3h-5.5l-0.1,2.6l-9.1-3.3h-3.4v-5.5h1c0,0,0.5-1.3,0-1.3
	c-0.5,0-14.8,0-14.8,0v1h0.7v4.9h-11v-5.2h-5v2.9h-2.7l-2.3,1.9H698v-2.6H697v2.5h-7.2v-8.2h-0.9v1.6h-3.6v2.6h-5.7v-5.1l-2.2-1.1
	h-1.9v2.6h-7.7v-0.9H665v0.9h-5.2v-1.8h-1.4v1.4l-3.9,1.2v1.7h1v5h-20l-13.3,2.2v1.4h0.9v7.4h-6.8v2.8h-0.9v1.6h0.9v2.2h-4.3v-9.2
	h-1.3v9.2h-7.2l-1.1-1.8h-1.2v-7h-2.3v0.9h-22.6v-26.3h-0.6v23.1h-4.3v1h0.7v1.6h-1.3v2.3h-14.9l-1.1,0.6v1.7h-4.4v-4.2h-2.7v-1.5
	h-3.5l-1.3-1.5h-2.2v0.9h-2.4v1.9h-6.6l-6.9,4H522v-1.9h-1.3v1.6h-15.9v-2.1l-5.1-1.8h-9.3l-1.9-3.7v3.9h-2.7l-0.8,1.9h-1.7v1.9
	l-5.6,3.2h-4.1l-5.8-12.1h-0.2v-6.6h2.8v-0.5h-2.8v-1.8h1.4v-0.4h-1.4v-1.6h-0.5v1.6h-1.4v0.4h1.4v1.8h-2.9v0.5h2.9v6.6h-0.3
	l-4.7,8.6l-5.9-11V365l1.2-0.5v-0.9l0.8-0.4v-1l-0.4-0.4l-0.4-1.9c0,0-2.1-0.7-3.6-1.4c-1.5-0.7-1.3-2.2-1.7-3.6
	c-0.4-1.4-2-1.6-2-1.6l-0.1-0.6c0,0,0.7,0,3.1-1.6c2.4-1.6,2.4-3.7,2.4-3.7s-1.1-2.8-2.2-3.4c-1.1-0.6-2.8-0.6-2.8-0.6l-2.1-1.8v-2
	l0.7-0.7v-1.1l-1.4-1.3v-7.3l2.2-2v-0.6l-0.3-0.3l-0.3-0.6l-2.4-0.4l-1.8-1.1v-1.5l2.1-1.6v-2.6l-3.3-2.2v-0.8l-0.5-6.8l-0.8-0.7
	v-1.5l1.1-0.9l-0.1-1.7l-1.2-1.3v-4.4h1.6v-0.8h-1.6v-2l-0.8-0.8l-0.8,0.8v2h-1.6v0.8h1.6v4.4l-1.2,1.3l-0.1,1.7l1.1,0.9v1.5
	l-0.8,0.7l-0.5,6.8v0.8l-3.3,2.2v2.6l2.1,1.6v1.5l-1.8,1.1l-2.4,0.4l-0.3,0.6l-0.4,0.3v0.6l2.2,2v7.3l-1.4,1.3v1.1l0.7,0.7v2
	l-2.1,1.8c0,0-1.6,0-2.8,0.6c-1.1,0.6-2.2,3.4-2.2,3.4s0,2.2,2.4,3.7c2.4,1.6,3.1,1.6,3.1,1.6l-0.1,0.6c0,0-1.6,0.2-2,1.6
	c-0.4,1.4-0.1,2.9-1.7,3.6c-1.5,0.7-3.6,1.4-3.6,1.4l-0.4,1.9l-0.4,0.4v1l0.8,0.4v0.9l1.2,0.5V375h-0.3l-1,1.6h-0.7V375h-1.1
	l-0.7-2.3H422v-0.6l-0.5-1.5h-0.5V369l0.5-0.6v-1.9H421v-1.7l0.4-0.4V363h-0.8v-4.8l-0.5-0.4v-15.6h0.4l0.6-0.4V341h-0.4l-0.7-13.1
	h-0.5v1.3h-0.4v-2.3h0.4v-0.7H419l-0.6-2.3l-0.4-3.4l-1.3-0.4v-6.6l-0.7-0.8l-4.3-37.8l0.3-0.3v-0.7h-0.6v-4.3l0.2-0.4v-0.8
	l-0.5-0.4v-2.2l-0.2-0.4l-0.2,0.4v2.2l-0.5,0.4v0.8l0.2,0.4v4.3h-0.6v0.7l0.3,0.3l-4.3,37.8l-0.7,0.8v6.6l-1.3,0.4l-0.4,3.4
	l-0.6,2.3h-0.5v0.7h0.4v2.3h-0.4v-1.3h-0.6L401,341h-0.4v0.8l0.6,0.4h0.4v15.6l-0.2,0.1l-5.6-6.9v-0.8l-0.5-0.2v-3.9l-0.3-0.4
	l-0.3,0.4v3.9l-0.5,0.2v0.8l-5.7,7l-0.2-0.2v-15.6h0.4l0.5-0.4V341H389l-0.7-13.1h-0.5v1.3h-0.4v-2.3h0.4v-0.7h-0.5l-0.6-2.3
	l-0.4-3.4L385,320v-6.6l-0.7-0.8l-4.3-37.8l0.3-0.3v-0.7h-0.6v-4.3l0.2-0.4v-0.8l-0.5-0.4v-2.2l-0.2-0.4l-0.2,0.4v2.2l-0.5,0.4v0.8
	l0.2,0.4v4.3H378v0.7l0.3,0.3l-4.3,37.8l-0.7,0.8v6.6l-1.3,0.4l-0.4,3.4l-0.6,2.3h-0.5v0.7h0.4v2.3h-0.4v-1.3h-0.6l-0.7,13.1h-0.4
	v0.8l0.5,0.4h0.4v15.6l-0.5,0.4v4.8h-0.8v1.3l0.4,0.4v1.7h-0.4v1.9l0.6,0.6v1.7h-0.6l-0.5,1.5v2.2h0.5v30.4h-3.5l-0.7-2.2h-0.6
	l-0.3,1.1h-0.7l-0.2,1.1h-2.9v-0.5h-1.7v0.7h-1.2v-0.7h-0.8v1h-3.5v-5l0.8-0.4h0.6v-0.5H353l-4-5.5h-1v-0.9h-1.5v0.7l-1.4,0.8v0.5
	l-4.2,4.5v0.4h0.8v1.3h-2.4v0.8h-2.3l-2.1,1.6v1.1h-4.2v-2.9H330v-3.9H329v4h-0.9l-0.8,0.8v1.9h-8v-5h1.2v-0.7l-9.8-15h-0.9
	l-6.3,11.1l-10.5-5.9h-8.4v-0.8h0.6v-0.6h-6.1v0.5h-0.9v-24.8h-0.7v23h-2.1l-1.4,2v0.7h-3v-0.8h-9.4l-0.6,0.6h-1.7l-0.6-0.5h-4.1
	v-12.3h-1.9v5.2h-1.6l-0.9-1.8h-4.6v-2.1H245v2.6l-2.2,0.5h-1.3v-0.5h-2.5v0.7h-0.9v-0.9h-0.5v0.9h-2v2.2l-1.5,1.1h-13.6l-1.6,1.6
	v1.6h-5.6v-0.6h-1.8v1.3l-5.6,4.6h-2.6v1h-4.8v1.1l-1.7,3.7v3.4l-2.5-1.3h-1.1v-0.9h-1.6v1h-1.8l-4.2-3.2h-6.3v-1.3h-1.6v2.1
	l-1.5,0.4l-3-2h-10.4l-8.6-6.3v-1.4h-2.1v1.4l-10.1,6.9l-2.7-2h-2.9v-1h-3.6v-2.1h-0.9v1.6h-4.6v1.5l-5.9,7.2v-1.1h-1.9v2.8
	c0,0-1.4,0.3-1.4,0c0-0.2,0-3.2,0-3.2h-0.8v2.9h-2.5l-4.2-5.1h-2.8v-8.2H107v7.4h-2.2l-0.6,1.3h-2.3v-0.8l-10.1,11.1l-2.6-4.5H46
	l-2.1-3.5v-3h-0.6v2.9l-5.1,8.8h-2.2v2.8h-1.4V411h-0.9v1.7l-6.5,8.9l-1.9,1.6l-1.3-0.8h-7l-11.3,5.5v1h0.9v4l-3,1.7H0V512h1024
	V438.7z M441.5,370.9c-2.5,0-4.5-2-4.5-4.5c0-2.5,2-4.5,4.5-4.5c2.5,0,4.5,2,4.5,4.5C446.1,368.9,444,370.9,441.5,370.9z"/>
</svg>
