<?xml version="1.0" encoding="utf-8"?>
<!-- Generator: Adobe Illustrator 19.2.1, SVG Export Plug-In . SVG Version: 6.00 Build 0)  -->
<svg version="1.1" id="Ebene_1" xmlns="http://www.w3.org/2000/svg" xmlns:xlink="http://www.w3.org/1999/xlink" x="0px" y="0px"
	 viewBox="0 0 1024 512" enable-background="new 0 0 1024 512" xml:space="preserve">
<path fill="#1D1D1D" d="M1018.2,407v-0.9l3.5-1.5v-1.2l2-2l0.2-0.4l-2.2-0.3l1.2-0.9v-0.4h-7.1v-4.4l0.7-0.7l-1.7-1.7V392l-2.6-1
	l-0.2-0.9l-1.8-0.1l0-1.5l2.5-0.3l1.5-2.5l-0.3-5.5l-0.3,0.1l0.2,4.8l-0.5,0.2l-0.2,0.6l-1.2,1.1l-2.6-1.2l0.8-1.2l-0.2-2.2l-1-1.4
	l-0.7,0.1l-0.2,0.3l-1.3,0.9l-0.2,2.2l0.4,0.5l-0.1,0.5l-1.3-0.2l-2.1,1.7l-1.2,3.7l-0.1,1.9l-0.6-0.1l-1.8-1.4l0.1-0.5h1v-0.4
	l-0.5-0.5l-0.2-2.3l-1.3-1.3l-2.5,0l-1.2-0.6l-0.5,0.3l0.5,1l1.3,1.1l-1,1.6l0.3,1.1l-1.4,1.2l-5.7-2.9l0.9,1.5l0.5-0.2l0.4,3.8
	h-11.3l-0.9-0.8l1-1.7l-1.2-1.4l0.3-1.5l0.8-1.4l-0.3-1.1l-1.2,0.2l-0.4,0.8l-2.7-0.3l0-0.7l0.7-0.7l0.5-1.7l-1.6-1.4l-1.3,0.2
	l-1.2,1.3l0.6,1.9l-0.9,0.8l-0.7,4.5l-3,2.6l0.3-6.7l-6-0.2l2.2,2.2l-0.8,1.7l0.4,1.5l-0.1,1.1l-7.6-4.1l0.8,1.5l0.6-0.1l1.2,3.6
	h-27.4v-2.3l-0.8-0.2c0,0,0.8-1.1,0.8-2c0-0.9-3.2-2.8-3.2-2.8V386l-2.1-0.3c0,0-2.3-1.3-2.3-4.7c0-3.5-0.1-5.7-0.1-5.7l0.7-0.6V374
	l0.5,0.1l3-6h-2.9l1.5-3.9c0,0-7.8-6.8-10-7.8c-2.2-1-13-6.1-13-6.1l0.6-1.7l1.6,0.6l1.3-1.1l-4.6-7.1l-1.9-0.6l-2.1,2.4l-1.6,1
	l-0.1-3.1l-0.8-0.1l-0.8,1.9l-1,0.5l0.4-1.2l-2.1-1.9l-2,0.2l-1.3,2l-1.5-2.2l0.1-0.9l-0.8-1l0.4-1.1l-1.2-0.6l-1,0.9l-0.5-0.9
	l0-2.6l-0.5-1.8l-0.5,1.8l0,2.6l-0.5,0.9l-1-0.9l-1.2,0.6l0.4,1.1l-0.8,1l0.1,0.9l-1.5,2.2l-1.3-2l-2-0.2l-2.1,1.9l0.4,1.2l-0.9-0.5
	l-0.8-1.9l-0.8,0.1l-0.1,3.1l-1.6-1l-2.1-2.4l-1.9,0.6l-4.6,7.1l1.3,1.1l1.6-0.6l0.6,1.7c0,0-10.8,5.1-13,6.1c-2.2,1-10,7.8-10,7.8
	l1.5,3.9h-2.9l3,6l0.5-0.1v0.6l0.7,0.6c0,0-0.1,2.3-0.1,5.7c0,3.5-2.3,4.7-2.3,4.7l-2.1,0.3v0.9c0,0-3.2,1.9-3.2,2.8
	c0,0.9,0.8,2,0.8,2l-0.8,0.2v2.3h-16.5v-1.1h3.8v-2h-3.8v-2h3.5v-1.8h1.4v-17.7h-1.2v-18h-3.8V321h-1.4v-5.8h-1.9v-5.3H816l-0.6-4.8
	h-0.5l-0.6,4.9h-1v5h-2.8v-1.9h-1v1.8h-0.4v1.3h0.4v4h-19.1v-8.7l1.3-1.3h1.4v-2.6h-1.7l-0.4-10.1h-0.8l-0.4,2.5h-0.5v2.6h-1.5V297
	h-1.3l-0.3-4.3h-0.9l-0.3,4.4h-1.2v6.1l-10-6.6v-4.1H772V290h-0.4l-0.3-29h-0.5l-0.3,29H770v2.6h-1.2v4.2l-10.5,5.9v-5h-0.9
	l-0.2-5.1h-0.6l-0.2,4.8h-0.7v5.7h-1.7v-2.8h-1.6l-0.3-1.6h-0.7l-0.3,9h-2.4v1.3h1.3v2.4h1.3v8.9h-18v-4.8h-0.8l-0.5-2.8h-0.8
	l-0.5,1.9h-2.2l-1-9h-0.7l-1,8.9h-2.7v7.5h-4.6v1.9l2.8,2v1.5h1.3v10.4h-1.4v3.5H619.7v-5.4h-1.1l-0.7-10h-0.7l-0.7,10h-1.7v4h-6.4
	V336h2.7v-3.9h-1.5v-5.1h-1.3v-8.5h1.4v-3.2h-1.5v-10.3l-4.9-5.1v-6.5l2.5-2.5v-2.1l-7.5-9.6v-7h1.1v-1.2h-1.5v-6.2H597l-0.5-11.5
	h-0.7l-0.4,11.5h-0.9v6.1h-2.1v1.9h1.3v6.3l-8.6,9.5v2.1l2,2.4v7l-5.6,4.9v8.5h-2.2v2.4l1.3,1.3v9.3h-2.2v5h-1.6v4.1h1.5v4.1h-8.1
	v-4.3h-1l-0.9-9.7h-0.9l-0.9,10h-1.7v10.2h-2.4v1.8l2.5,3v7.3h-1v15.6h-1.4v3.7h1.4v18.3l-18.3-64.9l-50.7-6.5l-11.4,22.5
	l32.8,116.8H510l-3.3,3.6h-5.6l-0.5-14.6l-2.2-1.4l-0.1-2.4l-2.6-2.1H490V446l-2.4-1.9l0.1-2.1l-3-2.5v-4h-6v4.3l-8.4,8.3v2.9
	l-2.2,1.9v9.9H462v2.8l-4-11.7v1.4l-1.2,0.9v-4.9l-7.3-6.3v-1.8h-2.8v2.5h-1.7l-0.1,1.6l-6.8,4.2h-6.5v-6.1l-1.2-0.3v-2.4l-1.6-0.2
	v2.7h-0.8v6.5h-6.3v-2.4h0.5v-49.6h-4.5v-18.1h-3.2v4.1h-2.7l-0.1-14.6h-0.8v14.5h-2.6v-3.6h-3.8v3.5h0.9v4.8h-6.9v3.4h1.6v39.8
	h-1.2v-0.9h-3.6v1.7l-6.2,11.6V444l-7.8,0l-5,1.2v-2.6l-3.8-1.8h-14.3v2.2H352v1.7h-10.2l23.6-94l-14.7-22.2l-48.1,9.6L278.8,440
	v-62.6h-4v-43.6h1.3V312h-3.8v-11.3h-2.9v-8.2h1.6v-6.2h-2.9V272h-2.2v-12.7h-2.2v12.3h-2.9v-7.3h-3.6v-8.9c0,0-2.5,0-3.6,0
	c-1.1,0,0,10,0,10h-8v6h-5.3v-14h-2.2v10.3h-2.7v3.3h-3.1v-4.5h-2.7V260h-1.4v12.3l1.1,1.1v7.4l-1.3,1.3v7.6h-1.6v5.1h4.4v29.2h-4.6
	v3.5h2v4.6h1.6v18.3h-2.6v3.8h-5.4v3.1h-10.3v-7.6h3.3v-16.1h-2.3v-3h-3.7v-5.6h-4.1v4.4h-37.3v-6.3l3.3-3.3v-5.3h-2.2v-9.3h-2.5
	v-3.9h-3.3v-15h-4.5v4.9h-4.4v-2h-1.6V266l1-1v-5.9h1v-17.7l-1.2-0.3v-22.3H148v3.4h-3.8l-1.5-19.6h-1.5l-1.5,15.2h-3.8l-0.9-16.6
	h-1.6l-0.9,15.5h-3.6v-34.1l-0.9,0.9v32.9l-4-4l-7.2,9.8l-0.8-19.6h-1.2c0,0-0.8,5.2-0.8,6.4c0,1.2-2,0-2,0l-0.7-5.7h-1.3l-0.7,18.3
	h-2.4v5l-4.3,4.4v3.8h2.2v8.7h-2.5v4.9h1.4v28.3h-4.6v11.2c0,0-4.9,0-5.2,0c-0.3,0,0,7.5,0,7.5h-2.9l-1.2-1.2h-6v9.5H80v-3h-3.8v6.5
	H74v3.8h-0.3v3H74v6.8h-1.6v8.4H67v7.6H52.5l-1.4-33.2h-1.2L48.5,337c0,0-14.5,0-15.4,0l-1-5.8h-5.6l-1,6h0.8v4.5h-2.9v3.3l0.9,0.9
	v18.9h-4.2v6H18v-5.3h-4.4V363H0v149.1h1024v-33.2h-3.3l-0.6-1.3v-53.7l0.9-0.7V419l-0.5-1.2l-0.1-1.4l-2.1-0.7v-1.9l0.4-0.4v-0.9
	h-1.4v-4.9L1018.2,407z M639.1,352.7h-15.9v-7.4h15.9V352.7z M665.2,352.7h-15.9v-7.4h15.9V352.7z M691.2,352.7h-15.9v-7.4h15.9
	V352.7z M717.2,352.7h-15.9v-7.4h15.9V352.7z M829.5,443.5H828v3.8l0.6,0.6v41h-30l-0.1-40.4l0.9-1.1l0-3.5l-1.3,0
	c0-0.5-1.2-7,3.4-11.5c5.4-5.3,10-4.9,10-4.9v1.1h3.2v-1.1c0,0,4.5-0.4,9.9,3.4C830.1,434.6,829.5,443.5,829.5,443.5z M900.3,488.7
	h-32.7v-42.6h0.7v-4.4h-0.4c-0.1-4.1,2.6-8.3,5.4-11.2c2.8-2.9,9.4-4,9.4-4l0.1,0.9h1.2h1.2l0.1-0.9c0,0,6.6,1,9.5,4
	c2.8,2.9,5.4,7.1,5.4,11.2h-0.4v4.4h0.7V488.7z M969.7,443.7l-1.3,0l0,3.5l0.9,1.1l-0.1,40.4h-30v-41l0.6-0.6v-3.8h-1.5
	c0,0-0.5-8.9,5-12.8c5.4-3.8,9.9-3.4,9.9-3.4v1.1h3.2v-1.1c0,0,4.6-0.4,10,4.9C970.9,436.7,969.7,443.2,969.7,443.7z M1007.4,488.7
	h-18.3v-37.8h18.3V488.7z"/>
</svg>
