<?xml version="1.0" encoding="utf-8"?>
<!-- Generator: Adobe Illustrator 19.2.1, SVG Export Plug-In . SVG Version: 6.00 Build 0)  -->
<svg version="1.1" id="Ebene_1" xmlns="http://www.w3.org/2000/svg" xmlns:xlink="http://www.w3.org/1999/xlink" x="0px" y="0px"
	 viewBox="0 0 1024 512" enable-background="new 0 0 1024 512" xml:space="preserve">
<path fill="#1D1D1D" d="M1022.6,462.5v-13.5l-0.8-0.8v-6.9h-0.4v-5.6h0.4v-0.6l-3.2-3.3h-2V431l-0.4-0.8h-1.8v-1.5h1v-1.2l-4.7-2.3
	v-3.5h0.2v-0.5l-1.8-1.5V419h0.2v-1.2h-0.5v-0.7l-0.7-0.2c0,0,0.6-2-0.9-3.5c-1.4-1.5-2.7-0.7-2.7-0.7l-0.6,1.6l-0.5,0.8
	c0,0-2.1,0.1-3.2-2.9c-1.2-3-1.3-5.8-1.3-5.8l0.4-0.6l0-0.6h0.2v-0.9h0.2v-0.3l0.4-0.5V403h-1.6c0,0-1.4-3-5.6-3c-4.3,0-5.6,3-5.6,3
	h-1.6v0.4l0.4,0.5v0.3h0.2v0.9h0.2l0,0.6l0.4,0.6c0,0-0.2,2.9-1.4,5.8c-1.2,3-3.2,2.9-3.2,2.9l-0.5-0.8l-0.6-1.6
	c0,0-1.2-0.9-2.7,0.7c-1.4,1.5-0.9,3.5-0.9,3.5l-0.7,0.2v0.7h-0.5v1.2h0.2v0.7l-1.8,1.5v0.5h0.2v4.6c0-0.6-0.2-2.8-2.3-2.7
	c-1.5,0.1-1.7,1.2-1.7,1.2l-0.6,0.2h-0.4l-0.1,0.2h-0.3l-0.2-0.7l-0.4,0.1l-0.8-0.8l-0.5,0l-0.2,0.4c0,0-0.5-0.1-1.2-1
	c-0.7-1-1.4-2.9-1.4-2.9h0.2l0-0.4l-0.2-0.4l0.2-0.6l-0.6-0.6l0.1-0.9l-0.6-2.3l0.1-0.3l-0.3-0.6l-0.2-2.2l0.2-0.3l-0.2-0.6v-0.7
	l0.4-0.9l-3-0.2c0,0-1.2-3.8-6.2-3.8c-5,0-6.2,3.8-6.2,3.8l-2.9,0.2l0.4,0.9v0.7l-0.2,0.6l0.2,0.3l-0.2,2.2l-0.3,0.6l0.1,0.3
	l-0.6,2.3l0.1,0.9l-0.6,0.6l0.3,0.6l-0.3,0.4l0,0.4h0.2c0,0-0.7,1.9-1.4,2.9c-0.7,0.9-1.1,1-1.1,1l-0.2-0.4l-0.5,0l-0.8,0.8
	l-0.4-0.1l-0.2,0.7h-0.3l-0.1-0.2h-0.4l-0.5-0.2c0,0-0.2-1.1-1.7-1.2c-2.4-0.1-2.3,2.8-2.3,2.8l-0.4,0.5v0.6l-0.3-0.1v-0.3h-0.4V426
	c0,0,0.5-0.2,0.2-0.7c-0.3-0.5-1.2-0.3-1.2-0.3v-1.1l-0.4-0.9c0,0,1.2-1.1,0.2-3.1c-1-2-4.2-1.6-4.2-1.6v0.8l-1.1,0.4
	c0,0-1.6-0.2-2.6-3c-0.9-2.9-1.2-6.9-1.2-6.9l-0.7-4.8c0,0,1,0,1-1c0-1-1.5-1.1-1.5-1.1v-1h0.4V401l-0.2-0.3v-2.3h0.8v-1.7h0.5V396
	l-10.6-4.9l-10.6,4.9v0.8h0.5v1.7h0.8v2.3l-0.2,0.3v0.4h0.4v1c0,0-1.5,0.1-1.5,1.1c0,1,1,1,1,1l-0.7,4.8c0,0-0.3,4-1.2,6.9
	c-0.9,2.9-2.6,3-2.6,3l-1.1-0.4v-0.8c0,0-3.3-0.3-4.2,1.6c-1,2,0.2,3.1,0.2,3.1l-0.4,0.9v1.1c0,0-0.9-0.2-1.2,0.3
	c-0.3,0.5,0.2,0.7,0.2,0.7v1.1h-0.4v0.3l-1.1,0.4l-1.3,1.3c0.1-0.4,0-1-0.4-1.5c-0.8-1-1.7-0.9-1.7-0.9v-0.4c0,0,0.6-0.4,0.5-0.8
	c-0.1-0.4-1-1.2-1-1.2l-0.8,0.6c0,0-0.6,0-0.8-0.5c-0.3-0.5-0.3-0.9-0.3-0.9s1.2-0.4,1-1.2c-0.2-0.8-1.3-1.6-1.3-1.6l0.1-1.5h-0.3
	v-2.5l0.5-0.4v-1.1h-0.3v-1.6l-0.2-0.1v-0.3c0,0-0.6,0.1-1-0.3c-0.4-0.4-0.7-0.9-0.7-0.9h-0.6c0,0,0.1-0.7-0.5-1.3
	c-0.7-0.6-1.7-0.7-1.7-0.7v-0.4c0,0,0.5-0.2,0.5-0.7c0-0.5-0.4-1-0.8-1c-0.4,0-0.8,0.2-0.8,0.5c0,0.3,0,0.6,0,0.6s-0.7-0.4-0.8-0.8
	c-0.2-0.4-0.2-1.1-0.2-1.1l0.5-0.4v-2.5h-0.7v0.6l-0.9,0.2c0,0-0.6-0.2-0.6-0.7c0-0.5,0.8-0.2,0.8-1.1s-1.5-1-1.5-1v-1h-0.3v-2h0.7
	v-0.6h0.4v-0.6h0.3V397h-4.1c0,0,0.4-3.6-3.8-5v-0.7h-0.4l-0.3-0.3v-0.4c0,0,1.5-0.4,1.5-1.6c0-1.2-1.5-1.5-1.5-1.5v-0.2
	c0,0,0.4,0,0.3-0.3c-0.1-0.3-0.8-1-0.8-1s-0.7,0.8-0.8,1c-0.1,0.3,0.3,0.3,0.3,0.3v0.2c0,0-1.5,0.3-1.5,1.5c0,1.2,1.5,1.6,1.5,1.6
	v0.4l-0.3,0.3h-0.4v0.7c-4.2,1.3-3.8,5-3.8,5h-4.2v0.7h0.3v0.6h0.5v0.6h0.7v2h-0.3v1c0,0-1.5,0.1-1.5,1s0.8,0.6,0.8,1.1
	c0,0.5-0.6,0.7-0.6,0.7l-0.9-0.2v-0.6h-0.7v2.5l0.5,0.4c0,0-0.1,0.7-0.2,1.1c-0.2,0.4-0.8,0.8-0.8,0.8s0-0.3,0-0.6
	c0-0.3-0.4-0.5-0.8-0.5c-0.4,0-0.8,0.4-0.8,1c0,0.6,0.5,0.7,0.5,0.7v0.4c0,0-1.1,0.1-1.7,0.7c-0.7,0.6-0.5,1.3-0.5,1.3h-0.6
	c0,0-0.3,0.5-0.7,0.9c-0.5,0.4-1,0.3-1,0.3v0.3l-0.2,0.1v1.6h-0.3v1.1l0.5,0.4v2.5h-0.3l0.1,1.5c0,0-1.1,0.8-1.3,1.6
	c-0.2,0.8,1,1.2,1,1.2s0,0.4-0.3,0.9c-0.2,0.5-0.8,0.5-0.8,0.5l-0.8-0.6c0,0-0.9,0.8-1,1.2c-0.1,0.4,0.5,0.8,0.5,0.8v0.4
	c0,0-0.9-0.2-1.7,0.9c-1.2,1.5,0.4,2.9,0.4,2.9h-2v-4h-0.3v-1.3h0.4v-1.3h-1.6v0.9h-0.3v4h-12.7l-0.2,1.5h-6.9l-5.5-11v-19.5h-1.4
	v19.4l-4.2,8.6h-12.2v-4.1h-6.6v-9.4h-1.8v-7H787v5.4l-1.7,1.7v5.2h-14.7v-4.6h2.6v-1.4h1v-2.2h-3.6v-8.5h1.6v-2h-1.6v-1.9h-1.8
	v-45.4l2.8-2.5V349h-1.8l-1.3-2.3v-4l1.3-1.3V339H768v-5l0.8-0.7v-3.2l-1.7-4.6l-2.1,4.4v3.3l1.1,0.8v5.1h-3.5v-7.4h1.3v-1.9h-2.6
	v-4.3h0.9v-1.7c0,0-1.6-0.5-3.3-1.8c-1.7-1.3-1.3-5.9-1.3-5.9l0.5-0.7v-3.1H757c0,0,0.1-2.7-0.5-5.1c-0.6-2.4-4.6-4.2-4.6-4.2v-2.6
	l-2-0.8v-3.9c0,0,3.8-2.4,4.1-4.9c0.3-2.5-3.9-5.2-5.5-7.6c-1.6-2.3-2-7.3-2-7.3v-1.1l0.7-0.7v-2.3l-1.3-0.3l-0.3-1c0,0,1.2-1,1.2-2
	c-0.1-1-1.5-1.3-1.5-1.3v-5.6h3.3v-1.6h-3.3v-3.2l-0.8-1.2l-0.8,1.2v3.2h-3.3v1.6h3.3v5.6c0,0-1.5,0.4-1.5,1.3c-0.1,1,1.1,2,1.1,2
	l-0.2,1l-1.3,0.3v2.3l0.7,0.7v1.1c0,0-0.4,5-2,7.3c-1.6,2.4-5.7,5.1-5.5,7.6c0.3,2.5,4.1,4.9,4.1,4.9v3.9l-2,0.8v2.6
	c0,0-4,1.7-4.6,4.2c-0.6,2.4-0.5,5.1-0.5,5.1h-1.1v3.1l0.5,0.7c0,0,0.5,4.6-1.3,5.9c-1.7,1.3-3.3,1.8-3.3,1.8v1.7h0.9v4.3h-2.6v1.9
	h1.3v7.4h-3.5V334l1.1-0.8v-3.3l-2.1-4.4l-1.7,4.6v3.2l0.8,0.7v5H719v2.3l1.4,1.3v4L719,349h-1.8v2.3l2.8,2.5v29.4l-8.2-12.5v-4
	h-0.9v-2.3l-3.6-3.7V356h-1.9v4.6l-3.8,3.9v1.9h-4.5v-10.1l2.8-2.5v-2.4h-1.8l-1.4-2.3v-4l1.4-1.3v-2.4h-1.7v-4.9l0.8-0.7v-3.2
	l-1.7-4.6l-2.1,4.4v3.2l1.1,0.8v5h-3.5V334h1.3v-1.9h-2.6v-4.3h0.9v-1.7c0,0-1.6-0.5-3.3-1.8c-1.7-1.3-1.3-5.9-1.3-5.9l0.6-0.7v-3.1
	h-1.1c0,0,0.1-2.7-0.5-5.1c-0.6-2.4-4.6-4.1-4.6-4.1v-2.6l-2-0.8V298c0,0,3.8-2.3,4.1-4.9c0.3-2.5-3.9-5.2-5.5-7.6
	c-1.6-2.3-2.1-7.3-2.1-7.3v-1.1l0.7-0.7v-2.3l-1.3-0.3l-0.2-1c0,0,1.2-1,1.1-2c-0.1-1-1.5-1.3-1.5-1.3V264h3.3v-1.6h-3.3v-3.2
	l-0.8-1.2l-0.8,1.2v3.2h-3.3v1.6h3.3v5.7c0,0-1.4,0.4-1.5,1.3c-0.1,1,1.2,2,1.2,2l-0.2,1l-1.3,0.3v2.3l0.7,0.7v1.1
	c0,0-0.5,5-2.1,7.3c-1.6,2.3-5.7,5.1-5.5,7.6c0.3,2.5,4.1,4.9,4.1,4.9v3.9l-2,0.8v2.6c0,0-4,1.7-4.6,4.1c-0.6,2.4-0.5,5.1-0.5,5.1
	H659v3.1l0.5,0.7c0,0,0.4,4.6-1.3,5.9c-1.7,1.3-3.3,1.8-3.3,1.8v1.7h0.9v4.3h-2.6v1.9h1.3v7.4H651v-5l1.1-0.8v-3.2l-2.1-4.4
	l-1.7,4.6v3.2l0.8,0.7v4.9h-1.7v2.4l1.3,1.3v4l-1.3,2.3h-1.8v2.4l2.8,2.5v6l-6.7,0v-9.9h-1.9v-42h1.5v-1.8l1.4-0.6v-4.2H639v-7.9
	h0.8v-1.9h1.3v-2.1h-2.4c-0.3-3.1-4-11.8-4-11.8V269h-6.5c-5.1-9.3-15-15.1-15-15.1v-5.1l-1.1-1.2v-2.8l-3.1-2v-11.7l1.4-1l0.2-2.1
	h2v-1.8l-5.9-3l-3.2-5.6v-1.2l-2.3-1v-1.2l1.2-1.1l0.9-1.5l-0.8-2l-1.2-1v-9.6l0.6-0.9h3.9v-1.4h-3.9l-0.5-1.4v-3.2l-1.2-1.1
	l-1.2,1.1v3.2l-0.5,1.4h-4v1.4h3.9l0.6,0.9v9.6l-1.2,1l-0.8,2l0.9,1.5l1.2,1.1v1.2l-2.3,1v1.2l-3.2,5.6l-5.9,3v1.8h2l0.2,2.1l1.4,1
	v11.7l-3.1,2v2.8l-1.1,1.2v5.1c0,0-9.9,5.9-15,15.1h-6.5V280c0,0-3.7,8.7-4,11.8h-2.4v2.1h1.3v1.9h0.8v7.9h-3.7v4.2l1.4,0.6v1.8h1.5
	v42h-1.9v10h-1.3v0.9h-9.7v-1.2l1.7-1.7v-2.7l-3.1-2.6l0-1.3l1.3,0v-1.5h-1.1V349h-2v3.4h-1.6v1.3l1.6,0.2v1.5l-3.7,2.8l0.1,2.4
	l2.1,1.8v1.8l-7.6,17l-2.2-2.7v-1.2l-1-0.5v-10h-0.8v6h-6.4v-3.7h-0.5v3.7h-10.7v-5.4H513v5.6l-6.4,1.9v-4.5h-0.6v8.6l-0.8,0.7v1.2
	l-9,14.1l-0.7-1.3v-1.6l-0.5-0.5v-5.3h-0.6v2.6h-4.6v-2h-1v2.3h-3.6v-2.7h-0.6v6.1l-0.4,0.4v1.2l-7.1,17.8v1.6h-0.4v-1h-4v1H470v-1
	h-4v1h-2.9v-1h-4v1h-2.9v-1h-4v1h-1v-2.8h1.4v-2.1h-1.2c0,0-1.1-5.2-3.1-7.1c-2.1-1.9-3.7-2.8-3.7-2.8l-1-3.1V394l0.9-0.3v-1.8
	l-1.3-1.8v-12.2h-0.6H442v12.2l-1.3,1.8v1.8l0.9,0.3v1.8l-1,3.1c0,0-1.6,0.9-3.7,2.8c-2.1,1.9-3.1,7.1-3.1,7.1h-1.2v2.1h1.4v1.7
	h-2.2v1h-2.8v-1h-4v1H422v-1h-4v1h-1.5v-20h0.6v-4.4l-1.4-1.2v-9.6h0.9v-19.3h-0.5v7.6h-5.6l-0.7-2.9h1.6l-1-2v-2.4h-0.4v2.4h-0.9
	l-2.2-7.7v-3.5h-0.9l-4.4-14.8v-0.9l-0.9-0.7v-2.1h1.7v-0.6l-1.5-2.1V328h-0.5v1h-1.1l-3.4-14.3v-1.5l-0.7-1.2V301l-0.4-0.7v-9.2
	l-0.5-0.9l-0.5,0.9v9.2l-0.4,0.7v10.9l-0.7,1.2v1.5l-3.4,14.3h-1.1v-1H388v1.6l-1.5,2.1v0.6h1.7v2.1l-0.9,0.7v0.9l-4.4,14.8H382v3.5
	l-2.2,7.7H379v-2.4h-0.4v2.4l-1,2h1.6l-0.7,2.9h-5.6v-7.6h-0.5v19.3h0.9v9.6l-1.4,1.2v2.7h-28.5l-0.6-0.8v-2.9l-0.6-1.1v-4.8
	l0.2-0.6V381l0.4-0.4v-0.6l-0.4-0.5l0.2-0.9l-0.2-0.4l1-2.6l-0.2-0.7l-1.8,2.4l-0.4-0.5l-0.4,0.5l-1.8-2.4l-0.2,0.7l1,2.6l-0.2,0.4
	l0.2,0.9l-0.4,0.5v0.6l0.4,0.4v0.7l0.2,0.6v4.8l-0.6,1.1v2.9l-0.6,0.8h-30.9v-2.8h0.6l1.1-1v-1.7l-0.6-0.9h-2.2l-1-2.7v-9.7l0.3-1.3
	v-0.8h-0.7v-1.6l0.4-0.9v-3.3h-1v2.3h-0.6l-1.9-5.3V357h-0.6v5.1h-1.9L297,353h1.8l-1.5-3.4v-2.4h-0.5v2.4H296l-1.9-7.4l0.9-2V339
	h-1.5v-7.5h1.5v-1.1l-2.9-6.5V319h-0.5v4.6h-2.6l-2.2-10v-7.5l-0.4-0.6v-6.6l-0.4-0.3v-7.6l-0.3-0.5l-0.3,0.5v7.6l-0.4,0.3v6.6
	l-0.4,0.6v7.5l-2.2,10h-2.6V319h-0.5v4.8l-2.9,6.5v1.1h1.5v7.5h-1.5v1.2l1,2l-1.9,7.4h-0.8v-2.4h-0.5v2.4l-1.6,3.4h1.8l-2.6,9.1
	h-1.9V357h-0.6v5.1l-1.9,5.3h-0.6v-2.3h-1v3.3l0.4,0.9v1.6h-0.7v0.8l0.3,1.3v9.7l-1,2.7h-2.2l-0.6,0.9v1.7l1.1,1h0.7v3.9l0.4,0.9
	v16.4l-0.8,0.6v2.6h-0.7v-1h-4v1h-2.3v-1h-4v1h-2.3v-1h-4v1h-2.3v-1h-4v1h-2.3v-1h-4v1h-2.3v-1h-4v1h-2.3v-1h-4v1h-2.3v-1h-4v1h-2.3
	v-1h-4v1h-2.3v-1h-4v1h-0.6v-1.6l-7.1-17.8V393l-0.4-0.4v-6.1h-0.6v2.7h-3.6v-2.3h-1v2h-4.6v-2.6h-0.6v5.3l-0.5,0.5v1.6l-0.7,1.3
	l-9-14.1v-1.2l-0.8-0.7v-8.6h-0.6v4.5l-6.4-1.9v-5.6h-0.6v5.4h-10.7v-3.7H154v3.7h-6.5v-6h-0.8v10l-1,0.5v1.2l-14.3,18v-36h0.8v-4.4
	h-3.8l-5.1-4.2v-25.2l2.5-1.6v-1.2h-2.3l-4.9-5.4h-1.1v-2.2l-0.8-1.4v-6.3h-1.3v6.3l-0.7,1.4l-1.7-3.1v-25.8l1.4-0.6v-1.9l3-2.9v-2
	l-1-0.7v-6l0.3-0.7v-1.2l-0.6-0.5v-7.7h-1.1v6.1c0,0-0.5-1.3-1.8-2.3c-1.3-1-4-0.9-4-0.9v-1.5l0.8-1v-1.7h-3v-1.9h-1.2v-24.9
	l0.4-0.7v-1l-0.4-0.4v-0.9l1.7-0.7v-0.9l1.1-0.4v-1.1l-2.4-2v-7.9H105v6.1c0,0-0.3-1-1.6-3.6c-1.4-2.5-4.4-3.9-4.4-3.9v-0.5
	l-1.2-0.9v-2.1h0.5v-1.1c0,0,2.7-2.6,3.3-4.9c0.6-2.3-1.3-4.6-3-6.2c-1.7-1.6-2-4.1-2-4.1v-6c0,0,1.8,0,1.9-2.5c0.2-2.6-2.7-3-2.7-3
	v-7.1h5.8v-0.8h-6v-13l-0.7-1.3l-0.7,1.3v13h-6v0.8h5.8v7.1c0,0-2.9,0.5-2.7,3c0.2,2.5,1.9,2.5,1.9,2.5v6c0,0-0.3,2.5-2,4.1
	c-1.7,1.6-3.7,3.9-3,6.2c0.6,2.3,3.3,4.9,3.3,4.9v1.1h0.5v2.1l-1.2,0.9v0.5c0,0-3,1.4-4.4,3.9c-1.4,2.6-1.6,3.6-1.6,3.6v-6.1h-1.1
	v7.9l-2.4,2v1.1l1.1,0.4v0.9l1.7,0.7v0.9l-0.4,0.4v1l0.4,0.7v24.9h-1.2v1.9h-3v1.7l0.8,1v1.5c0,0-2.7-0.1-4,0.9
	c-1.3,1-1.8,2.3-1.8,2.3v-6.1h-1.1v7.7l-0.6,0.5v1.2l0.3,0.7v6l-1,0.7v2l2.9,2.9v1.9l1.4,0.6v25.8l-1.7,3.1l-0.7-1.4v-6.3H73v6.3
	l-0.8,1.4v2.2H71l-4.9,5.4h-2.3v1.2l2.5,1.6v25.2l-5.1,4.2h-3.8v4.4h0.8v61.7h-7.4v-4l-0.7-0.5v-5.4l0.7-1.3v-3l-2-2.4l0.5-1.2v-4
	h-0.9v-5l0.6-0.9v-1.3l-3.7-2v-0.6l1.1-0.5c0,0,1.2-1.9,1.2-3c0-1-2.6-2.5-2.6-2.5v-3l0.6-0.8v-1l-1-1.6V376l0.3-0.5v-0.7l-0.5-0.5
	v-3.1h1.3v-0.5h-1.4v-2.9l-0.4-0.6l-0.4,0.6v2.9h-1.4v0.5h1.3v3.1l-0.5,0.5v0.7l0.3,0.5v2.4l-1,1.6v1l0.6,0.8v3c0,0-2.5,1.4-2.6,2.5
	c0,1,1.2,3,1.2,3l1.1,0.5v0.6l-3.7,2v1.3l0.6,0.9v5H39v4l0.5,1.2l-2,2.4v3l0.7,1.3v5.4l-0.7,0.5v4h-2.4l-1.4,8.7l-1.2,0.9h-5.6
	c0,0-0.1,0.8,0,1.7c0.1,0.8-1.2,1.9-1.2,1.9v2.5l1,0.1v4.3l-1.6,1l-0.2,1.1h-3.2c0,0-0.8,1.2-0.9,2.1c-0.1,0.9-2.3,2.2-2.3,2.2h-6.6
	v1.6H8.3L3.2,452v1.1h0.6v4.2H1.2v8L0,466.9V512h1024v-48.3L1022.6,462.5z"/>
</svg>
