<?xml version="1.0" encoding="utf-8"?>
<!-- Generator: Adobe Illustrator 19.2.1, SVG Export Plug-In . SVG Version: 6.00 Build 0)  -->
<svg version="1.1" id="Ebene_1" xmlns="http://www.w3.org/2000/svg" xmlns:xlink="http://www.w3.org/1999/xlink" x="0px" y="0px"
	 viewBox="0 0 1024 512" enable-background="new 0 0 1024 512" xml:space="preserve">
<path fill="#1D1D1D" d="M1015.7,365.4v-5.6l2-1.8v-1.9h0.4v-1.1l-0.2-0.2l1.9-4h0.7v-1l-0.2-0.2l0.5-3h0.5l0.4-0.4h1h0.7v-1.6
	l-0.6-1.1h-1.6v0.3l-0.4-0.4v-12h0.6v-0.7h0.3v-0.6h-0.3v-0.5h-0.6c-0.3-3.7-3.7-4.9-3.7-4.9v-0.8h0.3v-0.7l-0.4-0.3
	c-0.1-2.1-1.7-2.7-1.7-2.7v-0.5c0,0,0.1,0.2,0.5-0.6c0.4-0.8-0.6-1.7-0.6-1.7c-0.1-2.2-0.7-2.2-0.7-2.2c-0.9,0.1-0.8,2.3-0.8,2.3
	c-0.9,0.5-0.7,1.4-0.7,1.4l0.7,0.6v0.5c-1.8,0.4-1.9,2.8-1.9,2.8l-0.4,0.3v0.9h0.2v0.5c-3.1,1.4-2.8,4.7-2.8,4.7h-0.6v0.5
	c0,0-0.4,0-0.6,0c-0.2,0,0,0.7,0,0.7h0.3v0.9h0.3v1.7l-7.7-0.8c-0.1-3.8-2.7-4.2-2.7-4.2v-0.5h-0.3c-0.1-2.7-1.9-3.1-1.9-3.1
	l-0.1-0.3c0,0-0.2-0.4,0.4-0.6c0.6-0.3-0.7-1.7-0.7-1.7s-0.2-2.2-0.8-2C994,320,994,322,994,322s-0.6,0.5-0.6,1.1
	c0,0.6,0.8,0.6,0.8,0.6v0.9c-1.7,0.3-1.6,2.5-1.6,2.5h-0.3v0.9c-2.3,0.4-2.8,3.1-2.8,3.1l-12.3-1.3v-5.5l0.5-0.5v-1.2h-0.6V322h-0.3
	c-0.3-4.7-4.5-6.1-4.5-6.1v-1.1h-0.3c0.1-1.1-0.8-1.5-0.8-1.5c0-1.4-1.7-2.3-1.7-2.3V310l0.3-0.1l0.3-0.8v-0.6l-0.7-0.3
	c0-0.8-0.6-1.8-1.1-1.9c-0.7,0-1.2,1.8-1.2,1.8l-0.6,0.3l-0.1,0.7l0.3,1l0.7,0.1v1c0,0-0.8,0.5-1.3,1c-0.4,0.5-0.7,1.6-0.7,1.6
	c-0.8,0.1-0.8,1.5-0.8,1.5h-0.2v1c0,0-0.6,0-1.9,1.2c-2,1.8-1.4,4.2-1.4,4.2l-0.2,0.2v0.6h-0.8v1.3l-0.3,0.3v0.7l0.7,0.7v1.3H960
	v0.4h-0.5v0.8h-0.8v-2.1l-1.1-1.3v-0.4h0.3v-0.6l-0.5-0.4v-0.4l0.2-0.1l-0.5-1.7h-0.4l-0.5,1.8h0.2v0.5l-0.5,0.2v0.7h0.3v0.5
	l-1.1,1.5v3.6h-3.5v-14.1l0.6,0l0-1.7l0.8-0.1v-0.9l0.3-0.1l0-0.5l0.7-0.6l0-0.5l-0.9-0.6v-16.4l0.6-0.4v-0.9l-0.8-0.2L953,291
	l-4.1-5.4v-16.4h0.5v-0.8h1.1v-1.8h2.5v-1.2h0.4v-1h0.4v-0.6l-0.4-0.4v-2.1l0.9,0v-0.5l-0.7-2v-3.6l0.5-0.7v-1l-3.5-1v-0.7l-2.9-1.6
	l-2.4-0.1v-1.2l-2.2-1.1v-7.6h0.6v-1.8h-0.3v-0.7h0.3l0.1-1.6l-0.4-0.1l-0.2-0.6l0.8-2.9c0,0,1.2-1.5,1.3-2.1
	c0.1-0.6-1.2-1.1-1.2-1.1V217l0.3-0.4l-0.2-0.9c0,0-0.9-1.5-1.4-2.2c-0.5-0.7-2.1-2.3-2.1-2.3V211l-1.1-1.3l0.1-0.2v-1.2l-0.6-0.7
	v-1.3l0.2-0.2l-0.3-1.1l-0.5-0.4l-0.4,0.4L938,206l0.2,0.3v1.3l-0.4,0.8l0.2,1.2l0.3,0.2l-0.8,1.1c0,0-1.7-1.6-2.5-2.5
	c-0.8-0.9-3.6-2.4-3.6-2.4l0.3-0.4l-0.2-1.6l-0.5-0.6l0.5-0.8l-0.5-1.3l-0.6-0.2l-0.1-0.7c0,0,0.2-0.7,0.2-0.9
	c0-0.2-0.9-0.7-0.9-0.7s-0.7,0.5-0.8,0.8c-0.2,0.3,0.3,0.7,0.3,0.7v0.6l-0.7,0.4l-0.2,1.1l0.4,0.9l-0.6,0.9l-0.1,1.1l0.2,0.3
	l-2.6,2.4l-0.5-20.8h-0.3l-0.5,21.3l-0.6-0.3l-2,1.9l0,0.4l0.5,0.4v1.9l-0.7-0.6v-3.6l0.4,0v-0.7l-2.3-2.6l-2,2v0.7l0.4,0.3v2
	l-0.8-0.3v-3.9l0.4-0.3v-0.4l-1.9-2.7l-0.7,0.1l-1.6,2.1v0.8l0.4,0.3v1.9l-1-0.6v-3.3l0.8-0.4v-0.4l-2.5-3.1v-3.9c0,0,0.8-1.1,1-1.7
	c0.2-0.6-1-1.8-1-1.8c-0.5-3.4-3.9-5-3.9-5V187h-0.5v-0.6l0.3-0.4v-1l-0.9-0.9l0-1.1l0.2-0.2l-0.2-0.9l-0.8-1l-0.7,1.3l-0.1,0.6
	l0.3,0.4v1l-0.8,0.8v1.1l0.3,0.4v0.7H904v0.6c-4.9,3.5-4.2,5.9-4.2,5.9s-0.7,0.9-0.7,1.3c0,0.4,0.7,1,0.7,1v9.6l-3.6,1.2v-3l0.2-0.1
	l0.2-0.4l-1.5-2.1l-0.6,0.1l-1.3,2l0.1,0.4l0.3,0.5v3.2l-2.1,0.8v-2.2l0.7-0.3V205l-2.1-3.1h-0.6l-1.8,2.6v0.6h0.6v3.9l-1.8,0.7
	v-2.1l0.7-0.5v-0.5l-2-2.9l-0.7,0.1l-2,2.4v0.4l0.8,0.5v3.5l-1.7,0.6l0-2.3l0.7-0.1v-0.7l-1.8-2.4l-0.9,0l-1.7,2v0.6l0.6,0.4v3.2
	l-1.5,0.6v-2.1l0.7-0.2v-0.5l-2.1-2.8l-0.9,0.1l-1.6,2l0.1,0.7l0.5,0.3v3.4l-1.3,0.6v-2.2l0.6-0.3v-0.5l-2.1-2.8l-0.6,0l-1.8,2.3
	l0.1,0.8l0.4,0.2v3.4l-1.7,1.1l0.1-2.9l0.4-0.3v-0.4l-2.1-2.5l-0.6,0l-0.6,0.7v-1.2l-1.3-1.4c-0.2-3.3-3-4.4-3-4.4v-0.9H860V202h0.3
	v-1.3l-0.6-0.7l-0.1-2.5L859,197l-0.6,0.5l-0.2,2.4l-0.8,0.7v1.3h0.2v0.9h-0.4v0.8c-3.2,1.4-3.2,4.3-3.2,4.3h-0.6
	c0,0-0.8,1.1-0.8,1.8c0,0.7,0.9,1.3,0.9,1.3l0.1,12.1l-0.9,0.7v1l1,1.3l0.2,0.8l0.6,1.5v5h0.3v5.6h0.4v11.4l-1,0.4v-3.4l0.2-0.2V246
	l-1.5-1.2l-4.2,1.5v2h0.4v3.1l-2.1,1v-3.8l-0.2-1.6l-1.4-0.8l-2.8,1.4l0.6,1.9v0.5l0.4,0.4v2.3h-0.3v0.8h0.6v4.6h-0.8v0.6l0.4,0.4
	l1,2.4l2.1,0.5l0.4,1.3l1.6,1.3v12.7l-1,2v1.4l0.4,0.4l0.3,0.8l1.3,0.4l0.3,2l-0.9-0.4h-0.6l-0.2,0.9l0.8,1.5v3.7l-0.9,0.8v0.6
	l-0.8,1l-0.1,1.9l1.4,1.4h0.9v4.1l-1,0.8v0.5l0.2,0.2v0.6l-2.4-0.2v-1.8l-9-0.6v1.5l-22.1-1.2v-0.3v-4.6h1.2v-1l-2.2-2.1v-2.2h0.7
	v-1.5l-1.7-1v-35.7h0.7v-9.9c0,0,2.8-1.1,2.7-2.1c-0.1-1-4.3-3.6-4.3-3.6v-6.6v-0.6l0.9-0.9l-2.3-2.3v-2.7h1.5l-1.5-2.6v-2.8
	l-1.1-5.5h-2.2l-0.6,2.7c0,0-3.9-14.1-14.7-25.5c-8.8-9.3-14.6-11.1-14.6-11.1v-1.9h1.4v-1.8h-0.4v-5.2l-5.1-2.9l-1.1-1.1v-14.5
	l3.3-3.3v-2l-1.8-1.7l-1.1-1.1V133h-1.2l-1.6,5.6c0,0-1.3-4.1-5.6-7.2c-2.6-1.9-4.3-1.5-4.3-1.5v-1.6l0.4-0.6l-0.1-2.8l-0.8-0.8
	l0.3-2.1l1-1.1l-0.1-1.9l-1.3-0.7l-0.4-13.6h-0.2H759l-0.4,13.6l-1.3,0.7l-0.1,1.9l1,1.1l0.4,2.1l-0.8,0.8l-0.1,2.8l0.5,0.6v1.6
	c0,0-1.6-0.3-4.3,1.5c-4.3,3.1-5.7,7.2-5.7,7.2l-1.6-5.6h-1.2v9.6l-1.1,1.1l-1.7,1.7v2l3.3,3.3v14.5l-1.1,1.1l-5.1,2.9v5.2h-0.5v1.8
	h1.5v1.9c0,0-5.8,1.7-14.7,11.1c-10.8,11.5-14.7,25.5-14.7,25.5l-0.6-2.7h-2.2l-1.2,5.5v2.8l-1.5,2.6h1.5v2.7l-2.3,2.3l0.9,0.9v0.6
	v6.6c0,0-4.1,2.7-4.2,3.6c-0.1,1,2.7,2.1,2.7,2.1v9.9h0.7v30.9l-0.4-0.2v-1.2l-0.9-0.5v-6.2h-0.7v6.3l-0.9,0.4v1.1h-1.2v0.8l-7-2.9
	v-5.4h-1v5l-10.3-4.9h-26.7v-0.9l-4.6-5.3v-1.3h-1v1.3l-63.1,1.3l-5.3,6.6h-14.4v-2h-1.2v2h-14v-7.8h0.5v-1h0.6l1.6-1.4v-0.6H552
	v-2.8h0.6V261h-1.5v-1.5h-0.4v-2.8h0.8V256l-0.3-0.6h-0.6v-0.8h0.3v-0.9h-0.5v-3.6l-0.4-0.8l-0.5,0.8v3.6H549v0.9h0.3v0.8h-0.6
	l-0.3,0.6v0.7h0.8v2.8h-2v-2.8h0.8V256l-0.3-0.6H547v-0.8h0.3v-0.9h-0.4v-3.6l-0.5-0.8l-0.5,0.8v3.6h-0.4v0.9h0.3v0.8h-0.6l-0.3,0.6
	v0.7h0.8v2.8h-2.7v-2.8h0.8V256l-0.3-0.6h-0.6v-0.8h0.3v-0.9h-0.4v-3.6l-0.5-0.8l-0.5,0.8v3.6h-0.4v0.9h0.3v0.8h-0.6l-0.3,0.6v0.7
	h0.8v2.8h-5.8v-2.8h0.8V256l-0.3-0.6h-0.6v-0.8h0.3v-0.9h-0.5v-3.6l-0.5-0.8l-0.5,0.8v3.6h-0.4v0.9h0.3v0.8h-0.6l-0.3,0.6v0.7h0.7
	v2.8h-3.3v-2.8h0.8V256l-0.3-0.6h-0.6v-0.8h0.3v-0.9h-0.4v-3.6l-0.5-0.8l-0.5,0.8v3.6H529v0.9h0.3v0.8h-0.6l-0.3,0.6v0.7h0.8v2.8
	h-2.5v-2.8h0.8V256l-0.3-0.6h-0.6v-0.8h0.3v-0.9h-0.4v-3.6l-0.5-0.8l-0.5,0.8v3.6h-0.4v0.9h0.3v0.8h-0.6l-0.3,0.6v0.7h0.8v2.8h-5.8
	v-2.8h0.7V256l-0.3-0.6h-0.6v-0.8h0.3v-0.9h-0.5v-3.6l-0.4-0.8l-0.5,0.8v3.6h-0.4v0.9h0.3v0.8h-0.6l-0.3,0.6v0.7h0.8v2.8H515v-2.8
	h0.8V256l-0.3-0.6h-0.6v-0.8h0.3v-0.9h-0.4v-3.6l-0.5-0.8l-0.5,0.8v3.6h-0.4v0.9h0.3v0.8H513l-0.3,0.6v0.7h0.8v2.8h-1v-6.8h-0.5
	v-2.3h0.8v-0.7l-0.3-0.6h-0.6v-0.9h0.3v-0.9h-0.4v-3.6l-0.5-0.8l-0.5,0.8v3.6h-0.4v0.9h0.3v0.9h-0.6l-0.3,0.6v0.7h0.8v2.3h-5.9v-2.3
	h0.8v-0.7l-0.3-0.6h-0.6v-0.9h0.3v-0.9h-0.5v-3.6l-0.5-0.8l-0.5,0.8v3.6h-0.4v0.9h0.3v0.9h-0.6l-0.3,0.6v0.7h0.8v2.3h-2.1v-2.3h0.8
	v-0.7l-0.3-0.6h-0.6v-0.9h0.3v-0.9h-0.4v-3.6l-0.5-0.8l-0.4,0.8v3.6h-0.5v0.9h0.3v0.9h-0.6l-0.3,0.6v0.7h0.8v2.3h-2.2l-21.5-15.4
	v-3.2h-0.9v3.2L454.8,253l-2,0.3v-2.9h0.7v-0.7l-0.3-0.6h-0.6v-0.9h0.3v-0.9h-0.4v-3.6l-0.5-0.8l-0.5,0.8v3.6h-0.4v0.9h0.3v0.9h-0.6
	l-0.3,0.6v0.7h0.8v3.2l-1.4,0.2v-15.4l0.4-0.3v-0.4h0.5v-1.3l-0.5-0.3h-1.6v-3.3h0.7v-0.7l-0.3-0.6h-0.6v-0.8h0.3v-0.9h-0.4V226
	l-0.5-0.9l-0.5,0.9v3.6H447v0.9h0.3v0.8h-0.6l-0.3,0.6v0.7h0.8v3.3h-1.8v-3.3h0.8v-0.7l-0.3-0.6h-0.6v-0.8h0.3v-0.9h-0.4V226
	l-0.5-0.9l-0.5,0.9v3.6h-0.4v0.9h0.3v0.8h-0.6l-0.3,0.6v0.7h0.8v3.3h-1.3V235l-1-0.9v-1h0.3v-2.2h-0.3v-1.4c0,0-0.2-7.5-5.6-10.1
	v-0.7h0.4v-1.2H436v-3.9l-0.8-0.9v-6.2h0.5v-1.2h-0.5v-1.1c0,0,0.2-3.9-4.6-4.8v-1.2h0.3v-2.5h-0.7v-6h0.3v-1.3h-0.5v-1.2l-0.6-1
	l-0.6,1v1.2h-0.5v1.3h0.3v6H428v2.5h0.4v1.2c-4.8,0.9-4.6,4.8-4.6,4.8v1.1h-0.5v1.2h0.5v6.2l-0.8,0.9v3.9h-0.5v1.2h0.5v0.7
	c-5.3,2.6-5.6,10.1-5.6,10.1v1.4h-0.3v2.2h0.3v1l-1,0.9v0.9h-1.3v-3.3h0.8v-0.7l-0.3-0.6H415v-0.8h0.3v-0.9h-0.4V226l-0.5-0.9
	l-0.5,0.9v3.6h-0.4v0.9h0.3v0.8h-0.6l-0.3,0.6v0.7h0.8v3.3h-1.8v-3.3h0.8v-0.7l-0.3-0.6h-0.6v-0.8h0.3v-0.9h-0.4V226l-0.5-0.9
	l-0.5,0.9v3.6h-0.4v0.9h0.3v0.8h-0.6l-0.3,0.6v0.7h0.8v3.3h-1.6l-0.5,0.3v1.3h0.5v0.4l0.4,0.3v18.3h-7.6v-3h0.8V253l-0.3-0.6h-0.6
	v-0.8h0.3v-0.9h-0.4V247l-0.5-0.8l-0.5,0.8v3.6h-0.4v0.9h0.3v0.8h-0.6l-0.3,0.6v0.7h0.8v3h-2.3v-3h0.8V253l-0.3-0.6h-0.6v-0.8h0.3
	v-0.9h-0.4V247l-0.5-0.8l-0.5,0.8v3.6h-0.5v0.9h0.3v0.8h-0.6l-0.3,0.6v0.7h0.8v3h-12.5v-17.1l0.4-0.3v-0.4h0.5v-1.3l-0.5-0.3h-1.5
	v-3.2h0.7v-0.7l-0.3-0.6h-0.6v-0.8h0.3v-0.9h-0.4v-3.4L382,227l-0.4,0.8v3.4h-0.4v0.9h0.3v0.8h-0.6l-0.3,0.6v0.7h0.7v3.2h-1.7v-3.2
	h0.7v-0.7l-0.3-0.6h-0.6v-0.8h0.3v-0.9h-0.4v-3.4l-0.4-0.8l-0.4,0.8v3.4h-0.4v0.9h0.3v0.8h-0.6l-0.3,0.6v0.7h0.7v3.2h-1.2v-0.9
	l-1-0.9v-1h0.3v-2.1h-0.3v-1.4c0,0-0.2-7.1-5.3-9.6v-0.6h0.4v-1.2h-0.4v-3.7l-0.7-0.9v-5.9h0.5v-1.1h-0.5V207c0,0,0.2-3.7-4.4-4.6
	v-1.1h0.3v-2.4h-0.7v-5.8h0.3v-1.2h-0.5v-1.1l-0.5-1l-0.5,1v1.1h-0.5v1.2h0.3v5.8h-0.7v2.4h0.3v1.1c-4.5,0.9-4.3,4.6-4.3,4.6v1.1
	h-0.5v1.1h0.5v5.9l-0.7,0.9v3.7h-0.4v1.2h0.4v0.6c-5.1,2.5-5.3,9.6-5.3,9.6v1.4h-0.3v2.1h0.3v1l-1,0.9v0.9h-1.2v-3.2h0.7v-0.7
	l-0.3-0.6h-0.6v-0.8h0.3v-0.9h-0.4v-3.4l-0.4-0.8l-0.5,0.8v3.4H349v0.9h0.3v0.8h-0.6l-0.3,0.6v0.7h0.7v3.2h-1.7v-3.2h0.7v-0.7
	l-0.3-0.6h-0.6v-0.8h0.3v-0.9h-0.4v-3.4l-0.4-0.8l-0.4,0.8v3.4h-0.4v0.9h0.3v0.8h-0.6l-0.3,0.6v0.7h0.8v3.2h-1.5l-0.5,0.3v1.3h0.5
	v0.4l0.4,0.3v20.8h-1.2v1.8h0.7v1.2l0.2,0.5v4.3h-3.4v0.9h1.3v0.8l1.1,0.7h0.9v19.7h-4.5v-1.5h-1v1.8l-12.6,6.4v1.2h1v1.8l-6.7,0.4
	V296l-0.2-4.4l2.1-2.1l-0.6-2.7h1.5v-1.1l1.1-1.1V283l-0.5-0.5l-0.7-1.6l-2.3-0.3c0,0,0-1.2-3.2-4.1c-3.2-2.9-8.6-2.8-8.6-2.8
	l-4,0.2l-0.4-6.2l-0.2-0.8c0,0,0.4-0.9,0.4-1.7c0-0.8,1.6-2.7,2.3-3.4c0.6-0.6,1.3-1.6,1.1-2.9c-0.2-1.3-1.2-2.9-1.2-2.9
	s1.5-2,2.1-3.4c0.6-1.4-0.3-4.4-0.5-4.9c-0.1-0.5,0-3.2,0-3.2s0.8-0.6,0.8-0.8c0-0.2,0.2-0.4,0.5-0.9c0.3-0.5,0-5.5,0.2-6
	c0.1-0.5,0.4-2.1,0.4-2.4c-0.1-0.3-0.4-0.7-0.4-0.7s0.4-4.2,0.4-4.4c0-0.2-0.5-0.3-0.5-0.3l-2.3,2.1l-0.8,0.2l-2.5-2.1l-0.9,0.1v2.8
	c0,0-0.3,0.8-1.1,1.3c-0.8,0.5-1.8,2.8-1.8,2.8l-1.5-0.4c0,0-0.8-3-0.8-3.6c0-0.6-0.9-1.6-0.9-1.6l-1.5,0.1l-0.5-1.1
	c0,0,0.3-1.6,0.5-1.7c0.2-0.2,0.2-2.1,0.2-2.3c-0.1-0.3-0.3-1.3-0.3-1.3l0.8-0.2v-2.5l-1.5-3l-1.6-0.9c0,0-0.5,0.8-0.6,1.1
	c-0.2,0.3-1.3,0-1.7,0c-0.4,0-0.9,0.6-0.9,0.6s-0.8,1.6-0.9,1.7c0,0.2-1,1.2-1,1.2s0.1,0.7,0.1,1.1c0,0.4,1,0.3,1,0.3s0,3.5,0,3.6
	c0,0.2,0.8,1.9,0.8,1.9l-0.3,1.1l-0.7-0.3h-0.9c0,0-1,1.2-1.8,1.7c-0.9,0.5-1.3,2.7-1.3,2.7l-0.4,3.5c0,0-0.4,1.8-0.3,2.7
	c0.1,0.9,0.3,3.8,0.3,3.8s-0.7,0.4-1.1,0.7c-0.4,0.3,0,2.4,0,2.4s-2.2,0.5-3.1,1.3c-2.4,2.3-2.2,5.4-1.9,7.3
	c0.2,1.7,0.6,3.3,0.9,4.4c0.3,1.1,1.5,5.2,1.5,5.2l-1.1,5.6l-0.8,1l-0.1,2l0.9,2.2v1.4l-1.2,0.5l-1.4-0.5h-2.2l-0.1,2.9l-1.1,2.1
	l0.3,1l-2.9,1.9v3.3l4.5,1.6v15.7v1.6l-0.8,1.5l-1,3.6v2.1v2.8l-1.6,1.5l-1.2,3.3l-1.9,1.2l-0.4,1.1l3.4,3.3l-0.5,2.8h-1l-0.5,1.1
	l0.1,2.9l0.7,0.7h-4.1v-24.2l0.3-0.2v-3.3h-0.4v-1.7l0.3-0.3v-0.9h0.5v-1.6l0.8-0.3l0.5-0.5l0.8-1l-0.5-0.5h-2.4l-1.5-1.9v-0.7h-0.6
	v-6.2l1.2-0.6v-1.1h-1l-0.7-0.7h-1.6c0,0,0.2-2-0.6-2.7c-1.4-1.2-2.5-0.9-2.5-0.9l-2.6-3.4c0,0-0.3-0.1-0.5-0.1
	c-0.2,0-0.5-0.4-0.5-0.4s0.5-0.1,0.5-0.3c0.1-0.2-0.1-1-0.1-1s-0.5-0.4-0.8-0.1c-0.4,0.2-0.6,0.4-0.6,0.4l-1.9-0.1l-2.1-1.9
	l-0.7-0.2l-0.2-0.9l0.4-1l-0.4-0.8h-1.3l-0.9,1l0.2,1.7l-0.6-0.1l-1.4,1v-17.1h0.6v-1.2l1-1.1v-1.2h0.7v-0.6l0.4-0.4v-0.5h-3.4v-1.3
	l-0.2-0.2v-2.5h0.3v-1.2h-5.4v-2h0.4v-1.2h-1.1h-12v0.4h-1.3c0,0,0.1-0.4,0-0.7c-0.2-0.3-0.7-0.3-0.9-0.5c-0.1-0.2,0.4-0.3,0.5-0.7
	c0.2-0.4,1.2-2.9,0.2-3.6c-1-0.7-1.7-1.2-1.8-1.4c0-0.3-1.1-1-1.6-1c-0.4,0-0.4-0.3-0.4-0.6c0-0.3,0-3.6,0-3.6l0.3-0.4l0.2-1.2
	l-0.9,0.3l-0.3,0.9l-1.4,2.1l-0.3-2.3l-0.4-0.1V237c0,0,1-1,0.9-1.2c-0.1-0.3-0.7-0.7-0.7-0.7l-0.2-0.6l-0.9-0.3l-0.6,0.4v0.5
	l-0.6,0l0.1,3.3h-0.6l-0.6-0.6l-0.4-1.2l-0.9-0.8l-0.3,0.8l0.3,0.7l-0.3,1.3c0,0-0.2-0.1-0.4-0.3c-0.2-0.2-0.8-1.6-0.8-1.6l-0.1-1.5
	h-1.3v-2.2c0,0,0.4,0.3,0.7,0.3c0.3,0,0.8-0.3,0.8-0.3l3.1,0.5c0,0,0.9,0.7,1.1,0.6c0.2-0.1,1.4-0.2,1.3-0.9
	c-0.1-0.7-0.8-1.5-1.7-1.2c-0.9,0.3-0.7,0.5-0.7,0.5s-0.8-0.2-1.1-0.4c-0.3-0.2-1.6-1.2-1.8-1.1c-0.2,0.1-0.8-1.5-1-1.7
	c-0.2-0.2-1.1-1.5-1.9-1.5c-0.7-0.1-1-0.2-1-0.2l0.2-0.3l0.3-1.1l0.3-0.2l0.1-0.8c0,0-0.4-0.8-0.7-1c-0.4-0.2-0.5-0.2-0.5-0.2
	s-0.2-0.1-0.5,0.2c-0.3,0.2-0.7,1-0.7,1l0.1,0.8l0.3,0.2l0.3,1.1l0.2,0.3c0,0-0.3,0.1-1,0.2c-0.7,0.1-1.6,1.3-1.9,1.5
	c-0.2,0.2-0.8,1.8-1,1.7c-0.2-0.1-1.5,1-1.8,1.1c-0.3,0.2-1.1,0.4-1.1,0.4s0.1-0.3-0.7-0.5c-0.9-0.3-1.6,0.5-1.7,1.2
	c-0.1,0.7,1.1,0.8,1.3,0.9c0.2,0.1,1.1-0.6,1.1-0.6l3.1-0.5c0,0,0.5,0.3,0.8,0.3c0.3,0,0.7-0.3,0.7-0.3v2.2h-1.2l-0.1,1.5
	c0,0-0.6,1.3-0.8,1.6c-0.2,0.2-0.4,0.3-0.4,0.3l-0.3-1.3l0.3-0.7l-0.4-0.8l-0.9,0.8l-0.4,1.2l-0.6,0.6h-0.6l0.1-3.3l-0.6,0v-0.5
	l-0.6-0.4l-0.9,0.3l-0.2,0.6c0,0-0.6,0.4-0.7,0.7c-0.1,0.3,0.9,1.2,0.9,1.2v0.3l-0.4,0.1l-0.3,2.3l-1.5-2.1l-0.3-0.9l-0.8-0.3
	l0.2,1.2l0.3,0.4c0,0,0,3.3,0,3.6c0,0.3,0,0.6-0.5,0.6c-0.4,0-1.5,0.7-1.6,1c-0.1,0.3-0.7,0.7-1.8,1.4c-1,0.7,0,3.2,0.2,3.6
	c0.2,0.4,0.6,0.5,0.5,0.7c-0.1,0.2-0.7,0.2-0.8,0.5c-0.2,0.3,0,0.7,0,0.7h-1.3v-0.4h-12h-1v1.2h0.4v2h-5.4v1.2h0.3v2.5l-0.2,0.2v1.3
	h-3.4v0.5l0.4,0.4v0.6h0.7v1.2l1,1.1v1.2h0.6v17.1l-1.4-1l-0.6,0.1l0.2-1.7l-0.8-1H169l-0.4,0.8l0.4,1l-0.2,0.9l-0.7,0.2l-0.9,0.8
	V277l1.3-1.3v-1.4l-2-1.9l-1.9-1.9v-5.3l1.2-1.2v-1.7l-1.8-1.8v-12.4l-0.6,0.6l-0.7,4.3l-0.8-6.1h-0.5l-1.6,9.1v3h-0.8l-0.8,4.9
	h-1.8l-1.7-4v-3.9l1.4-1.5l-1.4-2.1v-16.8l1.3-1.2v-4.8l1.3-1.3v-1.3l-2.6-2.8v-8.2v-0.3v-1.8l-0.5-1.1v-3.8l0.7-0.7v-1.4l-1-1
	l-0.5-4.8l-0.9-2l-0.5,1.9l-0.3,5h-0.9v-0.9h0.6v-0.9h-1.2v-3.1l-0.7-2l-0.5-4.8h-0.4l-0.5,3c0,0-3.8-7.3-7.9-11.7
	c-4.1-4.3-8.6-6.7-8.6-6.7v-1.9l-1.5-21.2h-0.4l-0.9,21.1v2.1c0,0-18,13.6-18.5,27.6v9.6h-1v-1.3h0.6v-1.8l-0.5-0.5v-4.7l0.3-0.3
	v-0.9l-1.2-0.6l-0.4-5.7l-0.5-1.1l-0.5,1.3l-0.3,5.4l-1,0.8l0.5,1l0.4,0.3v4.8l-0.7,0.8v1.4l0.7,0.7v9.6l-0.7,0.7v1.6h-2.1v2.1
	l3,2.8v2h-0.6v1.1l0.9,0.9v16.3l-5.5,9.1v-3.5h-1v-6.3h-0.4v6.4h-1v2.6h-0.4v1.7h0.6v2.9h-1.4V263l-0.6,0.7l-0.4,2.6l-1.2,0.3
	l-0.3-2h-0.6v2.5l-1.5,0.1l-8.8,1.7v-4.4l-1.7-7.4l-0.8,6v5l-14.8,2.8v-1.5l0.3-0.3v-2l0.6-0.6V264l-1.4-2.1v-8.2l0.6-0.6l-0.6-5.7
	c0,0-0.8-0.6-0.8-0.8c0-0.2-0.3-5.3-0.3-5.3l-3.5-1.4l-4.6-17.9v-2.7l0.7-0.7v-1.1l-0.9-0.9v-2.1l0.7-0.7v-1.3l-2-3.6l-1.1,3.2v1.6
	l0.7,0.9v1.7l-0.9,0.8v1.6l0.7,0.8v2.2L50.1,242l-3.1,0.5v5.1l-0.9,0.9v4.5l1.1,1.1v10.1l-1.5,1.4v1.2l0.8,0.7v9.6l-1.6,0.3v-2.1
	l0.4-0.3l0-3.6l0.7-1.1l-0.1-1.5l-0.8-0.8v-11.7l0.6-0.6v-1.2l-1.5-1.5l-0.2-5.4h-0.9l-1,4.3l-0.7-0.1v-4.8l-1.2-0.7l-4-15.8v-2
	l-1-1.2v-1.6l0.6-0.5v-0.9l-0.6-0.7v-2.2l0.5-0.6l0.1-1l-1.6-4.6l-1.5,4.3v1l0.5,0.8l0.3,2.5l-0.8,0.4v1l0.6,0.7l0.1,1.1l-1,1v2.1
	L29,246.7l-1,0.4l-0.6,5.1l-0.7,0.2l-0.6-5.3l-0.9,0.1l-0.4,5.5l-0.5,1.1l1.6,1.4V268l-1.6,1.5v1.9l0.9,0.3v2.3l0.8,0.2l-0.2,7.9
	v29.9h-1.4v7.1H7.8v-3.8H6.6V313v-4.9H5.3v20.2H2v15.6H0.1v62.9H1024v-30.3L1015.7,365.4z M226,339.1h-3.8v-5h-1v-0.6H216v0.6h-2.2
	v-1h-3.1v1h-0.9v9.4h-1v-5.1h-4.9v3.1h-1.8v2h-0.8v-6.1h-4.8v14.8h-2.4v-3.4l-0.7-0.7v-30.7h1v-6.7h0.8l0.9-1.2h1.9v-1.1h0.5v-1H198
	v-1.9h-2.5v-1.6h1v-1h0.7l0-2l-0.4-1.3c0,0,0.5-1.8,2.9-4.2c2.4-2.4,6.8-3.6,8.1-3.6c1.3,0,1.9,0,1.9,0s0.5,0,1.8,0
	c1.3,0,5.7,1.2,8.1,3.6c2.4,2.4,2.9,4.2,2.9,4.2l-0.4,1.3l0,2h0.6v1h1v1.6h-2.5v1.9h-0.6v1h0.5v1.1h2l0.9,1.2h0.8v6.7h1V339.1z
	 M291.5,275.9l-6.6,1.8c0,0,0.9-8,0.9-8.9c0-0.8-0.9-2.7-0.5-3.6c0.4-0.9,1.4-2.1,1.4-2.1l1.7,0.4c0,0,0.1,2.6-0.3,3.1
	c-0.3,0.5-1.4,1.6-0.6,2.3c0.8,0.6,3.1,3.4,3.1,3.4s1.3,1.2,1.3,1.8C291.8,274.5,291.5,275.9,291.5,275.9z M302.4,267.1l0.3,6.5
	l-0.6,0.3l-0.6,0.6l-5.8,0.5l-0.6-0.5c0,0-1-1.6-1-2.1c-0.1-0.5-2.3-2.7-2.9-3.2c-0.7-0.5-0.4-1.6-0.4-1.6s1.6-2.1,3-3.4
	c1.4-1.2,0.9-3.1,0.9-3.1s1.8-0.1,3-0.6c1.2-0.5,2.7-1.2,2.7-1.2l1.7,0.5l0.8,1.5l-0.3,2.9H302l-2.1,0.9v0.8L302.4,267.1z
	 M383.9,260.5h-0.2v-3.1h0.2V260.5z M385.3,260.5h-0.7v-3.1h0.7V260.5z M386.7,260.5H386v-3.1h0.7V260.5z M388.1,260.5h-0.7v-3.1
	h0.7V260.5z M389.5,260.5h-0.7v-3.1h0.7V260.5z M390.8,260.5h-0.7v-3.1h0.7V260.5z M392.2,260.5h-0.7v-3.1h0.7V260.5z M393.6,260.5
	h-0.7v-3.1h0.7V260.5z M395,260.5h-0.7v-3.1h0.7V260.5z M396.3,260.5h-0.6v-3.1h0.6V260.5z M399.1,260.5h-0.7v-3.1h0.7V260.5z
	 M400.1,260.5h-0.3v-3.1h0.3V260.5z M401.9,260.5h-0.3v-3.1h0.3V260.5z M403.3,260.5h-0.7v-3.1h0.7V260.5z M404.6,260.5h-0.7v-3.1
	h0.7V260.5z M406,260.5h-0.7v-3.1h0.7V260.5z M407.4,260.5h-0.7v-3.1h0.7V260.5z M408.8,260.5h-0.7v-3.1h0.7V260.5z"/>
</svg>
