<?xml version="1.0" encoding="utf-8"?>
<!-- Generator: Adobe Illustrator 19.2.1, SVG Export Plug-In . SVG Version: 6.00 Build 0)  -->
<svg version="1.1" id="Ebene_1" xmlns="http://www.w3.org/2000/svg" xmlns:xlink="http://www.w3.org/1999/xlink" x="0px" y="0px"
	 viewBox="0 0 1024 512" enable-background="new 0 0 1024 512" xml:space="preserve">
<path fill="#1D1D1D" d="M932,458v-33h-3v-1h-2v-3l0,0v-8h-1v-3h-2v3h-4v8h-9v3h-11v1h-2v41h-5v-2l0,0l0,0h-9l0,0h-1v-39h-1v-23.5
	l-2-0.8V391h-13v1.9l-7.3-4.5L838,401.5V451h-4v-7h-3v-5h-8v5h-1v7h-1v12h-4v9h-0.5c-9.3-17-33.4-61.9-33.4-61.9l0.9-8.7V399l0,0
	v-11h-10.4c0,0-5.4-14.8-8.1-23.4c-2.7-8.6-12.8-47.3-12.8-47.3s1.1-1.6,2.7-1.6l2.5-8.7H757v-3h-7.3c0,0-6.6-44.6-7.7-59
	c-1.8-24.6-5.7-85.7-8.9-148.9c0,0-1.1-10.6,3.9-15.7V69.2l-2-1.1v-4.9l-1-0.8V60h1v-3h-1.4c0,0-0.6-4.9-5.6-5.9V47h-2V32.6
	l-0.6-0.6l-0.3-20h-0.4l-0.7,20l-0.9,0.6V47h-1v4.1c-5,1-5.9,5.9-5.9,5.9H715v3h1v2.3l-2,0.8v4.9l-1,1.1v11.2
	c5,5.1,3.7,15.7,3.7,15.7c-3.2,63.2-7.3,124.4-9.1,148.9c-1,14.4-7.7,59-7.7,59h-8v3h-0.2l2.5,8.7c1.6,0,2.7,1.5,2.7,1.5
	s-10.1,38.7-12.8,47.3c-2.7,8.6-8.1,23.5-8.1,23.5H666v11l0,0v2.3l0.7,8.7c0,0-10.4,18.9-19.2,35.9h-13c0,0-0.5-3.7-3.5-5.1v-2.7
	l-0.8-1.7l-0.7,1.5H629v-7.3v-0.2V429h1v-2h-1v-4h-2v2.2l-1-0.8c0,0,2-18.1-15-31.6v-1.3l-1-0.7V390l0,0v-2l0,0v-9.8v-0.3V376h-0.7
	c0,0,0.6-4-3.6-9.2L605,361h-0.3l-0.7,5.8c0,0-3.2,2.2-3.4,9.2H600v1.8l1,0.3v9.9h-1v2l0,0v1.1v0.8v1.2c0,0-9.1,8.9-10,12.9h-1v-7.1
	v-0.4v-2.7l-2-2.7v-2.2l-0.8-0.6l0-4.5l0.9-1l-1.1-7.5l-3.6-4.6c0,0-0.3-24.1-24.3-41.7v-1.3l-3-3.5v-4.7v-0.1v-1.3l-1-0.8v-10.2
	l1-0.2v-2.5l0.3-0.5l-0.4-2l-0.9-0.7v-3.6c0,0,0-5.7-4.5-9.1l-0.7-8.3h-0.1h-0.1l-0.9,8.3c-4.5,3.5-4.7,9.1-4.7,9.1v3.6l-0.6,0.7
	l0,2l0.6,0.5v2.5v0.2v10.2l-1,0.8v1.3l1,0.1v4.7l-4,3.5v1.3c-24,17.6-24.1,41.7-24.1,41.7l-3.5,4.6l-1.1,7.5l1,1l0.2,4.5l-0.5,0.6
	v2.2l-2,2.7v2.7l-1,0.4v7.1h-0.6c-0.9-4-10.4-12.9-10.4-12.9v-1.2v-0.8V390l0,0v-2l0,0v-9.9v-0.3V376h-0.2c-0.2-7-3.4-9.2-3.4-9.2
	l-0.7-5.8h-0.3l-0.6,5.8c-4.2,5.2-3.6,9.2-3.6,9.2H488v1.9v0.3v9.8h-1v2l0,0v0.9v0.7v1.3c-18,13.5-15.5,31.6-15.5,31.6l-1.5,0.8V423
	h-1v4h-1v2l0,0v1.5v0.2v7.3h-0.1l-0.8-1.5l-1,1.7v2.7c-2,1.5-3.2,5.1-3.2,5.1H462v-22h-4v22h-1v-16h-1v2h-15v-2h3v-4h-3v-3h3v-4h-3
	v-3h3v-4h-3v-4h3v-4h-3v-3h3v-4h-3v-3h3v-4h-3v-3h3v-5h-3v-3h3v-4h-3v-3h3v-4h-3v-3h3v-5h-3v-3h3v-4h-3v-3h3v-4h-3v-3h3v-4h-3v-4h3
	v-4h-3v-3h3v-4h-3v-3h3v-4h-3v-3h3v-5h-3v-3h3v-4h-3v-3h3v-4h-3v-3h3v-5h-3v-3h3v-4h-3v-3h3v-4h-3v-3h-24v-2h-13v-21.2l-11,11.3v9.9
	h-3v2h-1v121h-8v-2h-1v-3h-7v3h-7v2h-1v52h-1v-2h-21v2h-5v22h-4v-14h-5v14h-1v7h-7v2h-3v-39h-1v2h-2v-7h1v-1.5l-2-1.2v-7.4l1-1.4
	V418h-1v-3l0,0v-10l0,0v-2h2v-1h-2v-5h3l0,0h-2v-7l0,0v2h-3v-31.3v-0.6V354h-1v-2h-1v2h-1v-4h1v-2l0,0v-3h-1v-2h1v-1.4l-2.2-2.6H305
	v-2h-0.5l-1.5-2.1V332l0,0v2.9l-1.1,2.1H301v4h-28.7l-2.3,0.9v2.5l-1.1,1.3l0.1,2.1v3.2h-2v6h-1v1h1v7.3V392h-9.7l-1.3-18.7V369l0,0
	v-1h0.1l-0.5-9.4L255,368h0v1l0,0v4.3l-1.2,18.7H244v-26.7V358h1v-1h-1v-6h-2v-3.2l0.1-2.1l-1.1-1.3v-2.5l-2.2-0.9H210v-4h-0.8
	l-1.2-2.1V332l0,0v2.9l-1.4,2.1H206v2h-2.7l-2.3,2.6v1.4h1v2h-1v3l0,0v2h1v4l0,0v-2h-2v2h-1v6.1l1,0.6V392h-3v-2h-1v7h-2l0,0h3v5h-2
	v1h2v2l0,0v10l0,0v3h-1v0.5l1,1.4v7.4l-1,1.2v1.5l0,0v7h-1v-2h-2v42h-3v-68.6l-24-10.4l-23,10.4V446h-8v-66.4l-17,9.4v40.6l-4.6-2.3
	L104,432v29.7l-2.4-1.1l-8.6,4.7V477h-2v-18h1v-2.6l1-0.8V455h-2v-18h1v-1l0,0v-1h1v-1h-1v-4.6v-0.1V428h2v-0.9l1-0.8v-1.1l1-1V424
	h-4v-3l0,0v-5l0,0v-1.3l1-0.8V413h-1v-2h-2v1h-7v-1h-1v1h-6v-1h-2v1h-6v-1h-2v1h-6v-1h-2v1h-7v-1h-1v1h-3.3h-0.1H44v-1h-2v1h-7v-1
	h-2v1h-6v-1h-1v1h-7v-1h-1v1h-7v-1h-1v1H4v-1H2v2H0v99h336.9H1024v-54H932z M50.4,485h-1.3v-0.9h1.3V485z M50.4,483.2h-1.3v-1h1.3
	V483.2z M50.4,481.3h-1.3v-1h1.3V481.3z M50.4,479.3h-1.3v-1h1.3V479.3z M50.4,477.4h-1.3v-1h1.3V477.4z M50.4,475.5h-1.3v-1h1.3
	V475.5z M50.4,473.6h-1.3v-1h1.3V473.6z M50.4,471.6h-1.3v-1h1.3V471.6z M50.4,469.7h-1.3v-1h1.3V469.7z M50.4,467.8h-1.3v-1h1.3
	V467.8z M58,499h-1v-7h1V499z M62,456v3h1v37.3l-1,0.9v1.7l0,0v-13h-4v1h-1v-22h-7v1h-1v-8H37v36h-1v-8h-3v8.2v4.8h-2v-1.7v-0.9V491
	h1.2c0,0-0.2-0.4-1.2-1.3V459l0,0v-3h1v-1h-1.3c1.6-14,14.9-14.4,14.9-14.4c0.3,0.5,1,0.5,1,0.5s0.7,0,1-0.5c0,0,13.3,0.4,14.9,14.4
	H62V456L62,456z M722,229h5.4l7,75h-19.4L722,229z M713.5,328h22.6c0,0,2,20,10.2,60h-43C711.5,348,713.5,328,713.5,328z M782,481
	v-3h-26v3h-9v-35h-2v-2h-20v2h-8v41h-6v-30h-1v-1h-1v-2h-5v2h-6v1h-6v17h-20v10h-11.1c9.9-56,64-56.7,64-56.7S777,428,788.3,481H782
	z"/>
</svg>
