<?xml version="1.0" encoding="utf-8"?>
<!-- Generator: Adobe Illustrator 19.2.1, SVG Export Plug-In . SVG Version: 6.00 Build 0)  -->
<svg version="1.1" id="Ebene_1" xmlns="http://www.w3.org/2000/svg" xmlns:xlink="http://www.w3.org/1999/xlink" x="0px" y="0px"
	 viewBox="0 0 1024 512" enable-background="new 0 0 1024 512" xml:space="preserve">
<path fill="#1D1D1D" d="M1019.5,477v-8h0.7v-7.8h-0.7v-26.9h0.7v-1.1h-0.9v-12.4l-1.5-5.5v-7.9l-1.5-8.8V395l-1.1-0.8v-23.8h-0.4
	v-2.5l-1.2-0.3V362l-0.8-1.6l-0.9,1.4v3.4h-0.8v-7.3h0.4v-2.1l-0.5-0.5V349h0.6v-0.5h-2.6l-1.8-1.6h-2.9l-3.3,2.1h-2.5v3h-0.4v1.5
	h-1.3v-1.3h-2.3v1.6h-1.6v-1.7h-0.9v-1H990v0.9h-0.8v0.7h-1.9v1h-3.2v-1.1h-1v-2h-4.3v6.7h-0.7v0.9h0.4v5.1l-1-0.8h-0.5l-0.5,6.8
	H976v26.5h-0.6v3.7l-1.8,7.5h-0.9v-5.2h-0.6v5.2h-0.7v2.5h0.2v5.8l-2.6-3.1v-7.7h-0.8v-5.3h-0.6v5.2h-0.8v3l-2.7-3.3V398h0.6v-2.1
	h-0.6v-4.3l-0.5-0.6v-2.4h-0.3v0.4h-1l-0.3-5.2l-0.3-0.3v-3.3l-0.3-0.2v-1.8h0.3v-0.4h-0.4v-0.6l-0.2-0.2l-0.2,0.2v0.6h-0.4v0.4h0.3
	v1.8l-0.3,0.2v3.3l-0.3,0.3l-0.3,5.2h-1v-0.4h-0.3v2.4l-0.5,0.6v4.3h-0.6v2.1h0.6v6.1l-2.7,3.3v-3h-0.8v-5.2H954v5.3h-0.8v7.7
	l-2.6,3.1v-5.8h0.3V407h-0.7v-5.2h-0.6v5.2h-0.9l-1.8-7.5v-3.7h-0.6v-26.5h-0.4l-0.5-6.8h-0.5l-1,0.8v-5.1h0.4v-0.9h-0.6v-6.7h-4.3
	v2h-1v1.1h-3.2v-1H933V352h-0.8v-0.9H930v1h-0.9v1.7h-1.6v-1.6h-2.3v1.3h-1.3V352h-0.4v-3h-2.5l-3.3-2.1h-2.9l-1.7,1.6h-2.6v0.5h0.6
	v6.4l-0.5,0.5v2.1h0.4v7.3h-0.8v-3.4l-0.9-1.4l-0.8,1.6v5.6l-1.2,0.3v2.5h-0.4v23.8l-1.1,0.8v3.7l-1.5,8.8v7.9l0,0.1l-7.3-1.4v-0.9
	l-5.2-0.6V401h-0.8v-6.2h-3.2l-5.2-4.7v-9.3l-2-2.1v-4h-3.3v0.7h-1.1v0.7l-2.5,1.4v1.2h-15.5v-1.5h-0.8v-15.3l0.7-0.4v-2.2l0.7-0.4
	v-1h-1v-5l1.7-1h1.6v-1.2l-5.2-4.4V341h1.5l-0.7-2h-1.9c-1.8-7.1-7-7.7-7-7.7v-1.5h-0.8V329h0.8v-2.2l-1.2-1V325h1.2v-1.5l-1.1-0.1
	v-11.9h-0.9v11.9l-1,0.3v1.4h1v0.8l-1,1.1v2.2h0.5v1h-0.9v1.3c-5.7,1.8-6.5,8.2-6.5,8.2h-1.7l-0.7,2h1.4v5l-4.7,4.6v1.3h1.2l1.8,0.6
	v4.5h-1v1l0.6,0.6v2l1.3,0.5v15.7h-0.7v1.6h-10.4v-2.6l-4.1-9.1v-4.1h-1.2v4.1l-3.5,8.1V369h-10.8v-2.4h-1.2v-7.5l-2.2-0.5v-4.5
	h-0.7v4.5l-1.9,0.7v7.3h-0.9v2.7h-9.9v-2.2l-1.5-8.9l-0.9,9v2.3h-6.1v6.5h-8v-2.1l-1.1-0.9v-3.4h-1v3.3l-1,1v2.3h-7.2v-4.4h-0.7v1.3
	l-1.2,0.6l-0.5-2.2v-6.2h1.1v-1.2l-2.5-3.6l-0.8-19.6l-0.5,19.7l-2.4,3.5v1.2h0.9v6.3l-0.7,1.9l-1.1-0.5v-1.2h-0.6v4.4h-10.3v1.1
	l1.5,1v3.7h-10.2l-1.2,0.5v2.5h-3v-8h-1.3v1h-1v-0.9h-1.1v5.9c0,0-5.2,0-5.4,0c-0.1,0,0-1,0-1h-2.7v1c0,0-8.8,0-9.2,0s0,1.2,0,1.2
	h1.2v4.2l-2.1,1v1.2h-3.6l-0.9-2.5h-4.1v-2.8h-1v-1.1h0.8v-0.9h-5.2c0,0-0.7-1.8-2.6-4.1c-1.9-2.2-5.2-3.4-5.2-3.4l-0.4-2.4
	l-1.4-3.7l-1.2,3.8l-0.4,2.2c0,0-3.9,0.9-6.9,4.1c-3,3.2-2.7,8.7-2.7,8.7l-3.6,2v0.7h1.4v7.5h-2.2v5h-3.9v-2.8h-0.7v3.1h-0.7v-1
	h-1.2l-7-11.1H653v-2l0.8-0.3l-0.2-1.1l-1-0.6v-1.7l0.5-0.4l0.4-3.6l1.2-0.7v-0.9l-1.9-0.9l-0.9-2.7l-0.8,2.7l-1.9,0.9l0.1,0.9
	l1,0.8l0.2,3.8l0.6,0.2v1.7l-1,0.7l-0.1,0.9l0.8,0.4v2h-1.6l-5.5,8.3h-4.2c0,0-1.6-2.1-3.5-4.2c-1.9-2.1-5.8-4-5.8-4h-9.6h-5.8V390
	l-0.2-1.3v-0.9l0.2-0.2v-7.1h-1.6v-6.2l-0.9,0.1V362h-0.7l-0.1,0.1v-3.3c0,0,0.3-4.2-4.3-4.2v-0.4l0.4-0.3v-0.9l-0.6-0.2v-0.3h-0.3
	h-0.3v0.3l-0.6,0.2v0.9l0.4,0.3v0.4c-4.6,0-4.3,4.2-4.3,4.2v3.3l-0.1-0.1h-0.7v5.7c-0.6-1.6-2.1-4.6-5.5-7.1c-2.7-2.1-5.4-3-5.4-3
	v-0.5l-0.8-0.3v-1.1h-0.1l-0.4-0.9h-0.5v-1.5h-0.2v0.3h-0.3v-1l0.1-0.2v-0.4l-0.2-0.2c0-1.6-0.2-2.6-1-3.6c-1.4-1.8-3-1.8-3-1.8
	v-0.4l-0.1-0.1v-3.9h0.9l0.3-0.3l-0.3-0.2h-0.8v-1l-0.2-0.2l-0.2,0.2v1h-0.8l-0.3,0.2l0.3,0.3h0.9v3.9l-0.1,0.1v0.4c0,0-1.6,0-3,1.8
	c-0.8,1-1,2-1,3.6l-0.1,0.2v0.4l0.1,0.2v1H579v-0.3h-0.2v1.5h-0.5l-0.4,0.9h-0.2v1.1l-0.7,0.3v0.5c0,0-2.7,0.9-5.4,3
	c-3.3,2.5-4.9,5.6-5.5,7.1V362h-0.7l-0.1,0.1v-3.3c0,0,0.3-4.2-4.3-4.2v-0.4l0.5-0.3v-0.9l-0.6-0.2v-0.3h-0.3h-0.3v0.3l-0.6,0.2v0.9
	l0.4,0.3v0.4c-4.6,0-4.3,4.2-4.3,4.2v3.3l-0.1-0.1h-0.7v12.4l-0.9-0.1v6.2h-1.6v7.1l0.2,0.2v0.9l-0.1,0.8h-5.2v1h0.7v2h-3.6v-3h-3.1
	v3.2l-2.1,0.1v-12.1h-1.1v-2.5h-0.5l-2.6-19.4h-1.4v1.7h-2V349l0.7-1.4v-2.8l1.2-1.6v-4.6h-2.4v-11.3h0.5v-1.6l1.5-1.2v-4.8h-2.2
	l-0.7-5.9l0.5-0.9v-1.5h-0.4v-0.8l1.2-1.2v-6.5h-1.8v-17.9l1.3-0.3V281h0.5v-1h-2.1l-0.1-0.5h0.9v-0.8h-1l-0.1-1.1h0.8V277h-0.9
	l-0.1-1.2h0.7v-0.6h-0.8l-0.2-1.2h0.6v-0.5H529l-0.2-1.3h0.5v-0.5h-0.6l-0.1-0.7v-6.7h-0.5v6.7l-0.1,0.7h-0.6v0.5h0.5l-0.1,1.3h-0.7
	v0.5h0.6l-0.2,1.2h-0.8v0.6h0.7l-0.1,1.2h-0.9v0.7h0.8l-0.1,1.1h-1v0.8h0.9l-0.1,0.5H525v0.9h0.5v3.3l1.3,0.5v2.5l-2.3-2.2v-0.7
	l0.5-0.7v-1h-0.5v-6.5l1.1-1.5v-1.2h-0.8v-12.3l1.9-1.8v-4.6h0.5v-3.1h-0.5v-4.1h0.5v-1.4l-0.8-0.5v-4.2h-0.9v4.3l-0.7,0.7v1.3h0.6
	v2.1h-0.7v-1H524v-13.3l0.6-1.4h2.2v-1.1H524v-17.5h-1.3v0.5h-0.9v0.5h-1.1l-0.9-6.4h0.8v-1.3h-1l-1.1-8.1h0.8v-1.3h-1l-1.1-8.1h0.8
	V190h-1l-1.1-8.1h0.9v-1.3h-1l-1.1-8.1h0.9v-1.3h-1l-0.9-6.7l0.7-0.7v-1.5l-1.6-0.9v-6.2l0.9-2.1l0.8-0.6v-1.2l-0.9-0.4v-3.3
	l-1.9-1.3v-2.5l0.4-0.9v-5.5l-0.8-0.3v-2.3l-1-1.1l-1,1.1v2.3l-0.8,0.3v5.5l0.4,0.9v2.5l-1.9,1.3v3.3l-0.9,0.4v1.2l0.8,0.6l0.9,2.1
	v6.2l-1.6,0.9v1.5l0.7,0.7l-0.9,6.7h-1.1v1.3h0.9l-1.1,8.1h-1v1.3h0.9l-1.1,8.1h-1v1.3h0.8l-1.1,8.1h-1v1.3h0.8l-1.1,8.1h-1v1.3h0.8
	l-0.9,6.4h-1.1v-0.5h-0.9v-0.5h-1.3v17.5h-2.8v1.1h2.2l0.6,1.4v13.3h-0.6v1H495v-2.1h0.6v-1.3l-0.7-0.7v-4.3H494v4.2l-0.8,0.5v1.4
	h0.5v4.1h-0.5v3.1h0.5v4.6l1.9,1.8v12.3h-0.8v1.2l1.1,1.5v6.5h-0.5v1l0.5,0.7v0.7l-2.3,2.2v-2.5l1.3-0.5V281h0.5v-0.9h-2.1l-0.1-0.5
	h1v-0.8h-1l-0.1-1.1h0.8V277h-0.9l-0.1-1.2h0.7v-0.6h-0.8l-0.1-1.2h0.6v-0.5h-0.7l-0.2-1.3h0.5v-0.5h-0.6l-0.1-0.7v-6.7h-0.5v6.7
	l-0.1,0.7h-0.6v0.5h0.5l-0.2,1.3h-0.7v0.5h0.6l-0.2,1.2h-0.8v0.6h0.7l-0.1,1.2H490v0.7h0.8l-0.1,1.1h-1v0.8h0.9l-0.1,0.5h-2v1h0.5
	v3.6l1.3,0.3v17.9h-1.8v6.5l1.2,1.2v0.8h-0.4v1.5l0.5,0.9l-0.7,5.9h-2.1v4.8l1.5,1.2v1.6h0.5v11.3h-2.4v4.6l1.2,1.6v2.8l0.7,1.4
	v11.3h-2v-1.7H485l-2.1,15.5l-3.7-2.6v-2.3l-1.2-0.4v-1.3l0.8-1.1v-1.9l-1.9-0.9l-2.1,1.3v1.2l1.1,1.4v1l-1.1,0.8v2.2l-5.8,2.1v-4.4
	h-2.1v6.8l-1.2,1.6v0.7h0.9v1.9h-10v-20.2h-1.6v-2.8h1V356h-6.3v1.1h1v2.7h-1.6v19.1h-1l-2.5-15.4l-2.2,15.8h-3.4v-5.1l0.8-0.9v-4.4
	l3.2-3.7v-1.1h-4l-13.1-9.8v-2.8l-1.6-1.9v-2.1l1.6-1.4v-1.8l-2.2-1.6l-0.7-2.1l-0.7,2.4l-2.1,1.7l0.1,1.8l2,1.4v1.6l-1.9,2.1v2.9
	l-7.8,6.5h-4.1l-0.7,3h-2.2v-4.6h-0.9v-3h0.9v-1h-5.9v1.2h0.7v3h-0.7v15.5l-1.9,3.1h-2.2v1.2H384l-2.4-27.7l-0.9,17.7h-0.9l-1-2.4
	H375v-5.4h0.7v-1.3h-1v-5.2h1.9l2.3-2.5h1.3v-1.6h-4.9c0,0-8.3-9.2-15.1-13.5c-6.8-4.3-15.6-3.9-15.6-3.9v-2.4l-1.6-2.1v-5.8
	l1.2-1.5V321l-3-2.3l-3,2.3v1l1.6,1.8v5.9l-1.7,2.1v1.9c-11.9,0-20.3,6.5-20.3,6.5h-1.6v-1h-2.4v3.6h-9.3l-12.5,6.8h-1.6l-7.4,5.3
	l-4.2,13.7H275v-5.3c0,0,0.1-1.6-2.1-5.2c-2.1-3.5-6.7-4-6.7-4v-8.4l1.4-0.8v-1.3l1.6-0.7v-1.2h-2.4l-14-10.8v-1.9l-2.2-1.2v-1.2
	l1.2-1.4v-1.1l-2.2-1.3l-2.1,1.2v1.4l1.3,1.4v1.1l-1.8,1.3v1.7l-14.8,10.5h-1.9v1.1l1.4,0.7v1.5l1.2,1.1v7.9h-7.4v-0.4h-9.3
	l-1.2,1.5h-11.8l-15,10.2l-14.2,38h-17.8v0.8l2.3,2.4v8.9h0.4v6.1c0,0,0,0,0-0.1c-0.4-0.7-0.8-1.9-0.8-1.9h0.3v-3.3l-0.5-0.8
	l-1.3-1.2v-3.7l0.7-0.7v-0.5l-0.7-0.3v-0.7h-0.8v-0.5h-3.2v0.5H152v0.7l-0.7,0.3v0.5l0.7,0.7v3.7l-1.3,1.2l-0.5,0.8v0.1h-5.4v-0.7
	h-3.1v1h-28.6v-3l0.3-0.5v-1.1l-0.8-0.3V411l-3.5-0.8l0.9-1.1l-1.3-1.2l-1.3-0.3v-0.4l-0.3-0.1v-0.3l0.5-0.7l-0.3-0.4l-1.1-0.1
	l-0.3,0.6l0.2,0.6l0.1,0.8l-0.5-0.1c0,0-2.1-0.9-2.7-3.5c-0.6-2.6-0.5-4-0.5-4h0.9v-1h0.4v-0.4h0.2v-0.3h-2V396l-2-1.4v-0.9h-4.6
	l0-0.3l-0.1-1.7l0.2-0.5l0.4-2.2l1.6-0.4l1.7,0.4l0,1.8l-0.7,0.4l0,0.7l0.7-0.1l0.4-1.2v-2.3l-1.6-0.9l-0.1-0.6l0.1-1.2l-0.9-3.9
	l1.9,0.1l0.2-0.1l-0.1-0.3l0.5-0.9l-0.4-0.5l-0.5,0.1l-1.4-0.7l-0.6-0.7l-1.8,1.1l-0.9,0.7l1.2-0.3v0.5c0,0-0.7,0-0.8,0
	c-0.1,0-0.6,0.9-0.6,0.9l0.7,0.2l-1.3,0.3l-0.4,1.5l1.4,0.2l0.8,0.2l-1.4,1.3l-0.9,0l-2,0.8l-0.9-3.2l0-1.4l0.6,0.2l0.2-0.9
	l-0.5-0.4l-0.5-2.3l-0.5-0.2l-0.7,0.6l-0.9-1.1l-0.2-0.1l-1.3-1.1l-0.7-0.3l0.1-0.7l0.4-0.6l-0.2-0.9l-0.8-0.3l-0.7,0.7v0.5l0.3,0.3
	v0.3l-1.3-0.2l-0.3-0.3l-1.4,0v-1.2l-0.6-1l-0.8-0.3l-0.1-0.5l0.3-0.5l-0.4-1l-0.7,0.2l-0.3,0.6l0.1,0.5l0.3,0.3l0.2,0.5l-0.9,0.4
	l-1.1,0.2l-1.4-0.9v-0.3l-0.2-0.2v-5.1l-0.1-0.5v-0.4l-0.2-0.7h-0.3v0.8v0.6l-2.1,2.1l-0.1,1.2l0.6,1.2l0,2.4l0.2,0.3l-1,1.6
	c0,0-0.3,0.2-0.4,0.2c-0.1,0,0,0.5,0,0.5l-1.6,3.1v1.3l-1,2.3v1c0,0,0,1.2,0,1.3c0,0.2-0.4-0.2-0.4-0.2V384l0.2-1.2l-0.4-0.9v-0.5
	V381l-0.8-1.6l-0.6-1l-0.8,0.1l-0.1,0.9l-0.7,0.3h-0.3l-0.6,0.5l0.3,0.6l0.7,0.3l0.3,0.3l-0.1,2.4l-0.7,1.1l-0.2,1.5l-0.3,0.4v0.9
	l0.2,0.5l0.2,2.2l-0.2,0.2c0,0,0,0.4,0,0.6c0,0.1,0.7,0,0.7,0l0.2-0.4l-0.2-0.3v-2h0.6l0.5,1.1l1,3.2l0.1,1.1h-3.4v0.9l-2,1.4v2.3
	h-2v0.3h0.3v0.4h0.4v1h0.9c0,0,0.2,1.4-0.5,4c-0.6,2.5-2.7,3.5-2.7,3.5l-0.5,0.1l0.1-0.8l0.2-0.6l-0.3-0.6l-1.1,0.1l-0.3,0.4
	l0.5,0.7v0.3l-0.3,0.1v0.4l-1.3,0.3l-1.2,1.2l0.9,1.1l-3.5,0.8v0.5l-0.8,0.3v1.1l0.3,0.5v3H23.3v-1h-3.1v0.7h-5.4v-0.1l-0.5-0.8
	l-1.2-1.2v-3.7l0.7-0.7v-0.5l-0.7-0.3v-0.7h-0.8v-0.5H9.2v0.5H8.4v0.7l-0.7,0.3v0.5l0.7,0.7v3.7l-1.3,1.2l-0.5,0.8v3.3h0.3
	c0,0-0.4,1.2-0.8,1.9c-0.4,0.7-1.9,0.8-1.9,0.8v6.3H1.6l-0.8,0.1v0.4l0.5,0.3v0.5h0.5v1H4v1.3l0.3,0.2v1.2l0.3,0.3v4.1l-0.7,0.3v0.4
	l0.3,0.3v1.3h0.2v0.8h0.3v1l-0.4,0.7l0,1.2l0.8,0.7l-0.6,42.3l-0.7,0.7v0.7h0.3v0.9l-0.7,0.7v8.1l-0.4,0.3v0.9H1.7v0.4L1.3,500v3.1
	L0,503.4v8.6h21.4v-6.9h0.4v-2.7h-0.7v-2.3l-0.8-2.8v-6.8h0.7v-1.2l-0.7-0.6v-22.1l0.2-0.5v-0.7h-0.4v-0.6l1-0.4v-0.5l0.5-0.5v-0.5
	h-1.6c0,0-0.3-6.7,4.5-11.4c3.9-3.8,10.1-4.5,10.1-4.5v0.3h1.6v-0.3c0,0,6.2,0.7,10.1,4.5c4.8,4.7,4.5,11.4,4.5,11.4h-1.6v0.5
	l0.5,0.5v0.5l1,0.4v0.6h-0.4v0.7l0.2,0.5v22.1l-0.7,0.6v1.2h0.7v6.8l-0.8,2.8v2.3h-0.7v2.7h0.4v6.9h18.8v-6.9h0.4v-2.7h-0.7v-2.3
	l-0.8-2.8v-6.8H68v-1.2l-0.7-0.6v-22.1l0.2-0.5v-0.7h-0.4v-0.6l1-0.4v-0.5l0.5-0.5v-0.5h-1.6c0,0-0.3-6.7,4.5-11.4
	c3.9-3.8,10.1-4.5,10.1-4.5v0.3h0.8h0.8v-0.3c0,0,6.2,0.7,10.1,4.5c4.8,4.7,4.5,11.4,4.5,11.4h-1.6v0.5l0.5,0.5v0.5l1,0.4v0.6h-0.4
	v0.7l0.2,0.5v22.1l-0.7,0.6v1.2h0.7v6.8l-0.8,2.8v2.3h-0.7v2.7h0.4v6.9h18.8v-6.9h0.4v-2.7h-0.7v-2.3l-0.8-2.8v-6.8h0.6v-1.2
	l-0.7-0.6v-22.1l0.2-0.5v-0.7h-0.4v-0.6l1-0.4v-0.5l0.5-0.5v-0.5h-1.6c0,0-0.3-6.7,4.5-11.4c3.9-3.8,10.1-4.5,10.1-4.5v0.3h1.6v-0.3
	c0,0,6.2,0.7,10.1,4.5c4.8,4.7,4.5,11.4,4.5,11.4h-1.6v0.5l0.5,0.5v0.5l1,0.4v0.6h-0.4v0.7l0.2,0.5v22.1l-0.7,0.6v1.2h0.6v6.8
	l-0.8,2.8v2.3h-0.7v2.7h0.4v6.9H1024v-33.7L1019.5,477z M70,392.2l-0.2,0.4l-0.3,1.1h-0.6l0-2.2l0.2-0.4l0-1.5h0.4l0.5,0.9V392.2z
	 M70.2,393.7l-0.1-0.2l0.2-0.2l0.2,0.3H70.2z M74.6,381.7v-0.4h0.5l-0.3,1.3l0.3,0.3l-0.5,0.9l-0.5-1.4L74.6,381.7z M72.4,393.7
	l-0.1-0.7l0.6,0l0.2,0.7H72.4z M73.8,393.7l-0.2-0.8l1.9-0.2l0,0.9H73.8z M76.2,393.7l0.1-0.4l0.4-0.3l0,0.7H76.2z M76.6,374.9
	l-0.5,1l-0.3-3.5l1.1,1.2h1.3L76.6,374.9z M80.9,377.8l0.4-0.6l0.1-1.2l0.6,0.2l0.5-0.2l0.7,0.2l-0.7,3.6l-0.7,1.1l0.2,0.4l0.3-0.2
	l0.2,1.8h-1.1v-0.8l-0.7-1L80.9,377.8z M85.2,393.7h-2.6H81l0.1-0.8l1,0.4l0.4-0.4l2.8,0.3L85.2,393.7z M87.4,382.5l-1.1,0.5
	l-0.4-1.2l0.4-1.1l-0.5-2l-0.5-0.5l0.6-1.1l1.3,0.9l1,0.8v0.8l-0.6,1.1L87.4,382.5z M91.1,393.7h-2.8l-0.2-0.5l0.2-4l0.1-0.6
	l1.6-0.5l0.8,1.9v1.7l0.7,0.9L91.1,393.7z M94.9,392.5l-0.3,0.5l-0.1,0.5l0.1,0.1h-2.2l-0.3-1.1l1.8-3.2l1-0.4l0,1.9L94.9,392.5z
	 M495.9,300.4H495v0.9h0.4v1.5h-1.7v-10.7l2.6-3.8L495.9,300.4z M526.6,302.8h-1.7v-1.5h0.4v-0.9h-0.9l-0.4-12l2.6,3.8V302.8z"/>
</svg>
