<?xml version="1.0" encoding="utf-8"?>
<!-- Generator: Adobe Illustrator 19.2.1, SVG Export Plug-In . SVG Version: 6.00 Build 0)  -->
<svg version="1.1" id="Ebene_1" xmlns="http://www.w3.org/2000/svg" xmlns:xlink="http://www.w3.org/1999/xlink" x="0px" y="0px"
	 viewBox="0 0 1024 512" enable-background="new 0 0 1024 512" xml:space="preserve">
<path fill="#1D1D1D" d="M1024,448.3l-7.5-0.9h-11.7v-2.1v-0.9l-1.5-2.6l0.4-0.2v-0.4l-0.3-0.8l0.3-3.1l-0.3-0.4l-0.3,0.5l-0.5-0.2
	l0.2-1.6v-0.7h-1.4l-0.7,1.6l0.4,0.3l-0.4,0.5v0.6l-0.6,2.2l0.4,0.5v0.9l-1.3,0.6l0,0.4l0.5,0.2l-0.3,1l-1.1,3.9h-10.5v-21.4
	l0.4-0.6V423h-0.5v-2.4l0.7-0.5v-0.5l1.1-1v-1.7l0.6-0.5l0.4-0.5l-1.1-2.8l-2.1-1v-8.5l0.9-0.5l-0.1-0.9l0.4-0.2v-0.4l-1.8-0.7
	c0,0-0.1-1.8-1.4-4.8c-1.3-3-5.6-3.5-5.6-3.5V392l-2.2-0.5l0.5-2l-0.3-1.8l0.7-1.3v-1.1l-1.8-0.6l-1.3,1h-0.5v-0.8l-1.2-1.4
	l-0.1-2.3v-0.5l-2.3-1.8v-1.6l-0.4-0.4v-6.9l-0.4-0.6l-0.4,0.6v6.9l-0.4,0.4v1.6l-2.3,1.8v0.5l-0.1,2.3l-1.2,1.4v0.8h-0.5l-1.3-1
	l-1.8,0.6v1.1l0.7,1.3l-0.3,1.8l0.5,2l-2.2,0.5v0.6c0,0-4.4,0.5-5.6,3.5c-0.4,0.9-0.6,1.6-0.8,2.3c-0.5-0.9-1.1-1.9-1.9-2.9
	c-3.1-4.1-9.2-4.8-9.2-4.8V389l0.5-0.7v-0.9l0.6-0.3v-1.6h-27.8v-0.4H916v-0.3l0.3-0.4V383l-0.7-1.1v-7.2l0.3-1.6l-0.6-0.6l-0.6,0.6
	l0.3,1.6v7.2l-0.7,1.1v1.4l0.3,0.4v0.3h-0.7v0.4H886v1.6l0.6,0.3v0.9l0.5,0.7v1.8c0,0-6,0.7-9.2,4.8c-0.8,1-1.4,2-1.9,2.9
	c-0.2-0.7-0.5-1.4-0.8-2.3c-1.3-3-5.6-3.5-5.6-3.5V392l-2.2-0.5l0.5-2l-0.3-1.8l0.7-1.3v-1.1l-1.8-0.6l-1.3,1h-0.6v-0.8l-1.2-1.4
	l-0.2-2.3v-0.5l-2.3-1.8v-1.6l-0.4-0.4v-6.9l-0.4-0.6l-0.4,0.6v6.9l-0.4,0.4v1.6l-2.3,1.8v0.5l-0.1,2.3l-1.2,1.4v0.8H855l-1.3-1
	l-1.8,0.6v1.1l0.7,1.3l-0.3,1.8l0.5,2l-2.2,0.5v0.6c0,0-4.4,0.5-5.6,3.5c-1.3,3.1-1.4,4.8-1.4,4.8l-1.8,0.7v0.4l0.4,0.2l-0.1,0.9
	l0.9,0.5v8.5l-2,1l-1.1,2.8l0.4,0.5l0.6,0.5v1.7l1.1,1v0.5l0.7,0.5v2.4h-0.5v2.5l0.4,0.6v21.4H832l-1.1-3.9l-0.3-1l0.5-0.2l0-0.4
	l-1.3-0.6v-0.9l0.4-0.5l-0.6-2.2v-0.6l-0.4-0.5l0.4-0.3l-0.7-1.6h-1.4v0.7l0.2,1.6l-0.5,0.2l-0.3-0.5l-0.3,0.4l0.3,3.1l-0.3,0.8v0.4
	l0.4,0.2l-1.5,2.6v0.9v2.1h-8.4v-6.8h-3.4l-3.1-0.8v-2.1l-4-1.2v-2.5h-1.4v2.2l-5.4,0.4v1.1l-19.4-4.2v-2.3l0.8-0.5V429h-9.7v1
	l-2.4,1.2l-5.8-1.1h-3.1v-1.6l0.7-0.7v-2h-6.7v0.8H747v1.1h-3.3l-0.6-1.2l1.9-1v-1.2l2.8-1v-0.8l0.9-0.8v-0.8h0.8v-2.1h-7.2v-1.6
	h-1.2v-0.9l-1.2-0.4V411l-0.3-1.2v-2.8h1v-0.6l-12.6-1.4v-3.9h-1.4l0.1-0.6h0.3v-0.8h-2.2l-0.5-0.8l-2-0.5v-25.1h0.5v-2.2l0.7-2.2
	h1.9l0.2-1.5h1.1v-1.2h-5.1v-4.9h0.7v-0.9l-2.5-3.9v-4h0.5v-1.4h-0.6V349l-1.7-2.6h-1.8l-0.6,1.6v1.3l-1.3,2.9h-1.6v4.1l-1.7,1.3
	v3.3h-2.6v-6.2h0.5v-0.9l-4.2-0.9v-2.3h0.8v-1.7h-5.6v-5.5h0.6v-2h-3l-1.3-2.4v-13.4h1.3c0,0,0-1.7,0-2.3c0-0.6-1.5,0-1.5,0
	l-0.7-2.1v-2.9h-1.1v-1.5h-1.4l-4.7-2.5v-0.6l0.5-0.8v-1l-0.8-0.4V308l0.4-0.5v-1.4l-0.6-0.6l-0.6-30.2l-1.5-0.7v-0.8l-0.5-17.8
	c1.9,0.3,6.7,4.2,6.7,4.2c0-1.2,0.9-4,0.9-4s-0.4-0.8-1.2-1.6c-0.6-0.7-5.1-3.8-6.6-5l0-0.2l-0.5-1.2l-0.5,1.2l-0.7,24.3v0.8
	l-1.5,0.7l-0.6,30.2l-0.6,0.6v1.4l0.4,0.5v3.5l-0.8,0.4v1l0.5,0.8v0.6l-4.7,2.5h-1.4v1.5h-1.1v2.9l-0.7,2.1c0,0-1.5-0.6-1.5,0
	c0,0.6,0,2.3,0,2.3h1.3V339l-1.3,2.4h-3v2h0.6v5.5H663v1.7h0.8v2.3l-4.2,0.9v0.9h0.5v6.2h-2.6v-3.3l-1.7-1.3v-4.1h-1.6l-1.3-2.9
	v-1.3l-0.6-1.6h-1.8l-1.7,2.6v2.3h-0.6v1.4h0.4v4l-2.5,3.9v0.9h0.7v4.9h-5.1v1.2h1.1l0.2,1.5h1.9l0.7,2.2v2.2h0.5v25.1l-2,0.5
	l-0.5,0.8h-2.2v0.8h0.4l0.1,0.6h-1.4v3.9l-12.6,1.4v0.6h1v2.8l-0.3,1.2v4.9l-1.2,0.4v0.9h-1.2v1.6h-7.2v2.1h0.8v0.8l0.9,0.8v0.8
	l2.8,1v1.2l1.9,1l-0.6,1.2h-3.3v-1.1H614v-0.8h-6.7v2l0.7,0.7v1.6h-3.1l-5.8,1.1l-2.4-1.2v-1H587v1.7l0.8,0.5v2.3l-19.4,4.2v-1.1
	l-5.4-0.4v-2.2h-1.4v2.5l-4,1.2v2.1l-3.1,0.8h-1.1v-5.1h0.6v-1.3h-0.6v-2.4h0.5v-1.1h-0.5v-1.1l3-6.3h1.1v-1.1l0.8-1.3h1.1v-1h-6.1
	v-1.4l-0.8-1.8v-8.6h0.7v-1h-1v-4.3h1V402l0.4-0.4v-0.7h0.5v-1h-1.9v-2.4h0.4V397h-0.8v-1.5h-2.9l-1.6-1.2l-0.1-1.2l1.3-1v-0.4
	l1.1-1v-0.7h-0.7c0,0-0.5-1.3-1.1-2.5c-0.7-1.2-3.3-2.3-3.3-2.3l-0.2-0.8l0.7-0.8l-1-1v-21l-0.5-0.7l-0.5,0.7v21l-1,1l0.7,0.8
	l-0.2,0.8c0,0-2.7,1.1-3.3,2.3c-0.7,1.2-1.1,2.5-1.1,2.5h-0.7v0.7l1.1,1v0.4l1.3,1l-0.1,1.2l-1.6,1.2h-2.9v1.5h-0.8v0.6h0.4v2.4
	h-1.5v-10.4h-0.4v14.1l-19.7-0.9v-2.1h0.4v-0.6h-4.9v0.9h0.7v1.8h-18.7v-1.5l-1-1v-0.9h0.5v-0.9h-0.7v-4.1l2-3v-2.1l4.6-1.4v-2.1
	l3-1.7v-3.7h-4.8v-1.9H493v-0.7h-3.2l-6-1.6v-2.7l0.9-0.5l-0.9-3h-1.4l2.3-17.4l1.7-7l0.9-1l0.1,2.6l1.4,7l3.8-0.6v-2.8l-1.2-1.7
	l0.5-1.4v-1.3v-3.6l-1.2-5.6l-1.5-0.8l1-7.4l-1.3-2.5l0.5-2.2l-1.7-1.7l0.4-1.4l-2.6-13.4L479,305l0.9-3.4l-0.5-1.6l1-0.6V298h-3.7
	H473v1.3l1,0.6l-0.5,1.6l0.9,3.4l-6.2,2.8l-2.6,13.4l0.4,1.4l-1.7,1.7l0.5,2.2l-1.3,2.5l1,7.4l-1.5,0.8l-1.2,5.6v3.6v1.3l0.5,1.4
	l-1.2,1.7v2.8l3.8,0.6l1.4-7l0.1-2.6l0.9,1l1.7,7l2.3,17.4h-1.4l-0.9,3l0.9,0.5v2.7l-6,1.6h-3.2v0.7h-1.9v1.9h-4.8v3.7l3,1.7v2.1
	l4.6,1.4v1.5l-3.1,0.9v0.6l1.3,0.7v0.6l-1.1,0.6l0.9,1.5h2.7v1.6h-1.6v1.3h-1.8c-5.9-13.9-17.3-15.7-21-15.9l-0.3-33.8
	c1.5,0.4,5.5,0.5,6.6,0.7c1.3,0.1,0.6,1.8,2.2,1c1.5-0.7,2.7-5.8,2.1-5.6c-0.5,0.2-3.6-0.8-5.1-1.8c-1.2-0.8-4.4-1.7-5.6-2.1
	l0.3-0.5v-1.4l-1-2.8l-1,2.8v1.4l0.5,0.9l-0.3,41.2c-2.6,0-15.4,0.9-21.8,16h-1.8v-1.3h-1.6v-1.6h2.7l0.8-1.5l-1.1-0.6v-0.6l1.3-0.7
	v-0.6l-4.9-1.4l-4.8,1.7v0.5l1.5,0.6v0.5l-1.2,0.4l1.1,1.6h2.4v1.9h-2.3v1.1h-14.5v-1.1h-2.7v-1.7h2.4l1.5-1l-0.8-0.8v-0.8l1-0.6
	v-0.6l-5.2-1.5l-4.7,1.6v0.6l1.1,0.4v0.7l-1.1,0.7l1.3,1.4h2.5v1.8H385v0.9h-3.2v0.9h0.5v2.3l0.4,0.4v0.7h-20.1V401h0.7v-0.9h-4.9
	v0.6h0.4v2.1l-19.7,0.9v-14.1h-0.4v10.4h-1.5v-2.4h0.4V397h-0.8v-1.5h-2.9l-1.6-1.2l-0.1-1.2l1.3-1v-0.4l1.1-1v-0.7h-0.7
	c0,0-0.5-1.3-1.1-2.5c-0.7-1.2-3.3-2.3-3.3-2.3l-0.2-0.8l0.7-0.8l-1-1v-21l-0.5-0.7l-0.5,0.7v21l-1,1l0.7,0.8l-0.2,0.8
	c0,0-2.7,1.1-3.3,2.3c-0.7,1.2-1.1,2.5-1.1,2.5h-0.7v0.7l1.1,1v0.4l1.3,1l-0.1,1.2l-1.6,1.2h-2.9v1.5h-0.8v0.6h0.4v2.4h-1.9v1h0.5
	v0.7l0.4,0.4v0.8h1v4.3h-1v1h0.7v8.6l-0.8,1.8v1.4H313v1h1.1l0.8,1.3v1.1h1.1l3,6.3v1.1h-0.5v1.1h0.5v2.4h-0.6v1.3h0.6v9.7
	c-0.6-0.3-1-0.4-1-0.4v-0.6l0.7-0.4v-0.5l-6.5-2.7v-1.1l0.7-0.6v-0.8l0.7-0.4V437l-4.6-2.3v-1.3l0.8-0.4v-0.8l-1.8-0.5v-0.6
	l-0.6-1.2v-1.3l-0.7-0.6v-5.3l0.7-2.5l-0.1-1l-0.5-0.5v-2.6l0.6-1.2v-4.3l-4.6-2.8l-3.2-5.5v-2.1l-2.6-1.2
	c-10.4-13.4-28.7-15.7-33.5-16.2l-0.7-1.5l-0.1-0.6l1.3-0.6v-3.7l-0.7-0.5l-0.4-1.4l0.9-2l-0.4-3.9h0.4v-1.2l-2.9-1v-2.1l-1.5-0.8
	v-3.1l-0.7-1.1l-0.4-6.2l1-2.4l-0.4-2.5l1.2-1.9l-0.7-7.6l-4.2-3.1c0,0,0.3-6.7-12.9-18.9c-13.2-12.2-30-12-30-12l-0.1-0.7l0.6-1.7
	l-2-1.6v-1l0.6-0.1l1.1,1.2l0.3-0.8l-0.6-1.6h-1.3v-10.9l-0.8-1.4l-0.8,1.4v10.9H208l-0.6,1.6l0.3,0.8l1.1-1.2l0.6,0.1v1l-2,1.6
	l0.6,1.7l-0.1,0.7c0,0-16.7-0.1-30,12c-13.2,12.2-12.9,18.9-12.9,18.9l-4.2,3.1l-0.8,7.6l1.2,1.9l-0.4,2.5l1,2.4l-0.5,6.2l-0.7,1.1
	v3.1l-1.5,0.8v2.1l-2.9,1v1.2h0.4l-0.4,3.9l0.9,2l-0.4,1.4l-0.7,0.5v3.7l1.3,0.6l-0.1,0.6H96l-0.2-0.6h-1.4V355l0.7-1.3v-0.6h-0.7
	v-1.9l0.3-0.4V350h-0.4v-0.7l1.5-2.2l0.1-0.6l1.2-0.7v-1l-5.1-2.3V341l1.3-1.3v-1.5h0.9v-0.9l-2-0.7V335l-0.9-0.6v-1.9l0.9-1.2v-0.7
	l-1.9-0.7v-2.6l-0.7-0.5v-1.2l-0.9-0.9v-9.1l1.1-1.3l0.2-1.8l-0.7-0.6v-5l1-0.6V303h-1l-4.9-4.8c0,0-2.2-3.2-6.1-7.6
	c-3.9-4.4-11.4-4.1-11.4-4.1v-1l-1-1.3l0.8-0.6v-0.7l-1.3-0.9l-0.4-2l0.4-0.7v-3.7l-0.5-0.5v-1.1l0.3-0.4v-0.6l-0.5-0.6l-0.5,0.6
	v0.6l0.3,0.4v1.1l-0.4,0.5v3.7l0.3,0.7l-0.3,2l-1.3,0.9v0.7l0.9,0.6l-1,1.3v1c0,0-7.5-0.2-11.4,4.1c-3.9,4.4-6.1,7.6-6.1,7.6L40,303
	h-1v3.4l1,0.6v5l-0.7,0.6l0.2,1.8l1.1,1.3v9.1l-0.9,0.9v1.2l-0.7,0.5v2.6l-1.9,0.7v0.7l0.9,1.2v1.9l-0.9,0.6v1.6l-2,0.7v0.9H36v1.5
	l1.3,1.3v1.6l-5.1,2.3v1l1.2,0.7l0.1,0.6l1.5,2.2v0.7h-0.4v0.7l0.3,0.4v1.9h-0.7v0.6l0.7,1.3v25.8h-1.4l-2.6,10.3h-1v0.7l0.3,0.6
	l-0.7,4.5h-2v1.2l0.8,0.6l0.1,0.8l1.6,1.7v1.5h-0.7v2.2l0.3,0.8v0.8h-0.3v0.7l0.5,1h-0.5v1.6l0.4,0.9v4.5H21v-3.5l-1.4-3.6v-7.8
	h-1.1v7.9l-1.4,3.1v2.6l-1,0.4v0.7l-1.2,0.2l-2.5,10.6l-1.8,0.4v0.4l0.7,0.4v0.7l1.6,1.9v1.6h-0.5v1.1l0.5,0.8v1.2h-0.5v1.3l0.5,1.1
	v2.9h-0.7v1.3l0.5,1v11.5l-3.2,1.9H7v1.2l0.8,0.7v1.1l1.3,1.1v14.2L7,474.3v0.8h0.8v1.1H5l-5,5.7V512h1024V448.3z M337.3,402.8h1
	V402l0.4-0.4v-0.7h0.1v2.8l-1.5,0.1V402.8z M478.1,366.7l-0.4,3.4h-1h-1.1l-0.4-3.4l0.8-1.7l-1.1-4.1l0.5-5.1l1-1l1.5,1l0.5,5.1
	l-1,4.1L478.1,366.7z M535.3,403.8l-1.5-0.1v-2.8h0.1v0.7l0.4,0.4v0.8h0.9V403.8z"/>
</svg>
